<ttFont>
<head>
    <!-- Most of this table will be recalculated by the compiler -->
    <tableVersion value="1.0"/>
    <fontRevision value="1.0"/>
    <checkSumAdjustment value="0x2de4aa50"/>
    <magicNumber value="0x5f0f3cf5"/>
    <flags value="00000000 00011111"/>
    <unitsPerEm value="1000"/>
    <created value="Mon Aug 17 19:00:42 2015"/>
    <modified value="Mon Aug 17 19:00:42 2015"/>
    <xMin value="-175"/>
    <yMin value="-201"/>
    <xMax value="1187"/>
    <yMax value="935"/>
    <macStyle value="00000000 00000000"/>
    <lowestRecPPEM value="8"/>
    <fontDirectionHint value="2"/>
    <indexToLocFormat value="0"/>
    <glyphDataFormat value="0"/>
  </head>
    <TTGlyph name=".notdef" xMin="48" yMin="-15" xMax="744" yMax="684">
      <contour>
        <pt x="251" y="684" on="0"/>
        <pt x="541" y="684" on="0"/>
        <pt x="744" y="484" on="0"/>
        <pt x="744" y="333" on="1"/>
        <pt x="744" y="184" on="0"/>
        <pt x="541" y="-15" on="0"/>
        <pt x="251" y="-15" on="0"/>
        <pt x="48" y="184" on="0"/>
        <pt x="48" y="333" on="1"/>
        <pt x="48" y="484" on="0"/>
      </contour>
      <contour>
        <pt x="524" y="647" on="0"/>
        <pt x="268" y="647" on="0"/>
        <pt x="88" y="469" on="0"/>
        <pt x="88" y="334" on="1"/>
        <pt x="88" y="201" on="0"/>
        <pt x="268" y="22" on="0"/>
        <pt x="524" y="22" on="0"/>
        <pt x="704" y="201" on="0"/>
        <pt x="704" y="334" on="1"/>
        <pt x="704" y="469" on="0"/>
      </contour>
      <contour>
        <pt x="527" y="400" on="1"/>
        <pt x="527" y="355" on="0"/>
        <pt x="463" y="295" on="0"/>
        <pt x="413" y="290" on="1"/>
        <pt x="413" y="247" on="1"/>
        <pt x="369" y="247" on="1"/>
        <pt x="369" y="328" on="1"/>
        <pt x="395" y="328" on="1"/>
        <pt x="432" y="328" on="0"/>
        <pt x="481" y="368" on="0"/>
        <pt x="481" y="400" on="1"/>
        <pt x="481" y="434" on="0"/>
        <pt x="436" y="476" on="0"/>
        <pt x="398" y="476" on="1"/>
        <pt x="358" y="476" on="0"/>
        <pt x="310" y="427" on="0"/>
        <pt x="309" y="388" on="1"/>
        <pt x="263" y="396" on="1"/>
        <pt x="264" y="448" on="0"/>
        <pt x="339" y="518" on="0"/>
        <pt x="398" y="518" on="1"/>
        <pt x="456" y="518" on="0"/>
        <pt x="527" y="453" on="0"/>
      </contour>
      <contour>
        <pt x="377" y="202" on="0"/>
        <pt x="403" y="202" on="0"/>
        <pt x="421" y="185" on="0"/>
        <pt x="421" y="173" on="1"/>
        <pt x="421" y="159" on="0"/>
        <pt x="403" y="141" on="0"/>
        <pt x="377" y="141" on="0"/>
        <pt x="359" y="160" on="0"/>
        <pt x="359" y="173" on="1"/>
        <pt x="359" y="184" on="0"/>
      </contour>
    </TTGlyph>
    <TTGlyph name="A" xMin="10" yMin="0" xMax="683" yMax="670">
      <contour>
        <pt x="683" y="0" on="1"/>
        <pt x="598" y="0" on="1"/>
        <pt x="523" y="170" on="1"/>
        <pt x="170" y="170" on="1"/>
        <pt x="95" y="0" on="1"/>
        <pt x="10" y="0" on="1"/>
        <pt x="310" y="670" on="1"/>
        <pt x="383" y="670" on="1"/>
      </contour>
      <contour>
        <pt x="492" y="241" on="1"/>
        <pt x="347" y="572" on="1"/>
        <pt x="201" y="241" on="1"/>
      </contour>
    </TTGlyph>
    <TTGlyph name="AE" xMin="10" yMin="0" xMax="1000" yMax="670">
      <contour>
        <pt x="1000" y="72" on="1"/>
        <pt x="1000" y="0" on="1"/>
        <pt x="511" y="0" on="1"/>
        <pt x="511" y="155" on="1"/>
        <pt x="211" y="155" on="1"/>
        <pt x="102" y="0" on="1"/>
        <pt x="10" y="0" on="1"/>
        <pt x="490" y="670" on="1"/>
        <pt x="999" y="670" on="1"/>
        <pt x="999" y="599" on="1"/>
        <pt x="590" y="599" on="1"/>
        <pt x="590" y="372" on="1"/>
        <pt x="970" y="372" on="1"/>
        <pt x="970" y="301" on="1"/>
        <pt x="590" y="301" on="1"/>
        <pt x="590" y="72" on="1"/>
      </contour>
      <contour>
        <pt x="511" y="226" on="1"/>
        <pt x="511" y="581" on="1"/>
        <pt x="261" y="226" on="1"/>
      </contour>
    </TTGlyph>
    <TTGlyph name="AEacute" xMin="10" yMin="0" xMax="1000" yMax="885">
      <contour>
        <pt x="724" y="745" on="1"/>
        <pt x="657" y="745" on="1"/>
        <pt x="737" y="885" on="1"/>
        <pt x="826" y="885" on="1"/>
      </contour>
      <contour>
        <pt x="1000" y="72" on="1"/>
        <pt x="1000" y="0" on="1"/>
        <pt x="511" y="0" on="1"/>
        <pt x="511" y="155" on="1"/>
        <pt x="211" y="155" on="1"/>
        <pt x="102" y="0" on="1"/>
        <pt x="10" y="0" on="1"/>
        <pt x="490" y="670" on="1"/>
        <pt x="999" y="670" on="1"/>
        <pt x="999" y="599" on="1"/>
        <pt x="590" y="599" on="1"/>
        <pt x="590" y="372" on="1"/>
        <pt x="970" y="372" on="1"/>
        <pt x="970" y="301" on="1"/>
        <pt x="590" y="301" on="1"/>
        <pt x="590" y="72" on="1"/>
      </contour>
      <contour>
        <pt x="511" y="226" on="1"/>
        <pt x="511" y="581" on="1"/>
        <pt x="261" y="226" on="1"/>
      </contour>
    </TTGlyph>
    <TTGlyph name="Aacute" xMin="10" yMin="0" xMax="683" yMax="885">
      <contour>
        <pt x="386" y="745" on="1"/>
        <pt x="319" y="745" on="1"/>
        <pt x="399" y="885" on="1"/>
        <pt x="488" y="885" on="1"/>
      </contour>
      <contour>
        <pt x="683" y="0" on="1"/>
        <pt x="598" y="0" on="1"/>
        <pt x="523" y="170" on="1"/>
        <pt x="170" y="170" on="1"/>
        <pt x="95" y="0" on="1"/>
        <pt x="10" y="0" on="1"/>
        <pt x="310" y="670" on="1"/>
        <pt x="383" y="670" on="1"/>
      </contour>
      <contour>
        <pt x="492" y="241" on="1"/>
        <pt x="347" y="572" on="1"/>
        <pt x="201" y="241" on="1"/>
      </contour>
    </TTGlyph>
    <TTGlyph name="Abreve" xMin="10" yMin="0" xMax="683" yMax="867">
      <contour>
        <pt x="412" y="732" on="0"/>
        <pt x="282" y="732" on="0"/>
        <pt x="202" y="806" on="0"/>
        <pt x="202" y="867" on="1"/>
        <pt x="266" y="867" on="1"/>
        <pt x="266" y="831" on="0"/>
        <pt x="312" y="787" on="0"/>
        <pt x="382" y="787" on="0"/>
        <pt x="428" y="831" on="0"/>
        <pt x="428" y="867" on="1"/>
        <pt x="492" y="867" on="1"/>
        <pt x="492" y="806" on="0"/>
      </contour>
      <contour>
        <pt x="683" y="0" on="1"/>
        <pt x="598" y="0" on="1"/>
        <pt x="523" y="170" on="1"/>
        <pt x="170" y="170" on="1"/>
        <pt x="95" y="0" on="1"/>
        <pt x="10" y="0" on="1"/>
        <pt x="310" y="670" on="1"/>
        <pt x="383" y="670" on="1"/>
      </contour>
      <contour>
        <pt x="492" y="241" on="1"/>
        <pt x="347" y="572" on="1"/>
        <pt x="201" y="241" on="1"/>
      </contour>
    </TTGlyph>
    <TTGlyph name="Acircumflex" xMin="10" yMin="0" xMax="683" yMax="879">
      <contour>
        <pt x="272" y="737" on="1"/>
        <pt x="195" y="737" on="1"/>
        <pt x="311" y="879" on="1"/>
        <pt x="384" y="879" on="1"/>
        <pt x="501" y="737" on="1"/>
        <pt x="423" y="737" on="1"/>
        <pt x="348" y="830" on="1"/>
      </contour>
      <contour>
        <pt x="683" y="0" on="1"/>
        <pt x="598" y="0" on="1"/>
        <pt x="523" y="170" on="1"/>
        <pt x="170" y="170" on="1"/>
        <pt x="95" y="0" on="1"/>
        <pt x="10" y="0" on="1"/>
        <pt x="310" y="670" on="1"/>
        <pt x="383" y="670" on="1"/>
      </contour>
      <contour>
        <pt x="492" y="241" on="1"/>
        <pt x="347" y="572" on="1"/>
        <pt x="201" y="241" on="1"/>
      </contour>
    </TTGlyph>
    <TTGlyph name="Adieresis" xMin="10" yMin="0" xMax="683" yMax="857">
      <contour>
        <pt x="248" y="755" on="1"/>
        <pt x="226" y="755" on="0"/>
        <pt x="196" y="784" on="0"/>
        <pt x="196" y="806" on="1"/>
        <pt x="196" y="827" on="0"/>
        <pt x="226" y="857" on="0"/>
        <pt x="270" y="857" on="0"/>
        <pt x="301" y="827" on="0"/>
        <pt x="301" y="806" on="1"/>
        <pt x="301" y="784" on="0"/>
        <pt x="271" y="755" on="0"/>
      </contour>
      <contour>
        <pt x="446" y="755" on="1"/>
        <pt x="424" y="755" on="0"/>
        <pt x="394" y="784" on="0"/>
        <pt x="394" y="806" on="1"/>
        <pt x="394" y="827" on="0"/>
        <pt x="424" y="857" on="0"/>
        <pt x="468" y="857" on="0"/>
        <pt x="499" y="827" on="0"/>
        <pt x="499" y="806" on="1"/>
        <pt x="499" y="784" on="0"/>
        <pt x="469" y="755" on="0"/>
      </contour>
      <contour>
        <pt x="683" y="0" on="1"/>
        <pt x="598" y="0" on="1"/>
        <pt x="523" y="170" on="1"/>
        <pt x="170" y="170" on="1"/>
        <pt x="95" y="0" on="1"/>
        <pt x="10" y="0" on="1"/>
        <pt x="310" y="670" on="1"/>
        <pt x="383" y="670" on="1"/>
      </contour>
      <contour>
        <pt x="492" y="241" on="1"/>
        <pt x="347" y="572" on="1"/>
        <pt x="201" y="241" on="1"/>
      </contour>
    </TTGlyph>
    <TTGlyph name="Agrave" xMin="10" yMin="0" xMax="683" yMax="885">
      <contour>
        <pt x="312" y="745" on="1"/>
        <pt x="210" y="885" on="1"/>
        <pt x="299" y="885" on="1"/>
        <pt x="378" y="745" on="1"/>
      </contour>
      <contour>
        <pt x="683" y="0" on="1"/>
        <pt x="598" y="0" on="1"/>
        <pt x="523" y="170" on="1"/>
        <pt x="170" y="170" on="1"/>
        <pt x="95" y="0" on="1"/>
        <pt x="10" y="0" on="1"/>
        <pt x="310" y="670" on="1"/>
        <pt x="383" y="670" on="1"/>
      </contour>
      <contour>
        <pt x="492" y="241" on="1"/>
        <pt x="347" y="572" on="1"/>
        <pt x="201" y="241" on="1"/>
      </contour>
    </TTGlyph>
    <TTGlyph name="Amacron" xMin="10" yMin="0" xMax="683" yMax="824">
      <contour>
        <pt x="489" y="762" on="1"/>
        <pt x="205" y="762" on="1"/>
        <pt x="205" y="824" on="1"/>
        <pt x="489" y="824" on="1"/>
      </contour>
      <contour>
        <pt x="683" y="0" on="1"/>
        <pt x="598" y="0" on="1"/>
        <pt x="523" y="170" on="1"/>
        <pt x="170" y="170" on="1"/>
        <pt x="95" y="0" on="1"/>
        <pt x="10" y="0" on="1"/>
        <pt x="310" y="670" on="1"/>
        <pt x="383" y="670" on="1"/>
      </contour>
      <contour>
        <pt x="492" y="241" on="1"/>
        <pt x="347" y="572" on="1"/>
        <pt x="201" y="241" on="1"/>
      </contour>
    </TTGlyph>
    <TTGlyph name="Aogonek" xMin="10" yMin="-200" xMax="708" yMax="670">
      <contour>
        <pt x="702" y="-135" on="1"/>
        <pt x="708" y="-185" on="1"/>
        <pt x="669" y="-200" on="0"/>
        <pt x="640" y="-200" on="1"/>
        <pt x="605" y="-200" on="0"/>
        <pt x="556" y="-160" on="0"/>
        <pt x="556" y="-117" on="1"/>
        <pt x="556" y="-62" on="0"/>
        <pt x="626" y="0" on="1"/>
        <pt x="598" y="0" on="1"/>
        <pt x="523" y="170" on="1"/>
        <pt x="170" y="170" on="1"/>
        <pt x="95" y="0" on="1"/>
        <pt x="10" y="0" on="1"/>
        <pt x="310" y="670" on="1"/>
        <pt x="383" y="670" on="1"/>
        <pt x="683" y="0" on="1"/>
        <pt x="642" y="-43" on="0"/>
        <pt x="614" y="-83" on="0"/>
        <pt x="614" y="-105" on="1"/>
        <pt x="614" y="-145" on="0"/>
        <pt x="656" y="-145" on="1"/>
        <pt x="669" y="-145" on="0"/>
      </contour>
      <contour>
        <pt x="492" y="241" on="1"/>
        <pt x="347" y="572" on="1"/>
        <pt x="201" y="241" on="1"/>
      </contour>
    </TTGlyph>
    <TTGlyph name="Aring" xMin="10" yMin="0" xMax="683" yMax="928">
      <contour>
        <pt x="390" y="727" on="0"/>
        <pt x="304" y="727" on="0"/>
        <pt x="244" y="786" on="0"/>
        <pt x="244" y="828" on="1"/>
        <pt x="244" y="869" on="0"/>
        <pt x="304" y="928" on="0"/>
        <pt x="390" y="928" on="0"/>
        <pt x="451" y="869" on="0"/>
        <pt x="451" y="828" on="1"/>
        <pt x="451" y="786" on="0"/>
      </contour>
      <contour>
        <pt x="347" y="882" on="1"/>
        <pt x="324" y="882" on="0"/>
        <pt x="291" y="850" on="0"/>
        <pt x="291" y="806" on="0"/>
        <pt x="324" y="774" on="0"/>
        <pt x="347" y="774" on="1"/>
        <pt x="371" y="774" on="0"/>
        <pt x="403" y="805" on="0"/>
        <pt x="403" y="828" on="1"/>
        <pt x="403" y="850" on="0"/>
        <pt x="371" y="882" on="0"/>
      </contour>
      <contour>
        <pt x="683" y="0" on="1"/>
        <pt x="598" y="0" on="1"/>
        <pt x="523" y="170" on="1"/>
        <pt x="170" y="170" on="1"/>
        <pt x="95" y="0" on="1"/>
        <pt x="10" y="0" on="1"/>
        <pt x="310" y="670" on="1"/>
        <pt x="383" y="670" on="1"/>
      </contour>
      <contour>
        <pt x="492" y="241" on="1"/>
        <pt x="347" y="572" on="1"/>
        <pt x="201" y="241" on="1"/>
      </contour>
    </TTGlyph>
    <TTGlyph name="Atilde" xMin="10" yMin="0" xMax="683" yMax="872">
      <contour>
        <pt x="290" y="815" on="1"/>
        <pt x="273" y="815" on="0"/>
        <pt x="253" y="790" on="0"/>
        <pt x="253" y="770" on="1"/>
        <pt x="199" y="770" on="1"/>
        <pt x="199" y="822" on="0"/>
        <pt x="250" y="872" on="0"/>
        <pt x="286" y="872" on="1"/>
        <pt x="318" y="872" on="0"/>
        <pt x="387" y="824" on="0"/>
        <pt x="408" y="824" on="1"/>
        <pt x="425" y="824" on="0"/>
        <pt x="445" y="850" on="0"/>
        <pt x="445" y="871" on="1"/>
        <pt x="499" y="871" on="1"/>
        <pt x="499" y="818" on="0"/>
        <pt x="448" y="767" on="0"/>
        <pt x="412" y="767" on="1"/>
        <pt x="380" y="767" on="0"/>
        <pt x="311" y="815" on="0"/>
      </contour>
      <contour>
        <pt x="683" y="0" on="1"/>
        <pt x="598" y="0" on="1"/>
        <pt x="523" y="170" on="1"/>
        <pt x="170" y="170" on="1"/>
        <pt x="95" y="0" on="1"/>
        <pt x="10" y="0" on="1"/>
        <pt x="310" y="670" on="1"/>
        <pt x="383" y="670" on="1"/>
      </contour>
      <contour>
        <pt x="492" y="241" on="1"/>
        <pt x="347" y="572" on="1"/>
        <pt x="201" y="241" on="1"/>
      </contour>
    </TTGlyph>
    <TTGlyph name="B" xMin="88" yMin="0" xMax="617" yMax="670">
      <contour>
        <pt x="482" y="344" on="1"/>
        <pt x="482" y="341" on="1"/>
        <pt x="540" y="334" on="0"/>
        <pt x="617" y="249" on="0"/>
        <pt x="617" y="182" on="1"/>
        <pt x="617" y="100" on="0"/>
        <pt x="508" y="0" on="0"/>
        <pt x="409" y="0" on="1"/>
        <pt x="88" y="0" on="1"/>
        <pt x="88" y="670" on="1"/>
        <pt x="396" y="670" on="1"/>
        <pt x="489" y="670" on="0"/>
        <pt x="595" y="574" on="0"/>
        <pt x="595" y="494" on="1"/>
        <pt x="595" y="433" on="0"/>
        <pt x="528" y="350" on="0"/>
      </contour>
      <contour>
        <pt x="167" y="602" on="1"/>
        <pt x="167" y="370" on="1"/>
        <pt x="395" y="370" on="1"/>
        <pt x="451" y="370" on="0"/>
        <pt x="520" y="436" on="0"/>
        <pt x="520" y="490" on="1"/>
        <pt x="520" y="541" on="0"/>
        <pt x="449" y="602" on="0"/>
        <pt x="389" y="602" on="1"/>
      </contour>
      <contour>
        <pt x="167" y="68" on="1"/>
        <pt x="402" y="68" on="1"/>
        <pt x="464" y="68" on="0"/>
        <pt x="537" y="134" on="0"/>
        <pt x="537" y="189" on="1"/>
        <pt x="537" y="242" on="0"/>
        <pt x="462" y="306" on="0"/>
        <pt x="403" y="306" on="1"/>
        <pt x="167" y="306" on="1"/>
      </contour>
    </TTGlyph>
    <TTGlyph name="C" xMin="55" yMin="-13" xMax="722" yMax="683">
      <contour>
        <pt x="403" y="61" on="1"/>
        <pt x="491" y="61" on="0"/>
        <pt x="620" y="150" on="0"/>
        <pt x="646" y="232" on="1"/>
        <pt x="722" y="214" on="1"/>
        <pt x="691" y="109" on="0"/>
        <pt x="519" y="-13" on="0"/>
        <pt x="403" y="-13" on="1"/>
        <pt x="257" y="-13" on="0"/>
        <pt x="55" y="189" on="0"/>
        <pt x="55" y="481" on="0"/>
        <pt x="257" y="683" on="0"/>
        <pt x="403" y="683" on="1"/>
        <pt x="518" y="683" on="0"/>
        <pt x="691" y="562" on="0"/>
        <pt x="722" y="461" on="1"/>
        <pt x="646" y="439" on="1"/>
        <pt x="621" y="519" on="0"/>
        <pt x="491" y="609" on="0"/>
        <pt x="403" y="609" on="1"/>
        <pt x="290" y="609" on="0"/>
        <pt x="135" y="451" on="0"/>
        <pt x="135" y="335" on="1"/>
        <pt x="135" y="220" on="0"/>
        <pt x="290" y="61" on="0"/>
      </contour>
    </TTGlyph>
    <TTGlyph name="Cacute" xMin="55" yMin="-13" xMax="722" yMax="885">
      <contour>
        <pt x="440" y="745" on="1"/>
        <pt x="373" y="745" on="1"/>
        <pt x="453" y="885" on="1"/>
        <pt x="542" y="885" on="1"/>
      </contour>
      <contour>
        <pt x="403" y="61" on="1"/>
        <pt x="491" y="61" on="0"/>
        <pt x="620" y="150" on="0"/>
        <pt x="646" y="232" on="1"/>
        <pt x="722" y="214" on="1"/>
        <pt x="691" y="109" on="0"/>
        <pt x="519" y="-13" on="0"/>
        <pt x="403" y="-13" on="1"/>
        <pt x="257" y="-13" on="0"/>
        <pt x="55" y="189" on="0"/>
        <pt x="55" y="481" on="0"/>
        <pt x="257" y="683" on="0"/>
        <pt x="403" y="683" on="1"/>
        <pt x="518" y="683" on="0"/>
        <pt x="691" y="562" on="0"/>
        <pt x="722" y="461" on="1"/>
        <pt x="646" y="439" on="1"/>
        <pt x="621" y="519" on="0"/>
        <pt x="491" y="609" on="0"/>
        <pt x="403" y="609" on="1"/>
        <pt x="290" y="609" on="0"/>
        <pt x="135" y="451" on="0"/>
        <pt x="135" y="335" on="1"/>
        <pt x="135" y="220" on="0"/>
        <pt x="290" y="61" on="0"/>
      </contour>
    </TTGlyph>
    <TTGlyph name="Ccaron" xMin="55" yMin="-13" xMax="722" yMax="880">
      <contour>
        <pt x="365" y="738" on="1"/>
        <pt x="249" y="880" on="1"/>
        <pt x="326" y="880" on="1"/>
        <pt x="402" y="788" on="1"/>
        <pt x="477" y="880" on="1"/>
        <pt x="555" y="880" on="1"/>
        <pt x="438" y="738" on="1"/>
      </contour>
      <contour>
        <pt x="403" y="61" on="1"/>
        <pt x="491" y="61" on="0"/>
        <pt x="620" y="150" on="0"/>
        <pt x="646" y="232" on="1"/>
        <pt x="722" y="214" on="1"/>
        <pt x="691" y="109" on="0"/>
        <pt x="519" y="-13" on="0"/>
        <pt x="403" y="-13" on="1"/>
        <pt x="257" y="-13" on="0"/>
        <pt x="55" y="189" on="0"/>
        <pt x="55" y="481" on="0"/>
        <pt x="257" y="683" on="0"/>
        <pt x="403" y="683" on="1"/>
        <pt x="518" y="683" on="0"/>
        <pt x="691" y="562" on="0"/>
        <pt x="722" y="461" on="1"/>
        <pt x="646" y="439" on="1"/>
        <pt x="621" y="519" on="0"/>
        <pt x="491" y="609" on="0"/>
        <pt x="403" y="609" on="1"/>
        <pt x="290" y="609" on="0"/>
        <pt x="135" y="451" on="0"/>
        <pt x="135" y="335" on="1"/>
        <pt x="135" y="220" on="0"/>
        <pt x="290" y="61" on="0"/>
      </contour>
    </TTGlyph>
    <TTGlyph name="Ccedilla" xMin="55" yMin="-170" xMax="722" yMax="683">
      <contour>
        <pt x="403" y="61" on="1"/>
        <pt x="491" y="61" on="0"/>
        <pt x="620" y="150" on="0"/>
        <pt x="646" y="232" on="1"/>
        <pt x="722" y="214" on="1"/>
        <pt x="693" y="114" on="0"/>
        <pt x="531" y="-8" on="0"/>
        <pt x="422" y="-13" on="1"/>
        <pt x="351" y="-170" on="1"/>
        <pt x="268" y="-170" on="1"/>
        <pt x="363" y="-11" on="1"/>
        <pt x="230" y="4" on="0"/>
        <pt x="55" y="200" on="0"/>
        <pt x="55" y="335" on="1"/>
        <pt x="55" y="481" on="0"/>
        <pt x="257" y="683" on="0"/>
        <pt x="403" y="683" on="1"/>
        <pt x="518" y="683" on="0"/>
        <pt x="691" y="562" on="0"/>
        <pt x="722" y="461" on="1"/>
        <pt x="646" y="439" on="1"/>
        <pt x="621" y="519" on="0"/>
        <pt x="491" y="609" on="0"/>
        <pt x="403" y="609" on="1"/>
        <pt x="290" y="609" on="0"/>
        <pt x="135" y="451" on="0"/>
        <pt x="135" y="335" on="1"/>
        <pt x="135" y="220" on="0"/>
        <pt x="290" y="61" on="0"/>
      </contour>
    </TTGlyph>
    <TTGlyph name="Cdotaccent" xMin="55" yMin="-13" xMax="722" yMax="862">
      <contour>
        <pt x="400" y="763" on="1"/>
        <pt x="378" y="763" on="0"/>
        <pt x="349" y="791" on="0"/>
        <pt x="349" y="813" on="1"/>
        <pt x="349" y="833" on="0"/>
        <pt x="379" y="862" on="0"/>
        <pt x="400" y="862" on="1"/>
        <pt x="422" y="862" on="0"/>
        <pt x="452" y="833" on="0"/>
        <pt x="452" y="813" on="1"/>
        <pt x="452" y="791" on="0"/>
        <pt x="423" y="763" on="0"/>
      </contour>
      <contour>
        <pt x="403" y="61" on="1"/>
        <pt x="491" y="61" on="0"/>
        <pt x="620" y="150" on="0"/>
        <pt x="646" y="232" on="1"/>
        <pt x="722" y="214" on="1"/>
        <pt x="691" y="109" on="0"/>
        <pt x="519" y="-13" on="0"/>
        <pt x="403" y="-13" on="1"/>
        <pt x="257" y="-13" on="0"/>
        <pt x="55" y="189" on="0"/>
        <pt x="55" y="481" on="0"/>
        <pt x="257" y="683" on="0"/>
        <pt x="403" y="683" on="1"/>
        <pt x="518" y="683" on="0"/>
        <pt x="691" y="562" on="0"/>
        <pt x="722" y="461" on="1"/>
        <pt x="646" y="439" on="1"/>
        <pt x="621" y="519" on="0"/>
        <pt x="491" y="609" on="0"/>
        <pt x="403" y="609" on="1"/>
        <pt x="290" y="609" on="0"/>
        <pt x="135" y="451" on="0"/>
        <pt x="135" y="335" on="1"/>
        <pt x="135" y="220" on="0"/>
        <pt x="290" y="61" on="0"/>
      </contour>
    </TTGlyph>
    <TTGlyph name="D" xMin="88" yMin="0" xMax="681" yMax="670">
      <contour>
        <pt x="88" y="670" on="1"/>
        <pt x="310" y="670" on="1"/>
        <pt x="482" y="670" on="0"/>
        <pt x="681" y="482" on="0"/>
        <pt x="681" y="335" on="1"/>
        <pt x="681" y="189" on="0"/>
        <pt x="482" y="0" on="0"/>
        <pt x="310" y="0" on="1"/>
        <pt x="88" y="0" on="1"/>
      </contour>
      <contour>
        <pt x="167" y="72" on="1"/>
        <pt x="309" y="72" on="1"/>
        <pt x="446" y="72" on="0"/>
        <pt x="601" y="220" on="0"/>
        <pt x="601" y="335" on="1"/>
        <pt x="601" y="451" on="0"/>
        <pt x="446" y="599" on="0"/>
        <pt x="309" y="599" on="1"/>
        <pt x="167" y="599" on="1"/>
      </contour>
    </TTGlyph>
    <TTGlyph name="Dcaron" xMin="88" yMin="0" xMax="681" yMax="880">
      <contour>
        <pt x="313" y="738" on="1"/>
        <pt x="197" y="880" on="1"/>
        <pt x="274" y="880" on="1"/>
        <pt x="350" y="788" on="1"/>
        <pt x="425" y="880" on="1"/>
        <pt x="503" y="880" on="1"/>
        <pt x="386" y="738" on="1"/>
      </contour>
      <contour>
        <pt x="88" y="670" on="1"/>
        <pt x="310" y="670" on="1"/>
        <pt x="482" y="670" on="0"/>
        <pt x="681" y="482" on="0"/>
        <pt x="681" y="335" on="1"/>
        <pt x="681" y="189" on="0"/>
        <pt x="482" y="0" on="0"/>
        <pt x="310" y="0" on="1"/>
        <pt x="88" y="0" on="1"/>
      </contour>
      <contour>
        <pt x="167" y="72" on="1"/>
        <pt x="309" y="72" on="1"/>
        <pt x="446" y="72" on="0"/>
        <pt x="601" y="220" on="0"/>
        <pt x="601" y="335" on="1"/>
        <pt x="601" y="451" on="0"/>
        <pt x="446" y="599" on="0"/>
        <pt x="309" y="599" on="1"/>
        <pt x="167" y="599" on="1"/>
      </contour>
    </TTGlyph>
    <TTGlyph name="Dcroat" xMin="30" yMin="0" xMax="698" yMax="670">
      <contour>
        <pt x="105" y="670" on="1"/>
        <pt x="327" y="670" on="1"/>
        <pt x="499" y="670" on="0"/>
        <pt x="698" y="482" on="0"/>
        <pt x="698" y="335" on="1"/>
        <pt x="698" y="189" on="0"/>
        <pt x="499" y="0" on="0"/>
        <pt x="327" y="0" on="1"/>
        <pt x="105" y="0" on="1"/>
        <pt x="105" y="302" on="1"/>
        <pt x="30" y="302" on="1"/>
        <pt x="30" y="373" on="1"/>
        <pt x="105" y="373" on="1"/>
      </contour>
      <contour>
        <pt x="184" y="72" on="1"/>
        <pt x="327" y="72" on="1"/>
        <pt x="463" y="72" on="0"/>
        <pt x="619" y="220" on="0"/>
        <pt x="619" y="450" on="0"/>
        <pt x="463" y="599" on="0"/>
        <pt x="327" y="599" on="1"/>
        <pt x="184" y="599" on="1"/>
        <pt x="184" y="373" on="1"/>
        <pt x="348" y="373" on="1"/>
        <pt x="348" y="302" on="1"/>
        <pt x="184" y="302" on="1"/>
      </contour>
    </TTGlyph>
    <TTGlyph name="E" xMin="88" yMin="0" xMax="577" yMax="670">
      <contour>
        <pt x="577" y="72" on="1"/>
        <pt x="577" y="0" on="1"/>
        <pt x="88" y="0" on="1"/>
        <pt x="88" y="670" on="1"/>
        <pt x="576" y="670" on="1"/>
        <pt x="576" y="599" on="1"/>
        <pt x="167" y="599" on="1"/>
        <pt x="167" y="372" on="1"/>
        <pt x="547" y="372" on="1"/>
        <pt x="547" y="301" on="1"/>
        <pt x="167" y="301" on="1"/>
        <pt x="167" y="72" on="1"/>
      </contour>
    </TTGlyph>
    <TTGlyph name="Eacute" xMin="88" yMin="0" xMax="577" yMax="885">
      <contour>
        <pt x="379" y="745" on="1"/>
        <pt x="312" y="745" on="1"/>
        <pt x="392" y="885" on="1"/>
        <pt x="481" y="885" on="1"/>
      </contour>
      <contour>
        <pt x="577" y="72" on="1"/>
        <pt x="577" y="0" on="1"/>
        <pt x="88" y="0" on="1"/>
        <pt x="88" y="670" on="1"/>
        <pt x="576" y="670" on="1"/>
        <pt x="576" y="599" on="1"/>
        <pt x="167" y="599" on="1"/>
        <pt x="167" y="372" on="1"/>
        <pt x="547" y="372" on="1"/>
        <pt x="547" y="301" on="1"/>
        <pt x="167" y="301" on="1"/>
        <pt x="167" y="72" on="1"/>
      </contour>
    </TTGlyph>
    <TTGlyph name="Ecaron" xMin="88" yMin="0" xMax="577" yMax="880">
      <contour>
        <pt x="304" y="738" on="1"/>
        <pt x="188" y="880" on="1"/>
        <pt x="265" y="880" on="1"/>
        <pt x="341" y="788" on="1"/>
        <pt x="416" y="880" on="1"/>
        <pt x="494" y="880" on="1"/>
        <pt x="377" y="738" on="1"/>
      </contour>
      <contour>
        <pt x="577" y="72" on="1"/>
        <pt x="577" y="0" on="1"/>
        <pt x="88" y="0" on="1"/>
        <pt x="88" y="670" on="1"/>
        <pt x="576" y="670" on="1"/>
        <pt x="576" y="599" on="1"/>
        <pt x="167" y="599" on="1"/>
        <pt x="167" y="372" on="1"/>
        <pt x="547" y="372" on="1"/>
        <pt x="547" y="301" on="1"/>
        <pt x="167" y="301" on="1"/>
        <pt x="167" y="72" on="1"/>
      </contour>
    </TTGlyph>
    <TTGlyph name="Ecircumflex" xMin="88" yMin="0" xMax="577" yMax="879">
      <contour>
        <pt x="265" y="737" on="1"/>
        <pt x="188" y="737" on="1"/>
        <pt x="304" y="879" on="1"/>
        <pt x="377" y="879" on="1"/>
        <pt x="494" y="737" on="1"/>
        <pt x="416" y="737" on="1"/>
        <pt x="341" y="830" on="1"/>
      </contour>
      <contour>
        <pt x="577" y="72" on="1"/>
        <pt x="577" y="0" on="1"/>
        <pt x="88" y="0" on="1"/>
        <pt x="88" y="670" on="1"/>
        <pt x="576" y="670" on="1"/>
        <pt x="576" y="599" on="1"/>
        <pt x="167" y="599" on="1"/>
        <pt x="167" y="372" on="1"/>
        <pt x="547" y="372" on="1"/>
        <pt x="547" y="301" on="1"/>
        <pt x="167" y="301" on="1"/>
        <pt x="167" y="72" on="1"/>
      </contour>
    </TTGlyph>
    <TTGlyph name="Edieresis" xMin="88" yMin="0" xMax="577" yMax="857">
      <contour>
        <pt x="241" y="755" on="1"/>
        <pt x="219" y="755" on="0"/>
        <pt x="189" y="784" on="0"/>
        <pt x="189" y="806" on="1"/>
        <pt x="189" y="827" on="0"/>
        <pt x="219" y="857" on="0"/>
        <pt x="263" y="857" on="0"/>
        <pt x="294" y="827" on="0"/>
        <pt x="294" y="806" on="1"/>
        <pt x="294" y="784" on="0"/>
        <pt x="264" y="755" on="0"/>
      </contour>
      <contour>
        <pt x="439" y="755" on="1"/>
        <pt x="417" y="755" on="0"/>
        <pt x="387" y="784" on="0"/>
        <pt x="387" y="806" on="1"/>
        <pt x="387" y="827" on="0"/>
        <pt x="417" y="857" on="0"/>
        <pt x="461" y="857" on="0"/>
        <pt x="492" y="827" on="0"/>
        <pt x="492" y="806" on="1"/>
        <pt x="492" y="784" on="0"/>
        <pt x="462" y="755" on="0"/>
      </contour>
      <contour>
        <pt x="577" y="72" on="1"/>
        <pt x="577" y="0" on="1"/>
        <pt x="88" y="0" on="1"/>
        <pt x="88" y="670" on="1"/>
        <pt x="576" y="670" on="1"/>
        <pt x="576" y="599" on="1"/>
        <pt x="167" y="599" on="1"/>
        <pt x="167" y="372" on="1"/>
        <pt x="547" y="372" on="1"/>
        <pt x="547" y="301" on="1"/>
        <pt x="167" y="301" on="1"/>
        <pt x="167" y="72" on="1"/>
      </contour>
    </TTGlyph>
    <TTGlyph name="Edotaccent" xMin="88" yMin="0" xMax="577" yMax="862">
      <contour>
        <pt x="340" y="763" on="1"/>
        <pt x="318" y="763" on="0"/>
        <pt x="289" y="791" on="0"/>
        <pt x="289" y="813" on="1"/>
        <pt x="289" y="833" on="0"/>
        <pt x="319" y="862" on="0"/>
        <pt x="340" y="862" on="1"/>
        <pt x="362" y="862" on="0"/>
        <pt x="392" y="833" on="0"/>
        <pt x="392" y="813" on="1"/>
        <pt x="392" y="791" on="0"/>
        <pt x="363" y="763" on="0"/>
      </contour>
      <contour>
        <pt x="577" y="72" on="1"/>
        <pt x="577" y="0" on="1"/>
        <pt x="88" y="0" on="1"/>
        <pt x="88" y="670" on="1"/>
        <pt x="576" y="670" on="1"/>
        <pt x="576" y="599" on="1"/>
        <pt x="167" y="599" on="1"/>
        <pt x="167" y="372" on="1"/>
        <pt x="547" y="372" on="1"/>
        <pt x="547" y="301" on="1"/>
        <pt x="167" y="301" on="1"/>
        <pt x="167" y="72" on="1"/>
      </contour>
    </TTGlyph>
    <TTGlyph name="Egrave" xMin="88" yMin="0" xMax="577" yMax="885">
      <contour>
        <pt x="306" y="745" on="1"/>
        <pt x="204" y="885" on="1"/>
        <pt x="293" y="885" on="1"/>
        <pt x="372" y="745" on="1"/>
      </contour>
      <contour>
        <pt x="577" y="72" on="1"/>
        <pt x="577" y="0" on="1"/>
        <pt x="88" y="0" on="1"/>
        <pt x="88" y="670" on="1"/>
        <pt x="576" y="670" on="1"/>
        <pt x="576" y="599" on="1"/>
        <pt x="167" y="599" on="1"/>
        <pt x="167" y="372" on="1"/>
        <pt x="547" y="372" on="1"/>
        <pt x="547" y="301" on="1"/>
        <pt x="167" y="301" on="1"/>
        <pt x="167" y="72" on="1"/>
      </contour>
    </TTGlyph>
    <TTGlyph name="Emacron" xMin="88" yMin="0" xMax="577" yMax="824">
      <contour>
        <pt x="482" y="762" on="1"/>
        <pt x="198" y="762" on="1"/>
        <pt x="198" y="824" on="1"/>
        <pt x="482" y="824" on="1"/>
      </contour>
      <contour>
        <pt x="577" y="72" on="1"/>
        <pt x="577" y="0" on="1"/>
        <pt x="88" y="0" on="1"/>
        <pt x="88" y="670" on="1"/>
        <pt x="576" y="670" on="1"/>
        <pt x="576" y="599" on="1"/>
        <pt x="167" y="599" on="1"/>
        <pt x="167" y="372" on="1"/>
        <pt x="547" y="372" on="1"/>
        <pt x="547" y="301" on="1"/>
        <pt x="167" y="301" on="1"/>
        <pt x="167" y="72" on="1"/>
      </contour>
    </TTGlyph>
    <TTGlyph name="Eng" xMin="88" yMin="-180" xMax="673" yMax="670">
      <contour>
        <pt x="673" y="670" on="1"/>
        <pt x="673" y="-52" on="1"/>
        <pt x="673" y="-108" on="0"/>
        <pt x="604" y="-180" on="0"/>
        <pt x="549" y="-180" on="1"/>
        <pt x="500" y="-180" on="0"/>
        <pt x="456" y="-158" on="1"/>
        <pt x="472" y="-98" on="1"/>
        <pt x="502" y="-112" on="0"/>
        <pt x="560" y="-112" on="0"/>
        <pt x="596" y="-80" on="0"/>
        <pt x="596" y="-52" on="1"/>
        <pt x="596" y="11" on="1"/>
        <pt x="167" y="532" on="1"/>
        <pt x="167" y="0" on="1"/>
        <pt x="88" y="0" on="1"/>
        <pt x="88" y="670" on="1"/>
        <pt x="156" y="670" on="1"/>
        <pt x="594" y="132" on="1"/>
        <pt x="594" y="670" on="1"/>
      </contour>
    </TTGlyph>
    <TTGlyph name="Eogonek" xMin="88" yMin="-200" xMax="577" yMax="670">
      <contour>
        <pt x="577" y="0" on="1"/>
        <pt x="546" y="0" on="1"/>
        <pt x="505" y="-43" on="0"/>
        <pt x="477" y="-83" on="0"/>
        <pt x="477" y="-105" on="1"/>
        <pt x="477" y="-145" on="0"/>
        <pt x="519" y="-145" on="1"/>
        <pt x="532" y="-145" on="0"/>
        <pt x="565" y="-135" on="1"/>
        <pt x="571" y="-185" on="1"/>
        <pt x="532" y="-200" on="0"/>
        <pt x="503" y="-200" on="1"/>
        <pt x="468" y="-200" on="0"/>
        <pt x="419" y="-160" on="0"/>
        <pt x="419" y="-117" on="1"/>
        <pt x="419" y="-62" on="0"/>
        <pt x="489" y="0" on="1"/>
        <pt x="88" y="0" on="1"/>
        <pt x="88" y="670" on="1"/>
        <pt x="576" y="670" on="1"/>
        <pt x="576" y="599" on="1"/>
        <pt x="167" y="599" on="1"/>
        <pt x="167" y="372" on="1"/>
        <pt x="547" y="372" on="1"/>
        <pt x="547" y="301" on="1"/>
        <pt x="167" y="301" on="1"/>
        <pt x="167" y="72" on="1"/>
        <pt x="577" y="72" on="1"/>
      </contour>
    </TTGlyph>
    <TTGlyph name="Eth" xMin="30" yMin="0" xMax="698" yMax="670">
      <contour>
        <pt x="105" y="670" on="1"/>
        <pt x="327" y="670" on="1"/>
        <pt x="499" y="670" on="0"/>
        <pt x="698" y="482" on="0"/>
        <pt x="698" y="335" on="1"/>
        <pt x="698" y="189" on="0"/>
        <pt x="499" y="0" on="0"/>
        <pt x="327" y="0" on="1"/>
        <pt x="105" y="0" on="1"/>
        <pt x="105" y="302" on="1"/>
        <pt x="30" y="302" on="1"/>
        <pt x="30" y="373" on="1"/>
        <pt x="105" y="373" on="1"/>
      </contour>
      <contour>
        <pt x="184" y="72" on="1"/>
        <pt x="327" y="72" on="1"/>
        <pt x="463" y="72" on="0"/>
        <pt x="619" y="220" on="0"/>
        <pt x="619" y="450" on="0"/>
        <pt x="463" y="599" on="0"/>
        <pt x="327" y="599" on="1"/>
        <pt x="184" y="599" on="1"/>
        <pt x="184" y="373" on="1"/>
        <pt x="348" y="373" on="1"/>
        <pt x="348" y="302" on="1"/>
        <pt x="184" y="302" on="1"/>
      </contour>
    </TTGlyph>
    <TTGlyph name="Euro" xMin="88" yMin="-12" xMax="737" yMax="683">
      <contour>
        <pt x="660" y="235" on="1"/>
        <pt x="737" y="217" on="1"/>
        <pt x="712" y="112" on="0"/>
        <pt x="571" y="-12" on="0"/>
        <pt x="472" y="-12" on="1"/>
        <pt x="370" y="-12" on="0"/>
        <pt x="228" y="118" on="0"/>
        <pt x="205" y="230" on="1"/>
        <pt x="88" y="230" on="1"/>
        <pt x="88" y="288" on="1"/>
        <pt x="196" y="288" on="1"/>
        <pt x="194" y="318" on="0"/>
        <pt x="194" y="335" on="1"/>
        <pt x="194" y="349" on="0"/>
        <pt x="196" y="377" on="1"/>
        <pt x="88" y="377" on="1"/>
        <pt x="88" y="435" on="1"/>
        <pt x="203" y="435" on="1"/>
        <pt x="226" y="549" on="0"/>
        <pt x="369" y="683" on="0"/>
        <pt x="472" y="683" on="1"/>
        <pt x="571" y="683" on="0"/>
        <pt x="712" y="558" on="0"/>
        <pt x="736" y="452" on="1"/>
        <pt x="657" y="435" on="1"/>
        <pt x="639" y="519" on="0"/>
        <pt x="540" y="610" on="0"/>
        <pt x="472" y="610" on="1"/>
        <pt x="402" y="610" on="0"/>
        <pt x="304" y="516" on="0"/>
        <pt x="285" y="435" on="1"/>
        <pt x="541" y="435" on="1"/>
        <pt x="526" y="377" on="1"/>
        <pt x="276" y="377" on="1"/>
        <pt x="274" y="349" on="0"/>
        <pt x="274" y="335" on="1"/>
        <pt x="274" y="318" on="0"/>
        <pt x="276" y="288" on="1"/>
        <pt x="503" y="288" on="1"/>
        <pt x="489" y="230" on="1"/>
        <pt x="286" y="230" on="1"/>
        <pt x="307" y="152" on="0"/>
        <pt x="404" y="62" on="0"/>
        <pt x="472" y="62" on="1"/>
        <pt x="539" y="62" on="0"/>
        <pt x="638" y="151" on="0"/>
      </contour>
    </TTGlyph>
    <TTGlyph name="Euro.tf" xMin="20" yMin="-13" xMax="579" yMax="683">
      <contour>
        <pt x="330" y="61" on="1"/>
        <pt x="390" y="61" on="0"/>
        <pt x="478" y="149" on="0"/>
        <pt x="501" y="230" on="1"/>
        <pt x="579" y="214" on="1"/>
        <pt x="555" y="111" on="0"/>
        <pt x="423" y="-13" on="0"/>
        <pt x="330" y="-13" on="1"/>
        <pt x="232" y="-13" on="0"/>
        <pt x="98" y="115" on="0"/>
        <pt x="76" y="230" on="1"/>
        <pt x="20" y="230" on="1"/>
        <pt x="20" y="288" on="1"/>
        <pt x="69" y="288" on="1"/>
        <pt x="67" y="318" on="0"/>
        <pt x="67" y="335" on="1"/>
        <pt x="67" y="363" on="0"/>
        <pt x="68" y="377" on="1"/>
        <pt x="20" y="377" on="1"/>
        <pt x="20" y="435" on="1"/>
        <pt x="75" y="435" on="1"/>
        <pt x="96" y="552" on="0"/>
        <pt x="231" y="683" on="0"/>
        <pt x="330" y="683" on="1"/>
        <pt x="423" y="683" on="0"/>
        <pt x="555" y="558" on="0"/>
        <pt x="579" y="453" on="1"/>
        <pt x="501" y="438" on="1"/>
        <pt x="482" y="520" on="0"/>
        <pt x="391" y="610" on="0"/>
        <pt x="330" y="610" on="1"/>
        <pt x="264" y="610" on="0"/>
        <pt x="173" y="519" on="0"/>
        <pt x="156" y="435" on="1"/>
        <pt x="394" y="435" on="1"/>
        <pt x="379" y="377" on="1"/>
        <pt x="149" y="377" on="1"/>
        <pt x="147" y="351" on="0"/>
        <pt x="147" y="335" on="1"/>
        <pt x="147" y="318" on="0"/>
        <pt x="149" y="288" on="1"/>
        <pt x="358" y="288" on="1"/>
        <pt x="345" y="230" on="1"/>
        <pt x="157" y="230" on="1"/>
        <pt x="175" y="149" on="0"/>
        <pt x="266" y="61" on="0"/>
      </contour>
    </TTGlyph>
    <TTGlyph name="F" xMin="88" yMin="0" xMax="568" yMax="670">
      <contour>
        <pt x="167" y="599" on="1"/>
        <pt x="167" y="365" on="1"/>
        <pt x="533" y="365" on="1"/>
        <pt x="533" y="294" on="1"/>
        <pt x="167" y="294" on="1"/>
        <pt x="167" y="0" on="1"/>
        <pt x="88" y="0" on="1"/>
        <pt x="88" y="670" on="1"/>
        <pt x="568" y="670" on="1"/>
        <pt x="568" y="599" on="1"/>
      </contour>
    </TTGlyph>
    <TTGlyph name="G" xMin="55" yMin="-13" xMax="740" yMax="683">
      <contour>
        <pt x="368" y="368" on="1"/>
        <pt x="739" y="368" on="1"/>
        <pt x="740" y="355" on="0"/>
        <pt x="740" y="334" on="1"/>
        <pt x="740" y="186" on="0"/>
        <pt x="551" y="-13" on="0"/>
        <pt x="257" y="-13" on="0"/>
        <pt x="55" y="189" on="0"/>
        <pt x="55" y="481" on="0"/>
        <pt x="256" y="683" on="0"/>
        <pt x="402" y="683" on="1"/>
        <pt x="513" y="683" on="0"/>
        <pt x="682" y="580" on="0"/>
        <pt x="718" y="489" on="1"/>
        <pt x="647" y="464" on="1"/>
        <pt x="612" y="535" on="0"/>
        <pt x="484" y="609" on="0"/>
        <pt x="402" y="609" on="1"/>
        <pt x="289" y="609" on="0"/>
        <pt x="135" y="450" on="0"/>
        <pt x="135" y="220" on="0"/>
        <pt x="292" y="61" on="0"/>
        <pt x="406" y="61" on="1"/>
        <pt x="511" y="61" on="0"/>
        <pt x="652" y="193" on="0"/>
        <pt x="664" y="296" on="1"/>
        <pt x="368" y="296" on="1"/>
      </contour>
    </TTGlyph>
    <TTGlyph name="Gbreve" xMin="55" yMin="-13" xMax="740" yMax="867">
      <contour>
        <pt x="471" y="732" on="0"/>
        <pt x="341" y="732" on="0"/>
        <pt x="261" y="806" on="0"/>
        <pt x="261" y="867" on="1"/>
        <pt x="325" y="867" on="1"/>
        <pt x="325" y="831" on="0"/>
        <pt x="371" y="787" on="0"/>
        <pt x="441" y="787" on="0"/>
        <pt x="487" y="831" on="0"/>
        <pt x="487" y="867" on="1"/>
        <pt x="551" y="867" on="1"/>
        <pt x="551" y="806" on="0"/>
      </contour>
      <contour>
        <pt x="368" y="368" on="1"/>
        <pt x="739" y="368" on="1"/>
        <pt x="740" y="355" on="0"/>
        <pt x="740" y="334" on="1"/>
        <pt x="740" y="186" on="0"/>
        <pt x="551" y="-13" on="0"/>
        <pt x="257" y="-13" on="0"/>
        <pt x="55" y="189" on="0"/>
        <pt x="55" y="481" on="0"/>
        <pt x="256" y="683" on="0"/>
        <pt x="402" y="683" on="1"/>
        <pt x="513" y="683" on="0"/>
        <pt x="682" y="580" on="0"/>
        <pt x="718" y="489" on="1"/>
        <pt x="647" y="464" on="1"/>
        <pt x="612" y="535" on="0"/>
        <pt x="484" y="609" on="0"/>
        <pt x="402" y="609" on="1"/>
        <pt x="289" y="609" on="0"/>
        <pt x="135" y="450" on="0"/>
        <pt x="135" y="220" on="0"/>
        <pt x="292" y="61" on="0"/>
        <pt x="406" y="61" on="1"/>
        <pt x="511" y="61" on="0"/>
        <pt x="652" y="193" on="0"/>
        <pt x="664" y="296" on="1"/>
        <pt x="368" y="296" on="1"/>
      </contour>
    </TTGlyph>
    <TTGlyph name="Gcommaaccent" xMin="55" yMin="-188" xMax="740" yMax="683">
      <contour>
        <pt x="368" y="368" on="1"/>
        <pt x="739" y="368" on="1"/>
        <pt x="740" y="355" on="0"/>
        <pt x="740" y="334" on="1"/>
        <pt x="740" y="186" on="0"/>
        <pt x="551" y="-13" on="0"/>
        <pt x="257" y="-13" on="0"/>
        <pt x="55" y="189" on="0"/>
        <pt x="55" y="481" on="0"/>
        <pt x="256" y="683" on="0"/>
        <pt x="402" y="683" on="1"/>
        <pt x="513" y="683" on="0"/>
        <pt x="682" y="580" on="0"/>
        <pt x="718" y="489" on="1"/>
        <pt x="647" y="464" on="1"/>
        <pt x="612" y="535" on="0"/>
        <pt x="484" y="609" on="0"/>
        <pt x="402" y="609" on="1"/>
        <pt x="289" y="609" on="0"/>
        <pt x="135" y="450" on="0"/>
        <pt x="135" y="220" on="0"/>
        <pt x="292" y="61" on="0"/>
        <pt x="406" y="61" on="1"/>
        <pt x="511" y="61" on="0"/>
        <pt x="652" y="193" on="0"/>
        <pt x="664" y="296" on="1"/>
        <pt x="368" y="296" on="1"/>
      </contour>
      <contour>
        <pt x="353" y="-45" on="1"/>
        <pt x="436" y="-45" on="1"/>
        <pt x="365" y="-188" on="1"/>
        <pt x="305" y="-188" on="1"/>
      </contour>
    </TTGlyph>
    <TTGlyph name="Gdotaccent" xMin="55" yMin="-13" xMax="740" yMax="862">
      <contour>
        <pt x="405" y="763" on="1"/>
        <pt x="383" y="763" on="0"/>
        <pt x="354" y="791" on="0"/>
        <pt x="354" y="813" on="1"/>
        <pt x="354" y="833" on="0"/>
        <pt x="384" y="862" on="0"/>
        <pt x="405" y="862" on="1"/>
        <pt x="427" y="862" on="0"/>
        <pt x="457" y="833" on="0"/>
        <pt x="457" y="813" on="1"/>
        <pt x="457" y="791" on="0"/>
        <pt x="428" y="763" on="0"/>
      </contour>
      <contour>
        <pt x="368" y="368" on="1"/>
        <pt x="739" y="368" on="1"/>
        <pt x="740" y="355" on="0"/>
        <pt x="740" y="334" on="1"/>
        <pt x="740" y="186" on="0"/>
        <pt x="551" y="-13" on="0"/>
        <pt x="257" y="-13" on="0"/>
        <pt x="55" y="189" on="0"/>
        <pt x="55" y="481" on="0"/>
        <pt x="256" y="683" on="0"/>
        <pt x="402" y="683" on="1"/>
        <pt x="513" y="683" on="0"/>
        <pt x="682" y="580" on="0"/>
        <pt x="718" y="489" on="1"/>
        <pt x="647" y="464" on="1"/>
        <pt x="612" y="535" on="0"/>
        <pt x="484" y="609" on="0"/>
        <pt x="402" y="609" on="1"/>
        <pt x="289" y="609" on="0"/>
        <pt x="135" y="450" on="0"/>
        <pt x="135" y="220" on="0"/>
        <pt x="292" y="61" on="0"/>
        <pt x="406" y="61" on="1"/>
        <pt x="511" y="61" on="0"/>
        <pt x="652" y="193" on="0"/>
        <pt x="664" y="296" on="1"/>
        <pt x="368" y="296" on="1"/>
      </contour>
    </TTGlyph>
    <TTGlyph name="H" xMin="88" yMin="0" xMax="648" yMax="670">
      <contour>
        <pt x="648" y="670" on="1"/>
        <pt x="648" y="0" on="1"/>
        <pt x="569" y="0" on="1"/>
        <pt x="569" y="302" on="1"/>
        <pt x="167" y="302" on="1"/>
        <pt x="167" y="0" on="1"/>
        <pt x="88" y="0" on="1"/>
        <pt x="88" y="670" on="1"/>
        <pt x="167" y="670" on="1"/>
        <pt x="167" y="373" on="1"/>
        <pt x="569" y="373" on="1"/>
        <pt x="569" y="670" on="1"/>
      </contour>
    </TTGlyph>
    <TTGlyph name="Hbar" xMin="30" yMin="0" xMax="726" yMax="670">
      <contour>
        <pt x="726" y="466" on="1"/>
        <pt x="656" y="466" on="1"/>
        <pt x="656" y="0" on="1"/>
        <pt x="577" y="0" on="1"/>
        <pt x="577" y="282" on="1"/>
        <pt x="179" y="282" on="1"/>
        <pt x="179" y="0" on="1"/>
        <pt x="100" y="0" on="1"/>
        <pt x="100" y="466" on="1"/>
        <pt x="30" y="466" on="1"/>
        <pt x="30" y="532" on="1"/>
        <pt x="100" y="532" on="1"/>
        <pt x="100" y="670" on="1"/>
        <pt x="179" y="670" on="1"/>
        <pt x="179" y="532" on="1"/>
        <pt x="577" y="532" on="1"/>
        <pt x="577" y="670" on="1"/>
        <pt x="656" y="670" on="1"/>
        <pt x="656" y="532" on="1"/>
        <pt x="726" y="532" on="1"/>
      </contour>
      <contour>
        <pt x="577" y="466" on="1"/>
        <pt x="179" y="466" on="1"/>
        <pt x="179" y="353" on="1"/>
        <pt x="577" y="353" on="1"/>
      </contour>
    </TTGlyph>
    <TTGlyph name="I" xMin="88" yMin="0" xMax="167" yMax="670">
      <contour>
        <pt x="167" y="0" on="1"/>
        <pt x="88" y="0" on="1"/>
        <pt x="88" y="670" on="1"/>
        <pt x="167" y="670" on="1"/>
      </contour>
    </TTGlyph>
    <TTGlyph name="I.ss05" xMin="25" yMin="0" xMax="414" yMax="670">
      <contour>
        <pt x="259" y="599" on="1"/>
        <pt x="259" y="72" on="1"/>
        <pt x="414" y="72" on="1"/>
        <pt x="414" y="0" on="1"/>
        <pt x="25" y="0" on="1"/>
        <pt x="25" y="72" on="1"/>
        <pt x="180" y="72" on="1"/>
        <pt x="180" y="599" on="1"/>
        <pt x="25" y="599" on="1"/>
        <pt x="25" y="670" on="1"/>
        <pt x="414" y="670" on="1"/>
        <pt x="414" y="599" on="1"/>
      </contour>
    </TTGlyph>
    <TTGlyph name="IJ" xMin="88" yMin="-13" xMax="770" yMax="670">
      <contour>
        <pt x="88" y="670" on="1"/>
        <pt x="167" y="670" on="1"/>
        <pt x="167" y="0" on="1"/>
        <pt x="88" y="0" on="1"/>
      </contour>
      <contour>
        <pt x="770" y="670" on="1"/>
        <pt x="770" y="244" on="1"/>
        <pt x="770" y="131" on="0"/>
        <pt x="633" y="-13" on="0"/>
        <pt x="522" y="-13" on="1"/>
        <pt x="422" y="-13" on="0"/>
        <pt x="292" y="106" on="0"/>
        <pt x="278" y="203" on="1"/>
        <pt x="353" y="220" on="1"/>
        <pt x="362" y="147" on="0"/>
        <pt x="451" y="59" on="0"/>
        <pt x="522" y="59" on="1"/>
        <pt x="597" y="59" on="0"/>
        <pt x="691" y="163" on="0"/>
        <pt x="691" y="244" on="1"/>
        <pt x="691" y="670" on="1"/>
      </contour>
    </TTGlyph>
    <TTGlyph name="IJ.ss05" xMin="25" yMin="-13" xMax="955" yMax="670">
      <contour>
        <pt x="414" y="670" on="1"/>
        <pt x="414" y="599" on="1"/>
        <pt x="259" y="599" on="1"/>
        <pt x="259" y="72" on="1"/>
        <pt x="414" y="72" on="1"/>
        <pt x="414" y="0" on="1"/>
        <pt x="25" y="0" on="1"/>
        <pt x="25" y="72" on="1"/>
        <pt x="180" y="72" on="1"/>
        <pt x="180" y="599" on="1"/>
        <pt x="25" y="599" on="1"/>
        <pt x="25" y="670" on="1"/>
      </contour>
      <contour>
        <pt x="955" y="670" on="1"/>
        <pt x="955" y="244" on="1"/>
        <pt x="955" y="131" on="0"/>
        <pt x="818" y="-13" on="0"/>
        <pt x="707" y="-13" on="1"/>
        <pt x="607" y="-13" on="0"/>
        <pt x="477" y="106" on="0"/>
        <pt x="463" y="203" on="1"/>
        <pt x="538" y="220" on="1"/>
        <pt x="547" y="147" on="0"/>
        <pt x="636" y="59" on="0"/>
        <pt x="707" y="59" on="1"/>
        <pt x="782" y="59" on="0"/>
        <pt x="876" y="163" on="0"/>
        <pt x="876" y="244" on="1"/>
        <pt x="876" y="599" on="1"/>
        <pt x="625" y="599" on="1"/>
        <pt x="625" y="670" on="1"/>
      </contour>
    </TTGlyph>
    <TTGlyph name="Iacute" xMin="88" yMin="0" xMax="268" yMax="885">
      <contour>
        <pt x="166" y="745" on="1"/>
        <pt x="99" y="745" on="1"/>
        <pt x="179" y="885" on="1"/>
        <pt x="268" y="885" on="1"/>
      </contour>
      <contour>
        <pt x="167" y="0" on="1"/>
        <pt x="88" y="0" on="1"/>
        <pt x="88" y="670" on="1"/>
        <pt x="167" y="670" on="1"/>
      </contour>
    </TTGlyph>
    <TTGlyph name="Iacute.ss05" xMin="25" yMin="0" xMax="414" yMax="885">
      <contour>
        <pt x="258" y="745" on="1"/>
        <pt x="191" y="745" on="1"/>
        <pt x="271" y="885" on="1"/>
        <pt x="360" y="885" on="1"/>
      </contour>
      <contour>
        <pt x="259" y="599" on="1"/>
        <pt x="259" y="72" on="1"/>
        <pt x="414" y="72" on="1"/>
        <pt x="414" y="0" on="1"/>
        <pt x="25" y="0" on="1"/>
        <pt x="25" y="72" on="1"/>
        <pt x="180" y="72" on="1"/>
        <pt x="180" y="599" on="1"/>
        <pt x="25" y="599" on="1"/>
        <pt x="25" y="670" on="1"/>
        <pt x="414" y="670" on="1"/>
        <pt x="414" y="599" on="1"/>
      </contour>
    </TTGlyph>
    <TTGlyph name="Icircumflex" xMin="-26" yMin="0" xMax="281" yMax="879">
      <contour>
        <pt x="281" y="737" on="1"/>
        <pt x="203" y="737" on="1"/>
        <pt x="128" y="830" on="1"/>
        <pt x="52" y="737" on="1"/>
        <pt x="-26" y="737" on="1"/>
        <pt x="91" y="879" on="1"/>
        <pt x="164" y="879" on="1"/>
      </contour>
      <contour>
        <pt x="88" y="670" on="1"/>
        <pt x="167" y="670" on="1"/>
        <pt x="167" y="0" on="1"/>
        <pt x="88" y="0" on="1"/>
      </contour>
    </TTGlyph>
    <TTGlyph name="Icircumflex.ss05" xMin="25" yMin="0" xMax="414" yMax="879">
      <contour>
        <pt x="144" y="737" on="1"/>
        <pt x="67" y="737" on="1"/>
        <pt x="183" y="879" on="1"/>
        <pt x="256" y="879" on="1"/>
        <pt x="373" y="737" on="1"/>
        <pt x="295" y="737" on="1"/>
        <pt x="220" y="830" on="1"/>
      </contour>
      <contour>
        <pt x="259" y="599" on="1"/>
        <pt x="259" y="72" on="1"/>
        <pt x="414" y="72" on="1"/>
        <pt x="414" y="0" on="1"/>
        <pt x="25" y="0" on="1"/>
        <pt x="25" y="72" on="1"/>
        <pt x="180" y="72" on="1"/>
        <pt x="180" y="599" on="1"/>
        <pt x="25" y="599" on="1"/>
        <pt x="25" y="670" on="1"/>
        <pt x="414" y="670" on="1"/>
        <pt x="414" y="599" on="1"/>
      </contour>
    </TTGlyph>
    <TTGlyph name="Idieresis" xMin="-24" yMin="0" xMax="279" yMax="857">
      <contour>
        <pt x="6" y="857" on="0"/>
        <pt x="50" y="857" on="0"/>
        <pt x="81" y="827" on="0"/>
        <pt x="81" y="806" on="1"/>
        <pt x="81" y="784" on="0"/>
        <pt x="51" y="755" on="0"/>
        <pt x="28" y="755" on="1"/>
        <pt x="6" y="755" on="0"/>
        <pt x="-24" y="784" on="0"/>
        <pt x="-24" y="806" on="1"/>
        <pt x="-24" y="827" on="0"/>
      </contour>
      <contour>
        <pt x="204" y="857" on="0"/>
        <pt x="248" y="857" on="0"/>
        <pt x="279" y="827" on="0"/>
        <pt x="279" y="806" on="1"/>
        <pt x="279" y="784" on="0"/>
        <pt x="249" y="755" on="0"/>
        <pt x="226" y="755" on="1"/>
        <pt x="204" y="755" on="0"/>
        <pt x="174" y="784" on="0"/>
        <pt x="174" y="806" on="1"/>
        <pt x="174" y="827" on="0"/>
      </contour>
      <contour>
        <pt x="167" y="0" on="1"/>
        <pt x="88" y="0" on="1"/>
        <pt x="88" y="670" on="1"/>
        <pt x="167" y="670" on="1"/>
      </contour>
    </TTGlyph>
    <TTGlyph name="Idieresis.ss05" xMin="25" yMin="0" xMax="414" yMax="857">
      <contour>
        <pt x="120" y="755" on="1"/>
        <pt x="98" y="755" on="0"/>
        <pt x="68" y="784" on="0"/>
        <pt x="68" y="806" on="1"/>
        <pt x="68" y="827" on="0"/>
        <pt x="98" y="857" on="0"/>
        <pt x="142" y="857" on="0"/>
        <pt x="173" y="827" on="0"/>
        <pt x="173" y="806" on="1"/>
        <pt x="173" y="784" on="0"/>
        <pt x="143" y="755" on="0"/>
      </contour>
      <contour>
        <pt x="318" y="755" on="1"/>
        <pt x="296" y="755" on="0"/>
        <pt x="266" y="784" on="0"/>
        <pt x="266" y="806" on="1"/>
        <pt x="266" y="827" on="0"/>
        <pt x="296" y="857" on="0"/>
        <pt x="340" y="857" on="0"/>
        <pt x="371" y="827" on="0"/>
        <pt x="371" y="806" on="1"/>
        <pt x="371" y="784" on="0"/>
        <pt x="341" y="755" on="0"/>
      </contour>
      <contour>
        <pt x="259" y="599" on="1"/>
        <pt x="259" y="72" on="1"/>
        <pt x="414" y="72" on="1"/>
        <pt x="414" y="0" on="1"/>
        <pt x="25" y="0" on="1"/>
        <pt x="25" y="72" on="1"/>
        <pt x="180" y="72" on="1"/>
        <pt x="180" y="599" on="1"/>
        <pt x="25" y="599" on="1"/>
        <pt x="25" y="670" on="1"/>
        <pt x="414" y="670" on="1"/>
        <pt x="414" y="599" on="1"/>
      </contour>
    </TTGlyph>
    <TTGlyph name="Idotaccent" xMin="75" yMin="0" xMax="178" yMax="862">
      <contour>
        <pt x="126" y="862" on="1"/>
        <pt x="148" y="862" on="0"/>
        <pt x="178" y="833" on="0"/>
        <pt x="178" y="813" on="1"/>
        <pt x="178" y="791" on="0"/>
        <pt x="149" y="763" on="0"/>
        <pt x="126" y="763" on="1"/>
        <pt x="104" y="763" on="0"/>
        <pt x="75" y="791" on="0"/>
        <pt x="75" y="813" on="1"/>
        <pt x="75" y="833" on="0"/>
        <pt x="105" y="862" on="0"/>
      </contour>
      <contour>
        <pt x="167" y="0" on="1"/>
        <pt x="88" y="0" on="1"/>
        <pt x="88" y="670" on="1"/>
        <pt x="167" y="670" on="1"/>
      </contour>
    </TTGlyph>
    <TTGlyph name="Idotaccent.ss05" xMin="25" yMin="0" xMax="414" yMax="862">
      <contour>
        <pt x="219" y="763" on="1"/>
        <pt x="197" y="763" on="0"/>
        <pt x="168" y="791" on="0"/>
        <pt x="168" y="813" on="1"/>
        <pt x="168" y="833" on="0"/>
        <pt x="198" y="862" on="0"/>
        <pt x="219" y="862" on="1"/>
        <pt x="241" y="862" on="0"/>
        <pt x="271" y="833" on="0"/>
        <pt x="271" y="813" on="1"/>
        <pt x="271" y="791" on="0"/>
        <pt x="242" y="763" on="0"/>
      </contour>
      <contour>
        <pt x="259" y="599" on="1"/>
        <pt x="259" y="72" on="1"/>
        <pt x="414" y="72" on="1"/>
        <pt x="414" y="0" on="1"/>
        <pt x="25" y="0" on="1"/>
        <pt x="25" y="72" on="1"/>
        <pt x="180" y="72" on="1"/>
        <pt x="180" y="599" on="1"/>
        <pt x="25" y="599" on="1"/>
        <pt x="25" y="670" on="1"/>
        <pt x="414" y="670" on="1"/>
        <pt x="414" y="599" on="1"/>
      </contour>
    </TTGlyph>
    <TTGlyph name="Igrave" xMin="-11" yMin="0" xMax="167" yMax="885">
      <contour>
        <pt x="79" y="885" on="1"/>
        <pt x="158" y="745" on="1"/>
        <pt x="92" y="745" on="1"/>
        <pt x="-11" y="885" on="1"/>
      </contour>
      <contour>
        <pt x="167" y="0" on="1"/>
        <pt x="88" y="0" on="1"/>
        <pt x="88" y="670" on="1"/>
        <pt x="167" y="670" on="1"/>
      </contour>
    </TTGlyph>
    <TTGlyph name="Igrave.ss05" xMin="25" yMin="0" xMax="414" yMax="885">
      <contour>
        <pt x="185" y="745" on="1"/>
        <pt x="83" y="885" on="1"/>
        <pt x="172" y="885" on="1"/>
        <pt x="251" y="745" on="1"/>
      </contour>
      <contour>
        <pt x="259" y="599" on="1"/>
        <pt x="259" y="72" on="1"/>
        <pt x="414" y="72" on="1"/>
        <pt x="414" y="0" on="1"/>
        <pt x="25" y="0" on="1"/>
        <pt x="25" y="72" on="1"/>
        <pt x="180" y="72" on="1"/>
        <pt x="180" y="599" on="1"/>
        <pt x="25" y="599" on="1"/>
        <pt x="25" y="670" on="1"/>
        <pt x="414" y="670" on="1"/>
        <pt x="414" y="599" on="1"/>
      </contour>
    </TTGlyph>
    <TTGlyph name="Imacron" xMin="-15" yMin="0" xMax="269" yMax="824">
      <contour>
        <pt x="269" y="762" on="1"/>
        <pt x="-15" y="762" on="1"/>
        <pt x="-15" y="824" on="1"/>
        <pt x="269" y="824" on="1"/>
      </contour>
      <contour>
        <pt x="167" y="0" on="1"/>
        <pt x="88" y="0" on="1"/>
        <pt x="88" y="670" on="1"/>
        <pt x="167" y="670" on="1"/>
      </contour>
    </TTGlyph>
    <TTGlyph name="Imacron.ss05" xMin="25" yMin="0" xMax="414" yMax="824">
      <contour>
        <pt x="361" y="762" on="1"/>
        <pt x="77" y="762" on="1"/>
        <pt x="77" y="824" on="1"/>
        <pt x="361" y="824" on="1"/>
      </contour>
      <contour>
        <pt x="259" y="599" on="1"/>
        <pt x="259" y="72" on="1"/>
        <pt x="414" y="72" on="1"/>
        <pt x="414" y="0" on="1"/>
        <pt x="25" y="0" on="1"/>
        <pt x="25" y="72" on="1"/>
        <pt x="180" y="72" on="1"/>
        <pt x="180" y="599" on="1"/>
        <pt x="25" y="599" on="1"/>
        <pt x="25" y="670" on="1"/>
        <pt x="414" y="670" on="1"/>
        <pt x="414" y="599" on="1"/>
      </contour>
    </TTGlyph>
    <TTGlyph name="Iogonek" xMin="39" yMin="-200" xMax="191" yMax="670">
      <contour>
        <pt x="185" y="-135" on="1"/>
        <pt x="191" y="-185" on="1"/>
        <pt x="152" y="-200" on="0"/>
        <pt x="123" y="-200" on="1"/>
        <pt x="88" y="-200" on="0"/>
        <pt x="39" y="-160" on="0"/>
        <pt x="39" y="-117" on="1"/>
        <pt x="39" y="-62" on="0"/>
        <pt x="109" y="0" on="1"/>
        <pt x="88" y="0" on="1"/>
        <pt x="88" y="670" on="1"/>
        <pt x="167" y="670" on="1"/>
        <pt x="167" y="0" on="1"/>
        <pt x="166" y="0" on="1"/>
        <pt x="125" y="-43" on="0"/>
        <pt x="97" y="-83" on="0"/>
        <pt x="97" y="-105" on="1"/>
        <pt x="97" y="-145" on="0"/>
        <pt x="139" y="-145" on="1"/>
        <pt x="152" y="-145" on="0"/>
      </contour>
    </TTGlyph>
    <TTGlyph name="Iogonek.ss05" xMin="25" yMin="-200" xMax="414" yMax="670">
      <contour>
        <pt x="259" y="599" on="1"/>
        <pt x="259" y="72" on="1"/>
        <pt x="414" y="72" on="1"/>
        <pt x="414" y="0" on="1"/>
        <pt x="259" y="0" on="1"/>
        <pt x="218" y="-43" on="0"/>
        <pt x="190" y="-83" on="0"/>
        <pt x="190" y="-105" on="1"/>
        <pt x="190" y="-145" on="0"/>
        <pt x="232" y="-145" on="1"/>
        <pt x="245" y="-145" on="0"/>
        <pt x="278" y="-135" on="1"/>
        <pt x="284" y="-185" on="1"/>
        <pt x="245" y="-200" on="0"/>
        <pt x="216" y="-200" on="1"/>
        <pt x="181" y="-200" on="0"/>
        <pt x="132" y="-160" on="0"/>
        <pt x="132" y="-117" on="1"/>
        <pt x="132" y="-62" on="0"/>
        <pt x="202" y="0" on="1"/>
        <pt x="25" y="0" on="1"/>
        <pt x="25" y="72" on="1"/>
        <pt x="180" y="72" on="1"/>
        <pt x="180" y="599" on="1"/>
        <pt x="25" y="599" on="1"/>
        <pt x="25" y="670" on="1"/>
        <pt x="414" y="670" on="1"/>
        <pt x="414" y="599" on="1"/>
      </contour>
    </TTGlyph>
    <TTGlyph name="J" xMin="24" yMin="-13" xMax="516" yMax="670">
      <contour>
        <pt x="516" y="670" on="1"/>
        <pt x="516" y="244" on="1"/>
        <pt x="516" y="131" on="0"/>
        <pt x="379" y="-13" on="0"/>
        <pt x="268" y="-13" on="1"/>
        <pt x="168" y="-13" on="0"/>
        <pt x="38" y="106" on="0"/>
        <pt x="24" y="203" on="1"/>
        <pt x="99" y="220" on="1"/>
        <pt x="108" y="147" on="0"/>
        <pt x="197" y="59" on="0"/>
        <pt x="268" y="59" on="1"/>
        <pt x="343" y="59" on="0"/>
        <pt x="437" y="163" on="0"/>
        <pt x="437" y="244" on="1"/>
        <pt x="437" y="670" on="1"/>
      </contour>
    </TTGlyph>
    <TTGlyph name="J.ss05" xMin="24" yMin="-13" xMax="516" yMax="670">
      <contour>
        <pt x="516" y="670" on="1"/>
        <pt x="516" y="244" on="1"/>
        <pt x="516" y="131" on="0"/>
        <pt x="379" y="-13" on="0"/>
        <pt x="268" y="-13" on="1"/>
        <pt x="168" y="-13" on="0"/>
        <pt x="38" y="106" on="0"/>
        <pt x="24" y="203" on="1"/>
        <pt x="99" y="220" on="1"/>
        <pt x="108" y="147" on="0"/>
        <pt x="197" y="59" on="0"/>
        <pt x="268" y="59" on="1"/>
        <pt x="343" y="59" on="0"/>
        <pt x="437" y="163" on="0"/>
        <pt x="437" y="244" on="1"/>
        <pt x="437" y="599" on="1"/>
        <pt x="186" y="599" on="1"/>
        <pt x="186" y="670" on="1"/>
      </contour>
    </TTGlyph>
    <TTGlyph name="K" xMin="88" yMin="0" xMax="648" yMax="670">
      <contour>
        <pt x="648" y="0" on="1"/>
        <pt x="541" y="0" on="1"/>
        <pt x="204" y="297" on="1"/>
        <pt x="167" y="297" on="1"/>
        <pt x="167" y="0" on="1"/>
        <pt x="88" y="0" on="1"/>
        <pt x="88" y="670" on="1"/>
        <pt x="167" y="670" on="1"/>
        <pt x="167" y="368" on="1"/>
        <pt x="198" y="368" on="1"/>
        <pt x="527" y="670" on="1"/>
        <pt x="626" y="670" on="1"/>
        <pt x="263" y="335" on="1"/>
      </contour>
    </TTGlyph>
    <TTGlyph name="K.ss03" xMin="88" yMin="0" xMax="689" yMax="670">
      <contour>
        <pt x="689" y="0" on="1"/>
        <pt x="589" y="0" on="1"/>
        <pt x="331" y="326" on="1"/>
        <pt x="167" y="149" on="1"/>
        <pt x="167" y="0" on="1"/>
        <pt x="88" y="0" on="1"/>
        <pt x="88" y="670" on="1"/>
        <pt x="167" y="670" on="1"/>
        <pt x="167" y="246" on="1"/>
        <pt x="557" y="670" on="1"/>
        <pt x="649" y="670" on="1"/>
        <pt x="384" y="383" on="1"/>
      </contour>
    </TTGlyph>
    <TTGlyph name="Kcommaaccent" xMin="88" yMin="-188" xMax="648" yMax="670">
      <contour>
        <pt x="648" y="0" on="1"/>
        <pt x="541" y="0" on="1"/>
        <pt x="204" y="297" on="1"/>
        <pt x="167" y="297" on="1"/>
        <pt x="167" y="0" on="1"/>
        <pt x="88" y="0" on="1"/>
        <pt x="88" y="670" on="1"/>
        <pt x="167" y="670" on="1"/>
        <pt x="167" y="368" on="1"/>
        <pt x="198" y="368" on="1"/>
        <pt x="527" y="670" on="1"/>
        <pt x="626" y="670" on="1"/>
        <pt x="263" y="335" on="1"/>
      </contour>
      <contour>
        <pt x="288" y="-45" on="1"/>
        <pt x="371" y="-45" on="1"/>
        <pt x="300" y="-188" on="1"/>
        <pt x="240" y="-188" on="1"/>
      </contour>
    </TTGlyph>
    <TTGlyph name="Kcommaaccent.ss03" xMin="88" yMin="-188" xMax="689" yMax="670">
      <contour>
        <pt x="689" y="0" on="1"/>
        <pt x="589" y="0" on="1"/>
        <pt x="331" y="326" on="1"/>
        <pt x="167" y="149" on="1"/>
        <pt x="167" y="0" on="1"/>
        <pt x="88" y="0" on="1"/>
        <pt x="88" y="670" on="1"/>
        <pt x="167" y="670" on="1"/>
        <pt x="167" y="246" on="1"/>
        <pt x="557" y="670" on="1"/>
        <pt x="649" y="670" on="1"/>
        <pt x="384" y="383" on="1"/>
      </contour>
      <contour>
        <pt x="323" y="-45" on="1"/>
        <pt x="406" y="-45" on="1"/>
        <pt x="335" y="-188" on="1"/>
        <pt x="275" y="-188" on="1"/>
      </contour>
    </TTGlyph>
    <TTGlyph name="L" xMin="88" yMin="0" xMax="551" yMax="670">
      <contour>
        <pt x="551" y="72" on="1"/>
        <pt x="551" y="0" on="1"/>
        <pt x="88" y="0" on="1"/>
        <pt x="88" y="670" on="1"/>
        <pt x="167" y="670" on="1"/>
        <pt x="167" y="72" on="1"/>
      </contour>
    </TTGlyph>
    <TTGlyph name="Lacute" xMin="88" yMin="0" xMax="551" yMax="885">
      <contour>
        <pt x="165" y="745" on="1"/>
        <pt x="98" y="745" on="1"/>
        <pt x="178" y="885" on="1"/>
        <pt x="267" y="885" on="1"/>
      </contour>
      <contour>
        <pt x="551" y="72" on="1"/>
        <pt x="551" y="0" on="1"/>
        <pt x="88" y="0" on="1"/>
        <pt x="88" y="670" on="1"/>
        <pt x="167" y="670" on="1"/>
        <pt x="167" y="72" on="1"/>
      </contour>
    </TTGlyph>
    <TTGlyph name="Lcaron" xMin="88" yMin="0" xMax="551" yMax="670">
      <contour>
        <pt x="551" y="72" on="1"/>
        <pt x="551" y="0" on="1"/>
        <pt x="88" y="0" on="1"/>
        <pt x="88" y="670" on="1"/>
        <pt x="167" y="670" on="1"/>
        <pt x="167" y="72" on="1"/>
      </contour>
      <contour>
        <pt x="369" y="498" on="1"/>
        <pt x="308" y="498" on="1"/>
        <pt x="308" y="670" on="1"/>
        <pt x="385" y="670" on="1"/>
      </contour>
    </TTGlyph>
    <TTGlyph name="Lcommaaccent" xMin="88" yMin="-188" xMax="551" yMax="670">
      <contour>
        <pt x="551" y="72" on="1"/>
        <pt x="551" y="0" on="1"/>
        <pt x="88" y="0" on="1"/>
        <pt x="88" y="670" on="1"/>
        <pt x="167" y="670" on="1"/>
        <pt x="167" y="72" on="1"/>
      </contour>
      <contour>
        <pt x="281" y="-45" on="1"/>
        <pt x="364" y="-45" on="1"/>
        <pt x="293" y="-188" on="1"/>
        <pt x="233" y="-188" on="1"/>
      </contour>
    </TTGlyph>
    <TTGlyph name="Ldot" xMin="88" yMin="0" xMax="551" yMax="670">
      <contour>
        <pt x="551" y="72" on="1"/>
        <pt x="551" y="0" on="1"/>
        <pt x="88" y="0" on="1"/>
        <pt x="88" y="670" on="1"/>
        <pt x="167" y="670" on="1"/>
        <pt x="167" y="72" on="1"/>
      </contour>
      <contour>
        <pt x="388" y="294" on="1"/>
        <pt x="366" y="294" on="0"/>
        <pt x="337" y="322" on="0"/>
        <pt x="337" y="344" on="1"/>
        <pt x="337" y="364" on="0"/>
        <pt x="367" y="393" on="0"/>
        <pt x="388" y="393" on="1"/>
        <pt x="410" y="393" on="0"/>
        <pt x="440" y="364" on="0"/>
        <pt x="440" y="344" on="1"/>
        <pt x="440" y="322" on="0"/>
        <pt x="411" y="294" on="0"/>
      </contour>
    </TTGlyph>
    <TTGlyph name="Lslash" xMin="30" yMin="0" xMax="566" yMax="670">
      <contour>
        <pt x="566" y="72" on="1"/>
        <pt x="566" y="0" on="1"/>
        <pt x="103" y="0" on="1"/>
        <pt x="103" y="249" on="1"/>
        <pt x="30" y="214" on="1"/>
        <pt x="30" y="288" on="1"/>
        <pt x="103" y="323" on="1"/>
        <pt x="103" y="670" on="1"/>
        <pt x="182" y="670" on="1"/>
        <pt x="182" y="362" on="1"/>
        <pt x="340" y="438" on="1"/>
        <pt x="340" y="364" on="1"/>
        <pt x="182" y="288" on="1"/>
        <pt x="182" y="72" on="1"/>
      </contour>
    </TTGlyph>
    <TTGlyph name="M" xMin="88" yMin="0" xMax="810" yMax="670">
      <contour>
        <pt x="810" y="670" on="1"/>
        <pt x="810" y="0" on="1"/>
        <pt x="734" y="0" on="1"/>
        <pt x="734" y="502" on="1"/>
        <pt x="470" y="0" on="1"/>
        <pt x="429" y="0" on="1"/>
        <pt x="164" y="502" on="1"/>
        <pt x="164" y="0" on="1"/>
        <pt x="88" y="0" on="1"/>
        <pt x="88" y="670" on="1"/>
        <pt x="157" y="670" on="1"/>
        <pt x="449" y="118" on="1"/>
        <pt x="741" y="670" on="1"/>
      </contour>
    </TTGlyph>
    <TTGlyph name="N" xMin="88" yMin="0" xMax="673" yMax="670">
      <contour>
        <pt x="673" y="670" on="1"/>
        <pt x="673" y="0" on="1"/>
        <pt x="605" y="0" on="1"/>
        <pt x="167" y="532" on="1"/>
        <pt x="167" y="0" on="1"/>
        <pt x="88" y="0" on="1"/>
        <pt x="88" y="670" on="1"/>
        <pt x="156" y="670" on="1"/>
        <pt x="594" y="132" on="1"/>
        <pt x="594" y="670" on="1"/>
      </contour>
    </TTGlyph>
    <TTGlyph name="Nacute" xMin="88" yMin="0" xMax="673" yMax="885">
      <contour>
        <pt x="427" y="745" on="1"/>
        <pt x="360" y="745" on="1"/>
        <pt x="440" y="885" on="1"/>
        <pt x="529" y="885" on="1"/>
      </contour>
      <contour>
        <pt x="673" y="670" on="1"/>
        <pt x="673" y="0" on="1"/>
        <pt x="605" y="0" on="1"/>
        <pt x="167" y="532" on="1"/>
        <pt x="167" y="0" on="1"/>
        <pt x="88" y="0" on="1"/>
        <pt x="88" y="670" on="1"/>
        <pt x="156" y="670" on="1"/>
        <pt x="594" y="132" on="1"/>
        <pt x="594" y="670" on="1"/>
      </contour>
    </TTGlyph>
    <TTGlyph name="Ncaron" xMin="88" yMin="0" xMax="673" yMax="880">
      <contour>
        <pt x="352" y="738" on="1"/>
        <pt x="236" y="880" on="1"/>
        <pt x="313" y="880" on="1"/>
        <pt x="389" y="788" on="1"/>
        <pt x="464" y="880" on="1"/>
        <pt x="542" y="880" on="1"/>
        <pt x="425" y="738" on="1"/>
      </contour>
      <contour>
        <pt x="673" y="670" on="1"/>
        <pt x="673" y="0" on="1"/>
        <pt x="605" y="0" on="1"/>
        <pt x="167" y="532" on="1"/>
        <pt x="167" y="0" on="1"/>
        <pt x="88" y="0" on="1"/>
        <pt x="88" y="670" on="1"/>
        <pt x="156" y="670" on="1"/>
        <pt x="594" y="132" on="1"/>
        <pt x="594" y="670" on="1"/>
      </contour>
    </TTGlyph>
    <TTGlyph name="Ncommaaccent" xMin="88" yMin="-188" xMax="673" yMax="670">
      <contour>
        <pt x="673" y="670" on="1"/>
        <pt x="673" y="0" on="1"/>
        <pt x="605" y="0" on="1"/>
        <pt x="167" y="532" on="1"/>
        <pt x="167" y="0" on="1"/>
        <pt x="88" y="0" on="1"/>
        <pt x="88" y="670" on="1"/>
        <pt x="156" y="670" on="1"/>
        <pt x="594" y="132" on="1"/>
        <pt x="594" y="670" on="1"/>
      </contour>
      <contour>
        <pt x="358" y="-45" on="1"/>
        <pt x="441" y="-45" on="1"/>
        <pt x="370" y="-188" on="1"/>
        <pt x="310" y="-188" on="1"/>
      </contour>
    </TTGlyph>
    <TTGlyph name="Ntilde" xMin="88" yMin="0" xMax="673" yMax="872">
      <contour>
        <pt x="332" y="815" on="1"/>
        <pt x="315" y="815" on="0"/>
        <pt x="295" y="790" on="0"/>
        <pt x="295" y="770" on="1"/>
        <pt x="241" y="770" on="1"/>
        <pt x="241" y="822" on="0"/>
        <pt x="292" y="872" on="0"/>
        <pt x="328" y="872" on="1"/>
        <pt x="360" y="872" on="0"/>
        <pt x="429" y="824" on="0"/>
        <pt x="450" y="824" on="1"/>
        <pt x="467" y="824" on="0"/>
        <pt x="487" y="850" on="0"/>
        <pt x="487" y="871" on="1"/>
        <pt x="541" y="871" on="1"/>
        <pt x="541" y="818" on="0"/>
        <pt x="490" y="767" on="0"/>
        <pt x="454" y="767" on="1"/>
        <pt x="422" y="767" on="0"/>
        <pt x="353" y="815" on="0"/>
      </contour>
      <contour>
        <pt x="673" y="670" on="1"/>
        <pt x="673" y="0" on="1"/>
        <pt x="605" y="0" on="1"/>
        <pt x="167" y="532" on="1"/>
        <pt x="167" y="0" on="1"/>
        <pt x="88" y="0" on="1"/>
        <pt x="88" y="670" on="1"/>
        <pt x="156" y="670" on="1"/>
        <pt x="594" y="132" on="1"/>
        <pt x="594" y="670" on="1"/>
      </contour>
    </TTGlyph>
    <TTGlyph name="O" xMin="55" yMin="-13" xMax="748" yMax="683">
      <contour>
        <pt x="402" y="683" on="1"/>
        <pt x="547" y="683" on="0"/>
        <pt x="748" y="481" on="0"/>
        <pt x="748" y="189" on="0"/>
        <pt x="547" y="-13" on="0"/>
        <pt x="402" y="-13" on="1"/>
        <pt x="256" y="-13" on="0"/>
        <pt x="55" y="189" on="0"/>
        <pt x="55" y="481" on="0"/>
        <pt x="256" y="683" on="0"/>
      </contour>
      <contour>
        <pt x="402" y="62" on="1"/>
        <pt x="514" y="62" on="0"/>
        <pt x="668" y="219" on="0"/>
        <pt x="668" y="335" on="1"/>
        <pt x="668" y="450" on="0"/>
        <pt x="514" y="609" on="0"/>
        <pt x="402" y="609" on="1"/>
        <pt x="289" y="609" on="0"/>
        <pt x="135" y="450" on="0"/>
        <pt x="135" y="335" on="1"/>
        <pt x="135" y="219" on="0"/>
        <pt x="289" y="62" on="0"/>
      </contour>
    </TTGlyph>
    <TTGlyph name="OE" xMin="55" yMin="0" xMax="986" yMax="670">
      <contour>
        <pt x="986" y="72" on="1"/>
        <pt x="986" y="0" on="1"/>
        <pt x="450" y="0" on="1"/>
        <pt x="269" y="0" on="0"/>
        <pt x="55" y="187" on="0"/>
        <pt x="55" y="483" on="0"/>
        <pt x="269" y="670" on="0"/>
        <pt x="450" y="670" on="1"/>
        <pt x="985" y="670" on="1"/>
        <pt x="985" y="599" on="1"/>
        <pt x="576" y="599" on="1"/>
        <pt x="576" y="372" on="1"/>
        <pt x="956" y="372" on="1"/>
        <pt x="956" y="301" on="1"/>
        <pt x="576" y="301" on="1"/>
        <pt x="576" y="72" on="1"/>
      </contour>
      <contour>
        <pt x="497" y="72" on="1"/>
        <pt x="497" y="599" on="1"/>
        <pt x="450" y="599" on="1"/>
        <pt x="302" y="599" on="0"/>
        <pt x="135" y="454" on="0"/>
        <pt x="135" y="216" on="0"/>
        <pt x="302" y="72" on="0"/>
        <pt x="450" y="72" on="1"/>
      </contour>
    </TTGlyph>
    <TTGlyph name="Oacute" xMin="55" yMin="-13" xMax="748" yMax="885">
      <contour>
        <pt x="441" y="745" on="1"/>
        <pt x="374" y="745" on="1"/>
        <pt x="454" y="885" on="1"/>
        <pt x="543" y="885" on="1"/>
      </contour>
      <contour>
        <pt x="402" y="683" on="1"/>
        <pt x="547" y="683" on="0"/>
        <pt x="748" y="481" on="0"/>
        <pt x="748" y="189" on="0"/>
        <pt x="547" y="-13" on="0"/>
        <pt x="402" y="-13" on="1"/>
        <pt x="256" y="-13" on="0"/>
        <pt x="55" y="189" on="0"/>
        <pt x="55" y="481" on="0"/>
        <pt x="256" y="683" on="0"/>
      </contour>
      <contour>
        <pt x="402" y="62" on="1"/>
        <pt x="514" y="62" on="0"/>
        <pt x="668" y="219" on="0"/>
        <pt x="668" y="335" on="1"/>
        <pt x="668" y="450" on="0"/>
        <pt x="514" y="609" on="0"/>
        <pt x="402" y="609" on="1"/>
        <pt x="289" y="609" on="0"/>
        <pt x="135" y="450" on="0"/>
        <pt x="135" y="335" on="1"/>
        <pt x="135" y="219" on="0"/>
        <pt x="289" y="62" on="0"/>
      </contour>
    </TTGlyph>
    <TTGlyph name="Ocircumflex" xMin="55" yMin="-13" xMax="748" yMax="879">
      <contour>
        <pt x="327" y="737" on="1"/>
        <pt x="250" y="737" on="1"/>
        <pt x="366" y="879" on="1"/>
        <pt x="439" y="879" on="1"/>
        <pt x="556" y="737" on="1"/>
        <pt x="478" y="737" on="1"/>
        <pt x="403" y="830" on="1"/>
      </contour>
      <contour>
        <pt x="402" y="683" on="1"/>
        <pt x="547" y="683" on="0"/>
        <pt x="748" y="481" on="0"/>
        <pt x="748" y="189" on="0"/>
        <pt x="547" y="-13" on="0"/>
        <pt x="402" y="-13" on="1"/>
        <pt x="256" y="-13" on="0"/>
        <pt x="55" y="189" on="0"/>
        <pt x="55" y="481" on="0"/>
        <pt x="256" y="683" on="0"/>
      </contour>
      <contour>
        <pt x="402" y="62" on="1"/>
        <pt x="514" y="62" on="0"/>
        <pt x="668" y="219" on="0"/>
        <pt x="668" y="335" on="1"/>
        <pt x="668" y="450" on="0"/>
        <pt x="514" y="609" on="0"/>
        <pt x="402" y="609" on="1"/>
        <pt x="289" y="609" on="0"/>
        <pt x="135" y="450" on="0"/>
        <pt x="135" y="335" on="1"/>
        <pt x="135" y="219" on="0"/>
        <pt x="289" y="62" on="0"/>
      </contour>
    </TTGlyph>
    <TTGlyph name="Odieresis" xMin="55" yMin="-13" xMax="748" yMax="857">
      <contour>
        <pt x="303" y="755" on="1"/>
        <pt x="281" y="755" on="0"/>
        <pt x="251" y="784" on="0"/>
        <pt x="251" y="806" on="1"/>
        <pt x="251" y="827" on="0"/>
        <pt x="281" y="857" on="0"/>
        <pt x="325" y="857" on="0"/>
        <pt x="356" y="827" on="0"/>
        <pt x="356" y="806" on="1"/>
        <pt x="356" y="784" on="0"/>
        <pt x="326" y="755" on="0"/>
      </contour>
      <contour>
        <pt x="501" y="755" on="1"/>
        <pt x="479" y="755" on="0"/>
        <pt x="449" y="784" on="0"/>
        <pt x="449" y="806" on="1"/>
        <pt x="449" y="827" on="0"/>
        <pt x="479" y="857" on="0"/>
        <pt x="523" y="857" on="0"/>
        <pt x="554" y="827" on="0"/>
        <pt x="554" y="806" on="1"/>
        <pt x="554" y="784" on="0"/>
        <pt x="524" y="755" on="0"/>
      </contour>
      <contour>
        <pt x="402" y="683" on="1"/>
        <pt x="547" y="683" on="0"/>
        <pt x="748" y="481" on="0"/>
        <pt x="748" y="189" on="0"/>
        <pt x="547" y="-13" on="0"/>
        <pt x="402" y="-13" on="1"/>
        <pt x="256" y="-13" on="0"/>
        <pt x="55" y="189" on="0"/>
        <pt x="55" y="481" on="0"/>
        <pt x="256" y="683" on="0"/>
      </contour>
      <contour>
        <pt x="402" y="62" on="1"/>
        <pt x="514" y="62" on="0"/>
        <pt x="668" y="219" on="0"/>
        <pt x="668" y="335" on="1"/>
        <pt x="668" y="450" on="0"/>
        <pt x="514" y="609" on="0"/>
        <pt x="402" y="609" on="1"/>
        <pt x="289" y="609" on="0"/>
        <pt x="135" y="450" on="0"/>
        <pt x="135" y="335" on="1"/>
        <pt x="135" y="219" on="0"/>
        <pt x="289" y="62" on="0"/>
      </contour>
    </TTGlyph>
    <TTGlyph name="Ograve" xMin="55" yMin="-13" xMax="748" yMax="885">
      <contour>
        <pt x="367" y="745" on="1"/>
        <pt x="265" y="885" on="1"/>
        <pt x="354" y="885" on="1"/>
        <pt x="433" y="745" on="1"/>
      </contour>
      <contour>
        <pt x="402" y="683" on="1"/>
        <pt x="547" y="683" on="0"/>
        <pt x="748" y="481" on="0"/>
        <pt x="748" y="189" on="0"/>
        <pt x="547" y="-13" on="0"/>
        <pt x="402" y="-13" on="1"/>
        <pt x="256" y="-13" on="0"/>
        <pt x="55" y="189" on="0"/>
        <pt x="55" y="481" on="0"/>
        <pt x="256" y="683" on="0"/>
      </contour>
      <contour>
        <pt x="402" y="62" on="1"/>
        <pt x="514" y="62" on="0"/>
        <pt x="668" y="219" on="0"/>
        <pt x="668" y="335" on="1"/>
        <pt x="668" y="450" on="0"/>
        <pt x="514" y="609" on="0"/>
        <pt x="402" y="609" on="1"/>
        <pt x="289" y="609" on="0"/>
        <pt x="135" y="450" on="0"/>
        <pt x="135" y="335" on="1"/>
        <pt x="135" y="219" on="0"/>
        <pt x="289" y="62" on="0"/>
      </contour>
    </TTGlyph>
    <TTGlyph name="Ohungarumlaut" xMin="55" yMin="-13" xMax="748" yMax="885">
      <contour>
        <pt x="357" y="745" on="1"/>
        <pt x="287" y="745" on="1"/>
        <pt x="366" y="885" on="1"/>
        <pt x="461" y="885" on="1"/>
      </contour>
      <contour>
        <pt x="441" y="745" on="1"/>
        <pt x="520" y="885" on="1"/>
        <pt x="615" y="885" on="1"/>
        <pt x="511" y="745" on="1"/>
      </contour>
      <contour>
        <pt x="402" y="683" on="1"/>
        <pt x="547" y="683" on="0"/>
        <pt x="748" y="481" on="0"/>
        <pt x="748" y="189" on="0"/>
        <pt x="547" y="-13" on="0"/>
        <pt x="402" y="-13" on="1"/>
        <pt x="256" y="-13" on="0"/>
        <pt x="55" y="189" on="0"/>
        <pt x="55" y="481" on="0"/>
        <pt x="256" y="683" on="0"/>
      </contour>
      <contour>
        <pt x="402" y="62" on="1"/>
        <pt x="514" y="62" on="0"/>
        <pt x="668" y="219" on="0"/>
        <pt x="668" y="335" on="1"/>
        <pt x="668" y="450" on="0"/>
        <pt x="514" y="609" on="0"/>
        <pt x="402" y="609" on="1"/>
        <pt x="289" y="609" on="0"/>
        <pt x="135" y="450" on="0"/>
        <pt x="135" y="335" on="1"/>
        <pt x="135" y="219" on="0"/>
        <pt x="289" y="62" on="0"/>
      </contour>
    </TTGlyph>
    <TTGlyph name="Omacron" xMin="55" yMin="-13" xMax="748" yMax="824">
      <contour>
        <pt x="544" y="762" on="1"/>
        <pt x="260" y="762" on="1"/>
        <pt x="260" y="824" on="1"/>
        <pt x="544" y="824" on="1"/>
      </contour>
      <contour>
        <pt x="402" y="683" on="1"/>
        <pt x="547" y="683" on="0"/>
        <pt x="748" y="481" on="0"/>
        <pt x="748" y="189" on="0"/>
        <pt x="547" y="-13" on="0"/>
        <pt x="402" y="-13" on="1"/>
        <pt x="256" y="-13" on="0"/>
        <pt x="55" y="189" on="0"/>
        <pt x="55" y="481" on="0"/>
        <pt x="256" y="683" on="0"/>
      </contour>
      <contour>
        <pt x="402" y="62" on="1"/>
        <pt x="514" y="62" on="0"/>
        <pt x="668" y="219" on="0"/>
        <pt x="668" y="335" on="1"/>
        <pt x="668" y="450" on="0"/>
        <pt x="514" y="609" on="0"/>
        <pt x="402" y="609" on="1"/>
        <pt x="289" y="609" on="0"/>
        <pt x="135" y="450" on="0"/>
        <pt x="135" y="335" on="1"/>
        <pt x="135" y="219" on="0"/>
        <pt x="289" y="62" on="0"/>
      </contour>
    </TTGlyph>
    <TTGlyph name="Oslash" xMin="55" yMin="-13" xMax="748" yMax="683">
      <contour>
        <pt x="733" y="615" on="1"/>
        <pt x="672" y="554" on="1"/>
        <pt x="748" y="461" on="0"/>
        <pt x="748" y="335" on="1"/>
        <pt x="748" y="189" on="0"/>
        <pt x="547" y="-13" on="0"/>
        <pt x="402" y="-13" on="1"/>
        <pt x="277" y="-13" on="0"/>
        <pt x="182" y="64" on="1"/>
        <pt x="117" y="-1" on="1"/>
        <pt x="71" y="45" on="1"/>
        <pt x="136" y="110" on="1"/>
        <pt x="55" y="205" on="0"/>
        <pt x="55" y="335" on="1"/>
        <pt x="55" y="481" on="0"/>
        <pt x="256" y="683" on="0"/>
        <pt x="402" y="683" on="1"/>
        <pt x="531" y="683" on="0"/>
        <pt x="627" y="601" on="1"/>
        <pt x="687" y="661" on="1"/>
      </contour>
      <contour>
        <pt x="135" y="335" on="1"/>
        <pt x="135" y="239" on="0"/>
        <pt x="191" y="165" on="1"/>
        <pt x="573" y="547" on="1"/>
        <pt x="500" y="609" on="0"/>
        <pt x="402" y="609" on="1"/>
        <pt x="289" y="609" on="0"/>
        <pt x="135" y="450" on="0"/>
      </contour>
      <contour>
        <pt x="402" y="62" on="1"/>
        <pt x="514" y="62" on="0"/>
        <pt x="668" y="219" on="0"/>
        <pt x="668" y="335" on="1"/>
        <pt x="668" y="428" on="0"/>
        <pt x="617" y="499" on="1"/>
        <pt x="237" y="119" on="1"/>
        <pt x="308" y="62" on="0"/>
      </contour>
    </TTGlyph>
    <TTGlyph name="Otilde" xMin="55" yMin="-13" xMax="748" yMax="872">
      <contour>
        <pt x="345" y="815" on="1"/>
        <pt x="328" y="815" on="0"/>
        <pt x="308" y="790" on="0"/>
        <pt x="308" y="770" on="1"/>
        <pt x="254" y="770" on="1"/>
        <pt x="254" y="822" on="0"/>
        <pt x="305" y="872" on="0"/>
        <pt x="341" y="872" on="1"/>
        <pt x="373" y="872" on="0"/>
        <pt x="442" y="824" on="0"/>
        <pt x="463" y="824" on="1"/>
        <pt x="480" y="824" on="0"/>
        <pt x="500" y="850" on="0"/>
        <pt x="500" y="871" on="1"/>
        <pt x="554" y="871" on="1"/>
        <pt x="554" y="818" on="0"/>
        <pt x="503" y="767" on="0"/>
        <pt x="467" y="767" on="1"/>
        <pt x="435" y="767" on="0"/>
        <pt x="366" y="815" on="0"/>
      </contour>
      <contour>
        <pt x="402" y="683" on="1"/>
        <pt x="547" y="683" on="0"/>
        <pt x="748" y="481" on="0"/>
        <pt x="748" y="189" on="0"/>
        <pt x="547" y="-13" on="0"/>
        <pt x="402" y="-13" on="1"/>
        <pt x="256" y="-13" on="0"/>
        <pt x="55" y="189" on="0"/>
        <pt x="55" y="481" on="0"/>
        <pt x="256" y="683" on="0"/>
      </contour>
      <contour>
        <pt x="402" y="62" on="1"/>
        <pt x="514" y="62" on="0"/>
        <pt x="668" y="219" on="0"/>
        <pt x="668" y="335" on="1"/>
        <pt x="668" y="450" on="0"/>
        <pt x="514" y="609" on="0"/>
        <pt x="402" y="609" on="1"/>
        <pt x="289" y="609" on="0"/>
        <pt x="135" y="450" on="0"/>
        <pt x="135" y="335" on="1"/>
        <pt x="135" y="219" on="0"/>
        <pt x="289" y="62" on="0"/>
      </contour>
    </TTGlyph>
    <TTGlyph name="P" xMin="88" yMin="0" xMax="613" yMax="670">
      <contour>
        <pt x="88" y="670" on="1"/>
        <pt x="380" y="670" on="1"/>
        <pt x="486" y="670" on="0"/>
        <pt x="613" y="555" on="0"/>
        <pt x="613" y="369" on="0"/>
        <pt x="486" y="254" on="0"/>
        <pt x="380" y="254" on="1"/>
        <pt x="167" y="254" on="1"/>
        <pt x="167" y="0" on="1"/>
        <pt x="88" y="0" on="1"/>
      </contour>
      <contour>
        <pt x="167" y="325" on="1"/>
        <pt x="380" y="325" on="1"/>
        <pt x="451" y="325" on="0"/>
        <pt x="535" y="401" on="0"/>
        <pt x="535" y="523" on="0"/>
        <pt x="451" y="599" on="0"/>
        <pt x="380" y="599" on="1"/>
        <pt x="167" y="599" on="1"/>
      </contour>
    </TTGlyph>
    <TTGlyph name="Q" xMin="55" yMin="-161" xMax="753" yMax="683">
      <contour>
        <pt x="692" y="-161" on="1"/>
        <pt x="542" y="16" on="1"/>
        <pt x="476" y="-13" on="0"/>
        <pt x="402" y="-13" on="1"/>
        <pt x="256" y="-13" on="0"/>
        <pt x="55" y="189" on="0"/>
        <pt x="55" y="481" on="0"/>
        <pt x="256" y="683" on="0"/>
        <pt x="402" y="683" on="1"/>
        <pt x="547" y="683" on="0"/>
        <pt x="748" y="481" on="0"/>
        <pt x="748" y="335" on="1"/>
        <pt x="748" y="251" on="0"/>
        <pt x="677" y="107" on="0"/>
        <pt x="615" y="59" on="1"/>
        <pt x="753" y="-106" on="1"/>
      </contour>
      <contour>
        <pt x="135" y="335" on="1"/>
        <pt x="135" y="219" on="0"/>
        <pt x="289" y="62" on="0"/>
        <pt x="402" y="62" on="1"/>
        <pt x="514" y="62" on="0"/>
        <pt x="668" y="219" on="0"/>
        <pt x="668" y="335" on="1"/>
        <pt x="668" y="450" on="0"/>
        <pt x="514" y="609" on="0"/>
        <pt x="402" y="609" on="1"/>
        <pt x="289" y="609" on="0"/>
        <pt x="135" y="450" on="0"/>
      </contour>
    </TTGlyph>
    <TTGlyph name="Q.ss04" xMin="55" yMin="-170" xMax="783" yMax="683">
      <contour>
        <pt x="674" y="-170" on="1"/>
        <pt x="528" y="10" on="1"/>
        <pt x="468" y="-13" on="0"/>
        <pt x="402" y="-13" on="1"/>
        <pt x="256" y="-13" on="0"/>
        <pt x="55" y="189" on="0"/>
        <pt x="55" y="481" on="0"/>
        <pt x="256" y="683" on="0"/>
        <pt x="402" y="683" on="1"/>
        <pt x="547" y="683" on="0"/>
        <pt x="748" y="481" on="0"/>
        <pt x="748" y="335" on="1"/>
        <pt x="748" y="247" on="0"/>
        <pt x="670" y="97" on="0"/>
        <pt x="603" y="50" on="1"/>
        <pt x="783" y="-170" on="1"/>
      </contour>
      <contour>
        <pt x="135" y="335" on="1"/>
        <pt x="135" y="219" on="0"/>
        <pt x="289" y="62" on="0"/>
        <pt x="402" y="62" on="1"/>
        <pt x="514" y="62" on="0"/>
        <pt x="668" y="219" on="0"/>
        <pt x="668" y="335" on="1"/>
        <pt x="668" y="450" on="0"/>
        <pt x="514" y="609" on="0"/>
        <pt x="402" y="609" on="1"/>
        <pt x="289" y="609" on="0"/>
        <pt x="135" y="450" on="0"/>
      </contour>
    </TTGlyph>
    <TTGlyph name="R" xMin="88" yMin="0" xMax="645" yMax="670">
      <contour>
        <pt x="645" y="0" on="1"/>
        <pt x="546" y="0" on="1"/>
        <pt x="290" y="287" on="1"/>
        <pt x="167" y="287" on="1"/>
        <pt x="167" y="0" on="1"/>
        <pt x="88" y="0" on="1"/>
        <pt x="88" y="670" on="1"/>
        <pt x="398" y="670" on="1"/>
        <pt x="496" y="670" on="0"/>
        <pt x="617" y="565" on="0"/>
        <pt x="617" y="393" on="0"/>
        <pt x="496" y="287" on="0"/>
        <pt x="398" y="287" on="1"/>
        <pt x="386" y="287" on="1"/>
      </contour>
      <contour>
        <pt x="167" y="359" on="1"/>
        <pt x="398" y="359" on="1"/>
        <pt x="461" y="359" on="0"/>
        <pt x="538" y="425" on="0"/>
        <pt x="538" y="533" on="0"/>
        <pt x="461" y="599" on="0"/>
        <pt x="398" y="599" on="1"/>
        <pt x="167" y="599" on="1"/>
      </contour>
    </TTGlyph>
    <TTGlyph name="Racute" xMin="88" yMin="0" xMax="645" yMax="885">
      <contour>
        <pt x="366" y="745" on="1"/>
        <pt x="299" y="745" on="1"/>
        <pt x="379" y="885" on="1"/>
        <pt x="468" y="885" on="1"/>
      </contour>
      <contour>
        <pt x="645" y="0" on="1"/>
        <pt x="546" y="0" on="1"/>
        <pt x="290" y="287" on="1"/>
        <pt x="167" y="287" on="1"/>
        <pt x="167" y="0" on="1"/>
        <pt x="88" y="0" on="1"/>
        <pt x="88" y="670" on="1"/>
        <pt x="398" y="670" on="1"/>
        <pt x="496" y="670" on="0"/>
        <pt x="617" y="565" on="0"/>
        <pt x="617" y="393" on="0"/>
        <pt x="496" y="287" on="0"/>
        <pt x="398" y="287" on="1"/>
        <pt x="386" y="287" on="1"/>
      </contour>
      <contour>
        <pt x="167" y="359" on="1"/>
        <pt x="398" y="359" on="1"/>
        <pt x="461" y="359" on="0"/>
        <pt x="538" y="425" on="0"/>
        <pt x="538" y="533" on="0"/>
        <pt x="461" y="599" on="0"/>
        <pt x="398" y="599" on="1"/>
        <pt x="167" y="599" on="1"/>
      </contour>
    </TTGlyph>
    <TTGlyph name="Rcaron" xMin="88" yMin="0" xMax="645" yMax="880">
      <contour>
        <pt x="291" y="738" on="1"/>
        <pt x="175" y="880" on="1"/>
        <pt x="252" y="880" on="1"/>
        <pt x="328" y="788" on="1"/>
        <pt x="403" y="880" on="1"/>
        <pt x="481" y="880" on="1"/>
        <pt x="364" y="738" on="1"/>
      </contour>
      <contour>
        <pt x="645" y="0" on="1"/>
        <pt x="546" y="0" on="1"/>
        <pt x="290" y="287" on="1"/>
        <pt x="167" y="287" on="1"/>
        <pt x="167" y="0" on="1"/>
        <pt x="88" y="0" on="1"/>
        <pt x="88" y="670" on="1"/>
        <pt x="398" y="670" on="1"/>
        <pt x="496" y="670" on="0"/>
        <pt x="617" y="565" on="0"/>
        <pt x="617" y="393" on="0"/>
        <pt x="496" y="287" on="0"/>
        <pt x="398" y="287" on="1"/>
        <pt x="386" y="287" on="1"/>
      </contour>
      <contour>
        <pt x="167" y="359" on="1"/>
        <pt x="398" y="359" on="1"/>
        <pt x="461" y="359" on="0"/>
        <pt x="538" y="425" on="0"/>
        <pt x="538" y="533" on="0"/>
        <pt x="461" y="599" on="0"/>
        <pt x="398" y="599" on="1"/>
        <pt x="167" y="599" on="1"/>
      </contour>
    </TTGlyph>
    <TTGlyph name="Rcommaaccent" xMin="88" yMin="-188" xMax="645" yMax="670">
      <contour>
        <pt x="645" y="0" on="1"/>
        <pt x="546" y="0" on="1"/>
        <pt x="290" y="287" on="1"/>
        <pt x="167" y="287" on="1"/>
        <pt x="167" y="0" on="1"/>
        <pt x="88" y="0" on="1"/>
        <pt x="88" y="670" on="1"/>
        <pt x="398" y="670" on="1"/>
        <pt x="496" y="670" on="0"/>
        <pt x="617" y="565" on="0"/>
        <pt x="617" y="393" on="0"/>
        <pt x="496" y="287" on="0"/>
        <pt x="398" y="287" on="1"/>
        <pt x="386" y="287" on="1"/>
      </contour>
      <contour>
        <pt x="167" y="359" on="1"/>
        <pt x="398" y="359" on="1"/>
        <pt x="461" y="359" on="0"/>
        <pt x="538" y="425" on="0"/>
        <pt x="538" y="533" on="0"/>
        <pt x="461" y="599" on="0"/>
        <pt x="398" y="599" on="1"/>
        <pt x="167" y="599" on="1"/>
      </contour>
      <contour>
        <pt x="297" y="-45" on="1"/>
        <pt x="380" y="-45" on="1"/>
        <pt x="309" y="-188" on="1"/>
        <pt x="249" y="-188" on="1"/>
      </contour>
    </TTGlyph>
    <TTGlyph name="S" xMin="52" yMin="-13" xMax="573" yMax="683">
      <contour>
        <pt x="311" y="683" on="1"/>
        <pt x="410" y="683" on="0"/>
        <pt x="545" y="583" on="0"/>
        <pt x="562" y="499" on="1"/>
        <pt x="483" y="481" on="1"/>
        <pt x="472" y="542" on="0"/>
        <pt x="378" y="614" on="0"/>
        <pt x="309" y="614" on="1"/>
        <pt x="241" y="614" on="0"/>
        <pt x="157" y="547" on="0"/>
        <pt x="157" y="493" on="1"/>
        <pt x="157" y="450" on="0"/>
        <pt x="208" y="403" on="0"/>
        <pt x="258" y="393" on="1"/>
        <pt x="404" y="360" on="1"/>
        <pt x="573" y="324" on="0"/>
        <pt x="573" y="186" on="1"/>
        <pt x="573" y="95" on="0"/>
        <pt x="437" y="-13" on="0"/>
        <pt x="324" y="-13" on="1"/>
        <pt x="215" y="-13" on="0"/>
        <pt x="64" y="94" on="0"/>
        <pt x="52" y="187" on="1"/>
        <pt x="135" y="204" on="1"/>
        <pt x="146" y="134" on="0"/>
        <pt x="252" y="57" on="0"/>
        <pt x="331" y="57" on="1"/>
        <pt x="407" y="57" on="0"/>
        <pt x="494" y="126" on="0"/>
        <pt x="494" y="182" on="1"/>
        <pt x="494" y="228" on="0"/>
        <pt x="443" y="274" on="0"/>
        <pt x="385" y="287" on="1"/>
        <pt x="234" y="320" on="1"/>
        <pt x="73" y="356" on="0"/>
        <pt x="73" y="491" on="1"/>
        <pt x="73" y="577" on="0"/>
        <pt x="204" y="683" on="0"/>
      </contour>
    </TTGlyph>
    <TTGlyph name="Sacute" xMin="52" yMin="-13" xMax="573" yMax="885">
      <contour>
        <pt x="359" y="745" on="1"/>
        <pt x="292" y="745" on="1"/>
        <pt x="372" y="885" on="1"/>
        <pt x="461" y="885" on="1"/>
      </contour>
      <contour>
        <pt x="311" y="683" on="1"/>
        <pt x="410" y="683" on="0"/>
        <pt x="545" y="583" on="0"/>
        <pt x="562" y="499" on="1"/>
        <pt x="483" y="481" on="1"/>
        <pt x="472" y="542" on="0"/>
        <pt x="378" y="614" on="0"/>
        <pt x="309" y="614" on="1"/>
        <pt x="241" y="614" on="0"/>
        <pt x="157" y="547" on="0"/>
        <pt x="157" y="493" on="1"/>
        <pt x="157" y="450" on="0"/>
        <pt x="208" y="403" on="0"/>
        <pt x="258" y="393" on="1"/>
        <pt x="404" y="360" on="1"/>
        <pt x="573" y="324" on="0"/>
        <pt x="573" y="186" on="1"/>
        <pt x="573" y="95" on="0"/>
        <pt x="437" y="-13" on="0"/>
        <pt x="324" y="-13" on="1"/>
        <pt x="215" y="-13" on="0"/>
        <pt x="64" y="94" on="0"/>
        <pt x="52" y="187" on="1"/>
        <pt x="135" y="204" on="1"/>
        <pt x="146" y="134" on="0"/>
        <pt x="252" y="57" on="0"/>
        <pt x="331" y="57" on="1"/>
        <pt x="407" y="57" on="0"/>
        <pt x="494" y="126" on="0"/>
        <pt x="494" y="182" on="1"/>
        <pt x="494" y="228" on="0"/>
        <pt x="443" y="274" on="0"/>
        <pt x="385" y="287" on="1"/>
        <pt x="234" y="320" on="1"/>
        <pt x="73" y="356" on="0"/>
        <pt x="73" y="491" on="1"/>
        <pt x="73" y="577" on="0"/>
        <pt x="204" y="683" on="0"/>
      </contour>
    </TTGlyph>
    <TTGlyph name="Scaron" xMin="52" yMin="-13" xMax="573" yMax="880">
      <contour>
        <pt x="284" y="738" on="1"/>
        <pt x="168" y="880" on="1"/>
        <pt x="245" y="880" on="1"/>
        <pt x="321" y="788" on="1"/>
        <pt x="396" y="880" on="1"/>
        <pt x="474" y="880" on="1"/>
        <pt x="357" y="738" on="1"/>
      </contour>
      <contour>
        <pt x="258" y="393" on="1"/>
        <pt x="404" y="360" on="1"/>
        <pt x="573" y="324" on="0"/>
        <pt x="573" y="186" on="1"/>
        <pt x="573" y="95" on="0"/>
        <pt x="437" y="-13" on="0"/>
        <pt x="324" y="-13" on="1"/>
        <pt x="215" y="-13" on="0"/>
        <pt x="64" y="94" on="0"/>
        <pt x="52" y="187" on="1"/>
        <pt x="135" y="204" on="1"/>
        <pt x="146" y="134" on="0"/>
        <pt x="252" y="57" on="0"/>
        <pt x="331" y="57" on="1"/>
        <pt x="407" y="57" on="0"/>
        <pt x="494" y="126" on="0"/>
        <pt x="494" y="182" on="1"/>
        <pt x="494" y="228" on="0"/>
        <pt x="443" y="274" on="0"/>
        <pt x="385" y="287" on="1"/>
        <pt x="234" y="320" on="1"/>
        <pt x="73" y="356" on="0"/>
        <pt x="73" y="491" on="1"/>
        <pt x="73" y="577" on="0"/>
        <pt x="204" y="683" on="0"/>
        <pt x="311" y="683" on="1"/>
        <pt x="410" y="683" on="0"/>
        <pt x="545" y="583" on="0"/>
        <pt x="562" y="499" on="1"/>
        <pt x="483" y="481" on="1"/>
        <pt x="472" y="542" on="0"/>
        <pt x="378" y="614" on="0"/>
        <pt x="309" y="614" on="1"/>
        <pt x="241" y="614" on="0"/>
        <pt x="157" y="547" on="0"/>
        <pt x="157" y="493" on="1"/>
        <pt x="157" y="450" on="0"/>
        <pt x="208" y="403" on="0"/>
      </contour>
    </TTGlyph>
    <TTGlyph name="Scedilla" xMin="52" yMin="-170" xMax="573" yMax="683">
      <contour>
        <pt x="573" y="186" on="1"/>
        <pt x="573" y="102" on="0"/>
        <pt x="456" y="-4" on="0"/>
        <pt x="356" y="-12" on="1"/>
        <pt x="284" y="-170" on="1"/>
        <pt x="201" y="-170" on="1"/>
        <pt x="295" y="-12" on="1"/>
        <pt x="197" y="-5" on="0"/>
        <pt x="63" y="100" on="0"/>
        <pt x="52" y="187" on="1"/>
        <pt x="135" y="204" on="1"/>
        <pt x="146" y="134" on="0"/>
        <pt x="252" y="57" on="0"/>
        <pt x="331" y="57" on="1"/>
        <pt x="407" y="57" on="0"/>
        <pt x="494" y="126" on="0"/>
        <pt x="494" y="182" on="1"/>
        <pt x="494" y="228" on="0"/>
        <pt x="443" y="274" on="0"/>
        <pt x="385" y="287" on="1"/>
        <pt x="234" y="320" on="1"/>
        <pt x="73" y="356" on="0"/>
        <pt x="73" y="491" on="1"/>
        <pt x="73" y="577" on="0"/>
        <pt x="204" y="683" on="0"/>
        <pt x="311" y="683" on="1"/>
        <pt x="410" y="683" on="0"/>
        <pt x="545" y="583" on="0"/>
        <pt x="562" y="499" on="1"/>
        <pt x="483" y="481" on="1"/>
        <pt x="472" y="542" on="0"/>
        <pt x="378" y="614" on="0"/>
        <pt x="309" y="614" on="1"/>
        <pt x="241" y="614" on="0"/>
        <pt x="157" y="547" on="0"/>
        <pt x="157" y="493" on="1"/>
        <pt x="157" y="450" on="0"/>
        <pt x="208" y="403" on="0"/>
        <pt x="258" y="393" on="1"/>
        <pt x="404" y="360" on="1"/>
        <pt x="573" y="324" on="0"/>
      </contour>
    </TTGlyph>
    <TTGlyph name="Scommaaccent" xMin="52" yMin="-188" xMax="573" yMax="683">
      <contour>
        <pt x="311" y="683" on="1"/>
        <pt x="410" y="683" on="0"/>
        <pt x="545" y="583" on="0"/>
        <pt x="562" y="499" on="1"/>
        <pt x="483" y="481" on="1"/>
        <pt x="472" y="542" on="0"/>
        <pt x="378" y="614" on="0"/>
        <pt x="309" y="614" on="1"/>
        <pt x="241" y="614" on="0"/>
        <pt x="157" y="547" on="0"/>
        <pt x="157" y="493" on="1"/>
        <pt x="157" y="450" on="0"/>
        <pt x="208" y="403" on="0"/>
        <pt x="258" y="393" on="1"/>
        <pt x="404" y="360" on="1"/>
        <pt x="573" y="324" on="0"/>
        <pt x="573" y="186" on="1"/>
        <pt x="573" y="95" on="0"/>
        <pt x="437" y="-13" on="0"/>
        <pt x="324" y="-13" on="1"/>
        <pt x="215" y="-13" on="0"/>
        <pt x="64" y="94" on="0"/>
        <pt x="52" y="187" on="1"/>
        <pt x="135" y="204" on="1"/>
        <pt x="146" y="134" on="0"/>
        <pt x="252" y="57" on="0"/>
        <pt x="331" y="57" on="1"/>
        <pt x="407" y="57" on="0"/>
        <pt x="494" y="126" on="0"/>
        <pt x="494" y="182" on="1"/>
        <pt x="494" y="228" on="0"/>
        <pt x="443" y="274" on="0"/>
        <pt x="385" y="287" on="1"/>
        <pt x="234" y="320" on="1"/>
        <pt x="73" y="356" on="0"/>
        <pt x="73" y="491" on="1"/>
        <pt x="73" y="577" on="0"/>
        <pt x="204" y="683" on="0"/>
      </contour>
      <contour>
        <pt x="230" y="-188" on="1"/>
        <pt x="278" y="-45" on="1"/>
        <pt x="361" y="-45" on="1"/>
        <pt x="290" y="-188" on="1"/>
      </contour>
    </TTGlyph>
    <TTGlyph name="T" xMin="25" yMin="0" xMax="602" yMax="670">
      <contour>
        <pt x="602" y="599" on="1"/>
        <pt x="354" y="599" on="1"/>
        <pt x="354" y="0" on="1"/>
        <pt x="274" y="0" on="1"/>
        <pt x="274" y="599" on="1"/>
        <pt x="25" y="599" on="1"/>
        <pt x="25" y="670" on="1"/>
        <pt x="602" y="670" on="1"/>
      </contour>
    </TTGlyph>
    <TTGlyph name="Tbar" xMin="25" yMin="0" xMax="602" yMax="670">
      <contour>
        <pt x="354" y="599" on="1"/>
        <pt x="354" y="369" on="1"/>
        <pt x="486" y="369" on="1"/>
        <pt x="486" y="303" on="1"/>
        <pt x="354" y="303" on="1"/>
        <pt x="354" y="0" on="1"/>
        <pt x="274" y="0" on="1"/>
        <pt x="274" y="303" on="1"/>
        <pt x="142" y="303" on="1"/>
        <pt x="142" y="369" on="1"/>
        <pt x="274" y="369" on="1"/>
        <pt x="274" y="599" on="1"/>
        <pt x="25" y="599" on="1"/>
        <pt x="25" y="670" on="1"/>
        <pt x="602" y="670" on="1"/>
        <pt x="602" y="599" on="1"/>
      </contour>
    </TTGlyph>
    <TTGlyph name="Tcaron" xMin="25" yMin="0" xMax="602" yMax="880">
      <contour>
        <pt x="278" y="738" on="1"/>
        <pt x="162" y="880" on="1"/>
        <pt x="239" y="880" on="1"/>
        <pt x="315" y="788" on="1"/>
        <pt x="390" y="880" on="1"/>
        <pt x="468" y="880" on="1"/>
        <pt x="351" y="738" on="1"/>
      </contour>
      <contour>
        <pt x="602" y="599" on="1"/>
        <pt x="354" y="599" on="1"/>
        <pt x="354" y="0" on="1"/>
        <pt x="274" y="0" on="1"/>
        <pt x="274" y="599" on="1"/>
        <pt x="25" y="599" on="1"/>
        <pt x="25" y="670" on="1"/>
        <pt x="602" y="670" on="1"/>
      </contour>
    </TTGlyph>
    <TTGlyph name="Thorn" xMin="88" yMin="0" xMax="593" yMax="670">
      <contour>
        <pt x="167" y="549" on="1"/>
        <pt x="360" y="549" on="1"/>
        <pt x="465" y="549" on="0"/>
        <pt x="593" y="430" on="0"/>
        <pt x="593" y="335" on="1"/>
        <pt x="593" y="241" on="0"/>
        <pt x="464" y="122" on="0"/>
        <pt x="360" y="122" on="1"/>
        <pt x="167" y="122" on="1"/>
        <pt x="167" y="0" on="1"/>
        <pt x="88" y="0" on="1"/>
        <pt x="88" y="670" on="1"/>
        <pt x="167" y="670" on="1"/>
      </contour>
      <contour>
        <pt x="167" y="193" on="1"/>
        <pt x="356" y="193" on="1"/>
        <pt x="427" y="193" on="0"/>
        <pt x="515" y="273" on="0"/>
        <pt x="515" y="335" on="1"/>
        <pt x="515" y="398" on="0"/>
        <pt x="427" y="477" on="0"/>
        <pt x="356" y="477" on="1"/>
        <pt x="167" y="477" on="1"/>
      </contour>
    </TTGlyph>
    <TTGlyph name="U" xMin="80" yMin="-13" xMax="641" yMax="670">
      <contour>
        <pt x="641" y="670" on="1"/>
        <pt x="641" y="293" on="1"/>
        <pt x="641" y="156" on="0"/>
        <pt x="488" y="-13" on="0"/>
        <pt x="362" y="-13" on="1"/>
        <pt x="235" y="-13" on="0"/>
        <pt x="80" y="156" on="0"/>
        <pt x="80" y="293" on="1"/>
        <pt x="80" y="670" on="1"/>
        <pt x="159" y="670" on="1"/>
        <pt x="159" y="293" on="1"/>
        <pt x="159" y="189" on="0"/>
        <pt x="270" y="63" on="0"/>
        <pt x="362" y="63" on="1"/>
        <pt x="452" y="63" on="0"/>
        <pt x="562" y="189" on="0"/>
        <pt x="562" y="293" on="1"/>
        <pt x="562" y="670" on="1"/>
      </contour>
    </TTGlyph>
    <TTGlyph name="Uacute" xMin="80" yMin="-13" xMax="641" yMax="885">
      <contour>
        <pt x="399" y="745" on="1"/>
        <pt x="332" y="745" on="1"/>
        <pt x="412" y="885" on="1"/>
        <pt x="501" y="885" on="1"/>
      </contour>
      <contour>
        <pt x="641" y="670" on="1"/>
        <pt x="641" y="293" on="1"/>
        <pt x="641" y="156" on="0"/>
        <pt x="488" y="-13" on="0"/>
        <pt x="362" y="-13" on="1"/>
        <pt x="235" y="-13" on="0"/>
        <pt x="80" y="156" on="0"/>
        <pt x="80" y="293" on="1"/>
        <pt x="80" y="670" on="1"/>
        <pt x="159" y="670" on="1"/>
        <pt x="159" y="293" on="1"/>
        <pt x="159" y="189" on="0"/>
        <pt x="270" y="63" on="0"/>
        <pt x="362" y="63" on="1"/>
        <pt x="452" y="63" on="0"/>
        <pt x="562" y="189" on="0"/>
        <pt x="562" y="293" on="1"/>
        <pt x="562" y="670" on="1"/>
      </contour>
    </TTGlyph>
    <TTGlyph name="Ucircumflex" xMin="80" yMin="-13" xMax="641" yMax="879">
      <contour>
        <pt x="285" y="737" on="1"/>
        <pt x="208" y="737" on="1"/>
        <pt x="324" y="879" on="1"/>
        <pt x="397" y="879" on="1"/>
        <pt x="514" y="737" on="1"/>
        <pt x="436" y="737" on="1"/>
        <pt x="361" y="830" on="1"/>
      </contour>
      <contour>
        <pt x="641" y="670" on="1"/>
        <pt x="641" y="293" on="1"/>
        <pt x="641" y="156" on="0"/>
        <pt x="488" y="-13" on="0"/>
        <pt x="362" y="-13" on="1"/>
        <pt x="235" y="-13" on="0"/>
        <pt x="80" y="156" on="0"/>
        <pt x="80" y="293" on="1"/>
        <pt x="80" y="670" on="1"/>
        <pt x="159" y="670" on="1"/>
        <pt x="159" y="293" on="1"/>
        <pt x="159" y="189" on="0"/>
        <pt x="270" y="63" on="0"/>
        <pt x="362" y="63" on="1"/>
        <pt x="452" y="63" on="0"/>
        <pt x="562" y="189" on="0"/>
        <pt x="562" y="293" on="1"/>
        <pt x="562" y="670" on="1"/>
      </contour>
    </TTGlyph>
    <TTGlyph name="Udieresis" xMin="80" yMin="-13" xMax="641" yMax="857">
      <contour>
        <pt x="261" y="755" on="1"/>
        <pt x="239" y="755" on="0"/>
        <pt x="209" y="784" on="0"/>
        <pt x="209" y="806" on="1"/>
        <pt x="209" y="827" on="0"/>
        <pt x="239" y="857" on="0"/>
        <pt x="283" y="857" on="0"/>
        <pt x="314" y="827" on="0"/>
        <pt x="314" y="806" on="1"/>
        <pt x="314" y="784" on="0"/>
        <pt x="284" y="755" on="0"/>
      </contour>
      <contour>
        <pt x="459" y="755" on="1"/>
        <pt x="437" y="755" on="0"/>
        <pt x="407" y="784" on="0"/>
        <pt x="407" y="806" on="1"/>
        <pt x="407" y="827" on="0"/>
        <pt x="437" y="857" on="0"/>
        <pt x="481" y="857" on="0"/>
        <pt x="512" y="827" on="0"/>
        <pt x="512" y="806" on="1"/>
        <pt x="512" y="784" on="0"/>
        <pt x="482" y="755" on="0"/>
      </contour>
      <contour>
        <pt x="641" y="670" on="1"/>
        <pt x="641" y="293" on="1"/>
        <pt x="641" y="156" on="0"/>
        <pt x="488" y="-13" on="0"/>
        <pt x="362" y="-13" on="1"/>
        <pt x="235" y="-13" on="0"/>
        <pt x="80" y="156" on="0"/>
        <pt x="80" y="293" on="1"/>
        <pt x="80" y="670" on="1"/>
        <pt x="159" y="670" on="1"/>
        <pt x="159" y="293" on="1"/>
        <pt x="159" y="189" on="0"/>
        <pt x="270" y="63" on="0"/>
        <pt x="362" y="63" on="1"/>
        <pt x="452" y="63" on="0"/>
        <pt x="562" y="189" on="0"/>
        <pt x="562" y="293" on="1"/>
        <pt x="562" y="670" on="1"/>
      </contour>
    </TTGlyph>
    <TTGlyph name="Ugrave" xMin="80" yMin="-13" xMax="641" yMax="885">
      <contour>
        <pt x="326" y="745" on="1"/>
        <pt x="224" y="885" on="1"/>
        <pt x="313" y="885" on="1"/>
        <pt x="392" y="745" on="1"/>
      </contour>
      <contour>
        <pt x="641" y="670" on="1"/>
        <pt x="641" y="293" on="1"/>
        <pt x="641" y="156" on="0"/>
        <pt x="488" y="-13" on="0"/>
        <pt x="362" y="-13" on="1"/>
        <pt x="235" y="-13" on="0"/>
        <pt x="80" y="156" on="0"/>
        <pt x="80" y="293" on="1"/>
        <pt x="80" y="670" on="1"/>
        <pt x="159" y="670" on="1"/>
        <pt x="159" y="293" on="1"/>
        <pt x="159" y="189" on="0"/>
        <pt x="270" y="63" on="0"/>
        <pt x="362" y="63" on="1"/>
        <pt x="452" y="63" on="0"/>
        <pt x="562" y="189" on="0"/>
        <pt x="562" y="293" on="1"/>
        <pt x="562" y="670" on="1"/>
      </contour>
    </TTGlyph>
    <TTGlyph name="Uhungarumlaut" xMin="80" yMin="-13" xMax="641" yMax="885">
      <contour>
        <pt x="315" y="745" on="1"/>
        <pt x="245" y="745" on="1"/>
        <pt x="324" y="885" on="1"/>
        <pt x="419" y="885" on="1"/>
      </contour>
      <contour>
        <pt x="399" y="745" on="1"/>
        <pt x="478" y="885" on="1"/>
        <pt x="573" y="885" on="1"/>
        <pt x="469" y="745" on="1"/>
      </contour>
      <contour>
        <pt x="641" y="670" on="1"/>
        <pt x="641" y="293" on="1"/>
        <pt x="641" y="156" on="0"/>
        <pt x="488" y="-13" on="0"/>
        <pt x="362" y="-13" on="1"/>
        <pt x="235" y="-13" on="0"/>
        <pt x="80" y="156" on="0"/>
        <pt x="80" y="293" on="1"/>
        <pt x="80" y="670" on="1"/>
        <pt x="159" y="670" on="1"/>
        <pt x="159" y="293" on="1"/>
        <pt x="159" y="189" on="0"/>
        <pt x="270" y="63" on="0"/>
        <pt x="362" y="63" on="1"/>
        <pt x="452" y="63" on="0"/>
        <pt x="562" y="189" on="0"/>
        <pt x="562" y="293" on="1"/>
        <pt x="562" y="670" on="1"/>
      </contour>
    </TTGlyph>
    <TTGlyph name="Umacron" xMin="80" yMin="-13" xMax="641" yMax="824">
      <contour>
        <pt x="502" y="762" on="1"/>
        <pt x="218" y="762" on="1"/>
        <pt x="218" y="824" on="1"/>
        <pt x="502" y="824" on="1"/>
      </contour>
      <contour>
        <pt x="641" y="670" on="1"/>
        <pt x="641" y="293" on="1"/>
        <pt x="641" y="156" on="0"/>
        <pt x="488" y="-13" on="0"/>
        <pt x="362" y="-13" on="1"/>
        <pt x="235" y="-13" on="0"/>
        <pt x="80" y="156" on="0"/>
        <pt x="80" y="293" on="1"/>
        <pt x="80" y="670" on="1"/>
        <pt x="159" y="670" on="1"/>
        <pt x="159" y="293" on="1"/>
        <pt x="159" y="189" on="0"/>
        <pt x="270" y="63" on="0"/>
        <pt x="362" y="63" on="1"/>
        <pt x="452" y="63" on="0"/>
        <pt x="562" y="189" on="0"/>
        <pt x="562" y="293" on="1"/>
        <pt x="562" y="670" on="1"/>
      </contour>
    </TTGlyph>
    <TTGlyph name="Uogonek" xMin="80" yMin="-201" xMax="641" yMax="670">
      <contour>
        <pt x="641" y="670" on="1"/>
        <pt x="641" y="284" on="1"/>
        <pt x="641" y="141" on="0"/>
        <pt x="543" y="52" on="1"/>
        <pt x="466" y="-16" on="0"/>
        <pt x="423" y="-67" on="0"/>
        <pt x="423" y="-99" on="1"/>
        <pt x="423" y="-119" on="0"/>
        <pt x="448" y="-142" on="0"/>
        <pt x="470" y="-142" on="1"/>
        <pt x="483" y="-142" on="0"/>
        <pt x="521" y="-129" on="1"/>
        <pt x="536" y="-179" on="1"/>
        <pt x="490" y="-201" on="0"/>
        <pt x="452" y="-201" on="1"/>
        <pt x="410" y="-201" on="0"/>
        <pt x="358" y="-156" on="0"/>
        <pt x="358" y="-119" on="1"/>
        <pt x="358" y="-63" on="0"/>
        <pt x="418" y="-6" on="1"/>
        <pt x="391" y="-13" on="0"/>
        <pt x="362" y="-13" on="1"/>
        <pt x="236" y="-13" on="0"/>
        <pt x="80" y="151" on="0"/>
        <pt x="80" y="284" on="1"/>
        <pt x="80" y="670" on="1"/>
        <pt x="159" y="670" on="1"/>
        <pt x="159" y="284" on="1"/>
        <pt x="159" y="184" on="0"/>
        <pt x="271" y="63" on="0"/>
        <pt x="362" y="63" on="1"/>
        <pt x="451" y="63" on="0"/>
        <pt x="562" y="185" on="0"/>
        <pt x="562" y="284" on="1"/>
        <pt x="562" y="670" on="1"/>
      </contour>
    </TTGlyph>
    <TTGlyph name="Uring" xMin="80" yMin="-13" xMax="641" yMax="928">
      <contour>
        <pt x="403" y="727" on="0"/>
        <pt x="317" y="727" on="0"/>
        <pt x="257" y="786" on="0"/>
        <pt x="257" y="828" on="1"/>
        <pt x="257" y="869" on="0"/>
        <pt x="317" y="928" on="0"/>
        <pt x="403" y="928" on="0"/>
        <pt x="464" y="869" on="0"/>
        <pt x="464" y="828" on="1"/>
        <pt x="464" y="786" on="0"/>
      </contour>
      <contour>
        <pt x="360" y="882" on="1"/>
        <pt x="337" y="882" on="0"/>
        <pt x="304" y="850" on="0"/>
        <pt x="304" y="806" on="0"/>
        <pt x="337" y="774" on="0"/>
        <pt x="360" y="774" on="1"/>
        <pt x="384" y="774" on="0"/>
        <pt x="416" y="805" on="0"/>
        <pt x="416" y="828" on="1"/>
        <pt x="416" y="850" on="0"/>
        <pt x="384" y="882" on="0"/>
      </contour>
      <contour>
        <pt x="641" y="670" on="1"/>
        <pt x="641" y="293" on="1"/>
        <pt x="641" y="156" on="0"/>
        <pt x="488" y="-13" on="0"/>
        <pt x="362" y="-13" on="1"/>
        <pt x="235" y="-13" on="0"/>
        <pt x="80" y="156" on="0"/>
        <pt x="80" y="293" on="1"/>
        <pt x="80" y="670" on="1"/>
        <pt x="159" y="670" on="1"/>
        <pt x="159" y="293" on="1"/>
        <pt x="159" y="189" on="0"/>
        <pt x="270" y="63" on="0"/>
        <pt x="362" y="63" on="1"/>
        <pt x="452" y="63" on="0"/>
        <pt x="562" y="189" on="0"/>
        <pt x="562" y="293" on="1"/>
        <pt x="562" y="670" on="1"/>
      </contour>
    </TTGlyph>
    <TTGlyph name="V" xMin="18" yMin="0" xMax="678" yMax="670">
      <contour>
        <pt x="678" y="670" on="1"/>
        <pt x="386" y="0" on="1"/>
        <pt x="310" y="0" on="1"/>
        <pt x="18" y="670" on="1"/>
        <pt x="104" y="670" on="1"/>
        <pt x="348" y="108" on="1"/>
        <pt x="592" y="670" on="1"/>
      </contour>
    </TTGlyph>
    <TTGlyph name="W" xMin="18" yMin="0" xMax="936" yMax="670">
      <contour>
        <pt x="936" y="670" on="1"/>
        <pt x="730" y="0" on="1"/>
        <pt x="647" y="0" on="1"/>
        <pt x="477" y="544" on="1"/>
        <pt x="306" y="0" on="1"/>
        <pt x="224" y="0" on="1"/>
        <pt x="18" y="670" on="1"/>
        <pt x="100" y="670" on="1"/>
        <pt x="267" y="121" on="1"/>
        <pt x="438" y="670" on="1"/>
        <pt x="515" y="670" on="1"/>
        <pt x="686" y="121" on="1"/>
        <pt x="853" y="670" on="1"/>
      </contour>
    </TTGlyph>
    <TTGlyph name="Wacute" xMin="18" yMin="0" xMax="936" yMax="885">
      <contour>
        <pt x="516" y="745" on="1"/>
        <pt x="449" y="745" on="1"/>
        <pt x="529" y="885" on="1"/>
        <pt x="618" y="885" on="1"/>
      </contour>
      <contour>
        <pt x="936" y="670" on="1"/>
        <pt x="730" y="0" on="1"/>
        <pt x="647" y="0" on="1"/>
        <pt x="477" y="544" on="1"/>
        <pt x="306" y="0" on="1"/>
        <pt x="224" y="0" on="1"/>
        <pt x="18" y="670" on="1"/>
        <pt x="100" y="670" on="1"/>
        <pt x="267" y="121" on="1"/>
        <pt x="438" y="670" on="1"/>
        <pt x="515" y="670" on="1"/>
        <pt x="686" y="121" on="1"/>
        <pt x="853" y="670" on="1"/>
      </contour>
    </TTGlyph>
    <TTGlyph name="Wcircumflex" xMin="18" yMin="0" xMax="936" yMax="879">
      <contour>
        <pt x="402" y="737" on="1"/>
        <pt x="325" y="737" on="1"/>
        <pt x="441" y="879" on="1"/>
        <pt x="514" y="879" on="1"/>
        <pt x="631" y="737" on="1"/>
        <pt x="553" y="737" on="1"/>
        <pt x="478" y="830" on="1"/>
      </contour>
      <contour>
        <pt x="936" y="670" on="1"/>
        <pt x="730" y="0" on="1"/>
        <pt x="647" y="0" on="1"/>
        <pt x="477" y="544" on="1"/>
        <pt x="306" y="0" on="1"/>
        <pt x="224" y="0" on="1"/>
        <pt x="18" y="670" on="1"/>
        <pt x="100" y="670" on="1"/>
        <pt x="267" y="121" on="1"/>
        <pt x="438" y="670" on="1"/>
        <pt x="515" y="670" on="1"/>
        <pt x="686" y="121" on="1"/>
        <pt x="853" y="670" on="1"/>
      </contour>
    </TTGlyph>
    <TTGlyph name="Wdieresis" xMin="18" yMin="0" xMax="936" yMax="857">
      <contour>
        <pt x="378" y="755" on="1"/>
        <pt x="356" y="755" on="0"/>
        <pt x="326" y="784" on="0"/>
        <pt x="326" y="806" on="1"/>
        <pt x="326" y="827" on="0"/>
        <pt x="356" y="857" on="0"/>
        <pt x="400" y="857" on="0"/>
        <pt x="431" y="827" on="0"/>
        <pt x="431" y="806" on="1"/>
        <pt x="431" y="784" on="0"/>
        <pt x="401" y="755" on="0"/>
      </contour>
      <contour>
        <pt x="576" y="755" on="1"/>
        <pt x="554" y="755" on="0"/>
        <pt x="524" y="784" on="0"/>
        <pt x="524" y="806" on="1"/>
        <pt x="524" y="827" on="0"/>
        <pt x="554" y="857" on="0"/>
        <pt x="598" y="857" on="0"/>
        <pt x="629" y="827" on="0"/>
        <pt x="629" y="806" on="1"/>
        <pt x="629" y="784" on="0"/>
        <pt x="599" y="755" on="0"/>
      </contour>
      <contour>
        <pt x="936" y="670" on="1"/>
        <pt x="730" y="0" on="1"/>
        <pt x="647" y="0" on="1"/>
        <pt x="477" y="544" on="1"/>
        <pt x="306" y="0" on="1"/>
        <pt x="224" y="0" on="1"/>
        <pt x="18" y="670" on="1"/>
        <pt x="100" y="670" on="1"/>
        <pt x="267" y="121" on="1"/>
        <pt x="438" y="670" on="1"/>
        <pt x="515" y="670" on="1"/>
        <pt x="686" y="121" on="1"/>
        <pt x="853" y="670" on="1"/>
      </contour>
    </TTGlyph>
    <TTGlyph name="Wgrave" xMin="18" yMin="0" xMax="936" yMax="885">
      <contour>
        <pt x="442" y="745" on="1"/>
        <pt x="340" y="885" on="1"/>
        <pt x="429" y="885" on="1"/>
        <pt x="508" y="745" on="1"/>
      </contour>
      <contour>
        <pt x="936" y="670" on="1"/>
        <pt x="730" y="0" on="1"/>
        <pt x="647" y="0" on="1"/>
        <pt x="477" y="544" on="1"/>
        <pt x="306" y="0" on="1"/>
        <pt x="224" y="0" on="1"/>
        <pt x="18" y="670" on="1"/>
        <pt x="100" y="670" on="1"/>
        <pt x="267" y="121" on="1"/>
        <pt x="438" y="670" on="1"/>
        <pt x="515" y="670" on="1"/>
        <pt x="686" y="121" on="1"/>
        <pt x="853" y="670" on="1"/>
      </contour>
    </TTGlyph>
    <TTGlyph name="X" xMin="18" yMin="0" xMax="615" yMax="670">
      <contour>
        <pt x="518" y="0" on="1"/>
        <pt x="316" y="286" on="1"/>
        <pt x="115" y="0" on="1"/>
        <pt x="18" y="0" on="1"/>
        <pt x="257" y="337" on="1"/>
        <pt x="23" y="670" on="1"/>
        <pt x="119" y="670" on="1"/>
        <pt x="316" y="388" on="1"/>
        <pt x="513" y="670" on="1"/>
        <pt x="610" y="670" on="1"/>
        <pt x="375" y="337" on="1"/>
        <pt x="615" y="0" on="1"/>
      </contour>
    </TTGlyph>
    <TTGlyph name="Y" xMin="18" yMin="0" xMax="653" yMax="670">
      <contour>
        <pt x="374" y="235" on="1"/>
        <pt x="374" y="0" on="1"/>
        <pt x="295" y="0" on="1"/>
        <pt x="295" y="234" on="1"/>
        <pt x="18" y="670" on="1"/>
        <pt x="106" y="670" on="1"/>
        <pt x="334" y="313" on="1"/>
        <pt x="562" y="670" on="1"/>
        <pt x="653" y="670" on="1"/>
      </contour>
    </TTGlyph>
    <TTGlyph name="Yacute" xMin="18" yMin="0" xMax="653" yMax="885">
      <contour>
        <pt x="374" y="745" on="1"/>
        <pt x="307" y="745" on="1"/>
        <pt x="387" y="885" on="1"/>
        <pt x="476" y="885" on="1"/>
      </contour>
      <contour>
        <pt x="374" y="235" on="1"/>
        <pt x="374" y="0" on="1"/>
        <pt x="295" y="0" on="1"/>
        <pt x="295" y="234" on="1"/>
        <pt x="18" y="670" on="1"/>
        <pt x="106" y="670" on="1"/>
        <pt x="334" y="313" on="1"/>
        <pt x="562" y="670" on="1"/>
        <pt x="653" y="670" on="1"/>
      </contour>
    </TTGlyph>
    <TTGlyph name="Ycircumflex" xMin="18" yMin="0" xMax="653" yMax="879">
      <contour>
        <pt x="260" y="737" on="1"/>
        <pt x="183" y="737" on="1"/>
        <pt x="299" y="879" on="1"/>
        <pt x="372" y="879" on="1"/>
        <pt x="489" y="737" on="1"/>
        <pt x="411" y="737" on="1"/>
        <pt x="336" y="830" on="1"/>
      </contour>
      <contour>
        <pt x="374" y="235" on="1"/>
        <pt x="374" y="0" on="1"/>
        <pt x="295" y="0" on="1"/>
        <pt x="295" y="234" on="1"/>
        <pt x="18" y="670" on="1"/>
        <pt x="106" y="670" on="1"/>
        <pt x="334" y="313" on="1"/>
        <pt x="562" y="670" on="1"/>
        <pt x="653" y="670" on="1"/>
      </contour>
    </TTGlyph>
    <TTGlyph name="Ydieresis" xMin="18" yMin="0" xMax="653" yMax="857">
      <contour>
        <pt x="236" y="755" on="1"/>
        <pt x="214" y="755" on="0"/>
        <pt x="184" y="784" on="0"/>
        <pt x="184" y="806" on="1"/>
        <pt x="184" y="827" on="0"/>
        <pt x="214" y="857" on="0"/>
        <pt x="258" y="857" on="0"/>
        <pt x="289" y="827" on="0"/>
        <pt x="289" y="806" on="1"/>
        <pt x="289" y="784" on="0"/>
        <pt x="259" y="755" on="0"/>
      </contour>
      <contour>
        <pt x="434" y="755" on="1"/>
        <pt x="412" y="755" on="0"/>
        <pt x="382" y="784" on="0"/>
        <pt x="382" y="806" on="1"/>
        <pt x="382" y="827" on="0"/>
        <pt x="412" y="857" on="0"/>
        <pt x="456" y="857" on="0"/>
        <pt x="487" y="827" on="0"/>
        <pt x="487" y="806" on="1"/>
        <pt x="487" y="784" on="0"/>
        <pt x="457" y="755" on="0"/>
      </contour>
      <contour>
        <pt x="374" y="235" on="1"/>
        <pt x="374" y="0" on="1"/>
        <pt x="295" y="0" on="1"/>
        <pt x="295" y="234" on="1"/>
        <pt x="18" y="670" on="1"/>
        <pt x="106" y="670" on="1"/>
        <pt x="334" y="313" on="1"/>
        <pt x="562" y="670" on="1"/>
        <pt x="653" y="670" on="1"/>
      </contour>
    </TTGlyph>
    <TTGlyph name="Ygrave" xMin="18" yMin="0" xMax="653" yMax="885">
      <contour>
        <pt x="301" y="745" on="1"/>
        <pt x="199" y="885" on="1"/>
        <pt x="288" y="885" on="1"/>
        <pt x="367" y="745" on="1"/>
      </contour>
      <contour>
        <pt x="374" y="235" on="1"/>
        <pt x="374" y="0" on="1"/>
        <pt x="295" y="0" on="1"/>
        <pt x="295" y="234" on="1"/>
        <pt x="18" y="670" on="1"/>
        <pt x="106" y="670" on="1"/>
        <pt x="334" y="313" on="1"/>
        <pt x="562" y="670" on="1"/>
        <pt x="653" y="670" on="1"/>
      </contour>
    </TTGlyph>
    <TTGlyph name="Z" xMin="59" yMin="0" xMax="575" yMax="670">
      <contour>
        <pt x="575" y="68" on="1"/>
        <pt x="575" y="0" on="1"/>
        <pt x="59" y="0" on="1"/>
        <pt x="59" y="50" on="1"/>
        <pt x="469" y="602" on="1"/>
        <pt x="71" y="602" on="1"/>
        <pt x="71" y="670" on="1"/>
        <pt x="571" y="670" on="1"/>
        <pt x="571" y="613" on="1"/>
        <pt x="170" y="68" on="1"/>
      </contour>
    </TTGlyph>
    <TTGlyph name="Zacute" xMin="59" yMin="0" xMax="575" yMax="885">
      <contour>
        <pt x="360" y="745" on="1"/>
        <pt x="293" y="745" on="1"/>
        <pt x="373" y="885" on="1"/>
        <pt x="462" y="885" on="1"/>
      </contour>
      <contour>
        <pt x="575" y="68" on="1"/>
        <pt x="575" y="0" on="1"/>
        <pt x="59" y="0" on="1"/>
        <pt x="59" y="50" on="1"/>
        <pt x="469" y="602" on="1"/>
        <pt x="71" y="602" on="1"/>
        <pt x="71" y="670" on="1"/>
        <pt x="571" y="670" on="1"/>
        <pt x="571" y="613" on="1"/>
        <pt x="170" y="68" on="1"/>
      </contour>
    </TTGlyph>
    <TTGlyph name="Zcaron" xMin="59" yMin="0" xMax="575" yMax="880">
      <contour>
        <pt x="285" y="738" on="1"/>
        <pt x="169" y="880" on="1"/>
        <pt x="246" y="880" on="1"/>
        <pt x="322" y="788" on="1"/>
        <pt x="397" y="880" on="1"/>
        <pt x="475" y="880" on="1"/>
        <pt x="358" y="738" on="1"/>
      </contour>
      <contour>
        <pt x="575" y="68" on="1"/>
        <pt x="575" y="0" on="1"/>
        <pt x="59" y="0" on="1"/>
        <pt x="59" y="50" on="1"/>
        <pt x="469" y="602" on="1"/>
        <pt x="71" y="602" on="1"/>
        <pt x="71" y="670" on="1"/>
        <pt x="571" y="670" on="1"/>
        <pt x="571" y="613" on="1"/>
        <pt x="170" y="68" on="1"/>
      </contour>
    </TTGlyph>
    <TTGlyph name="Zdotaccent" xMin="59" yMin="0" xMax="575" yMax="862">
      <contour>
        <pt x="320" y="763" on="1"/>
        <pt x="298" y="763" on="0"/>
        <pt x="269" y="791" on="0"/>
        <pt x="269" y="813" on="1"/>
        <pt x="269" y="833" on="0"/>
        <pt x="299" y="862" on="0"/>
        <pt x="320" y="862" on="1"/>
        <pt x="342" y="862" on="0"/>
        <pt x="372" y="833" on="0"/>
        <pt x="372" y="813" on="1"/>
        <pt x="372" y="791" on="0"/>
        <pt x="343" y="763" on="0"/>
      </contour>
      <contour>
        <pt x="575" y="68" on="1"/>
        <pt x="575" y="0" on="1"/>
        <pt x="59" y="0" on="1"/>
        <pt x="59" y="50" on="1"/>
        <pt x="469" y="602" on="1"/>
        <pt x="71" y="602" on="1"/>
        <pt x="71" y="670" on="1"/>
        <pt x="571" y="670" on="1"/>
        <pt x="571" y="613" on="1"/>
        <pt x="170" y="68" on="1"/>
      </contour>
    </TTGlyph>
    <TTGlyph name="a" xMin="38" yMin="-13" xMax="556" yMax="505">
      <contour>
        <pt x="556" y="493" on="1"/>
        <pt x="556" y="0" on="1"/>
        <pt x="480" y="0" on="1"/>
        <pt x="480" y="78" on="1"/>
        <pt x="411" y="-13" on="0"/>
        <pt x="284" y="-13" on="1"/>
        <pt x="183" y="-13" on="0"/>
        <pt x="38" y="132" on="0"/>
        <pt x="38" y="360" on="0"/>
        <pt x="183" y="505" on="0"/>
        <pt x="284" y="505" on="1"/>
        <pt x="411" y="505" on="0"/>
        <pt x="480" y="414" on="1"/>
        <pt x="480" y="493" on="1"/>
      </contour>
      <contour>
        <pt x="296" y="55" on="1"/>
        <pt x="369" y="55" on="0"/>
        <pt x="480" y="162" on="0"/>
        <pt x="480" y="246" on="1"/>
        <pt x="480" y="331" on="0"/>
        <pt x="369" y="438" on="0"/>
        <pt x="296" y="438" on="1"/>
        <pt x="218" y="438" on="0"/>
        <pt x="112" y="332" on="0"/>
        <pt x="112" y="160" on="0"/>
        <pt x="218" y="55" on="0"/>
      </contour>
    </TTGlyph>
    <TTGlyph name="a.ss01" xMin="43" yMin="-13" xMax="481" yMax="505">
      <contour>
        <pt x="277" y="505" on="1"/>
        <pt x="371" y="505" on="0"/>
        <pt x="481" y="408" on="0"/>
        <pt x="481" y="320" on="1"/>
        <pt x="481" y="0" on="1"/>
        <pt x="407" y="0" on="1"/>
        <pt x="407" y="75" on="1"/>
        <pt x="341" y="-13" on="0"/>
        <pt x="222" y="-13" on="1"/>
        <pt x="141" y="-13" on="0"/>
        <pt x="43" y="71" on="0"/>
        <pt x="43" y="138" on="1"/>
        <pt x="43" y="207" on="0"/>
        <pt x="147" y="292" on="0"/>
        <pt x="241" y="292" on="1"/>
        <pt x="407" y="292" on="1"/>
        <pt x="407" y="315" on="1"/>
        <pt x="407" y="372" on="0"/>
        <pt x="339" y="438" on="0"/>
        <pt x="281" y="438" on="1"/>
        <pt x="225" y="438" on="0"/>
        <pt x="151" y="385" on="0"/>
        <pt x="143" y="339" on="1"/>
        <pt x="70" y="355" on="1"/>
        <pt x="82" y="422" on="0"/>
        <pt x="196" y="505" on="0"/>
      </contour>
      <contour>
        <pt x="233" y="50" on="1"/>
        <pt x="306" y="50" on="0"/>
        <pt x="407" y="140" on="0"/>
        <pt x="407" y="206" on="1"/>
        <pt x="407" y="232" on="1"/>
        <pt x="240" y="232" on="1"/>
        <pt x="181" y="232" on="0"/>
        <pt x="116" y="181" on="0"/>
        <pt x="116" y="139" on="1"/>
        <pt x="116" y="100" on="0"/>
        <pt x="180" y="50" on="0"/>
      </contour>
    </TTGlyph>
    <TTGlyph name="aacute" xMin="38" yMin="-13" xMax="556" yMax="707">
      <contour>
        <pt x="349" y="567" on="1"/>
        <pt x="282" y="567" on="1"/>
        <pt x="362" y="707" on="1"/>
        <pt x="451" y="707" on="1"/>
      </contour>
      <contour>
        <pt x="556" y="493" on="1"/>
        <pt x="556" y="0" on="1"/>
        <pt x="480" y="0" on="1"/>
        <pt x="480" y="78" on="1"/>
        <pt x="411" y="-13" on="0"/>
        <pt x="284" y="-13" on="1"/>
        <pt x="183" y="-13" on="0"/>
        <pt x="38" y="132" on="0"/>
        <pt x="38" y="360" on="0"/>
        <pt x="183" y="505" on="0"/>
        <pt x="284" y="505" on="1"/>
        <pt x="411" y="505" on="0"/>
        <pt x="480" y="414" on="1"/>
        <pt x="480" y="493" on="1"/>
      </contour>
      <contour>
        <pt x="296" y="55" on="1"/>
        <pt x="369" y="55" on="0"/>
        <pt x="480" y="162" on="0"/>
        <pt x="480" y="246" on="1"/>
        <pt x="480" y="331" on="0"/>
        <pt x="369" y="438" on="0"/>
        <pt x="296" y="438" on="1"/>
        <pt x="218" y="438" on="0"/>
        <pt x="112" y="332" on="0"/>
        <pt x="112" y="160" on="0"/>
        <pt x="218" y="55" on="0"/>
      </contour>
    </TTGlyph>
    <TTGlyph name="aacute.ss01" xMin="43" yMin="-13" xMax="481" yMax="707">
      <contour>
        <pt x="319" y="567" on="1"/>
        <pt x="252" y="567" on="1"/>
        <pt x="332" y="707" on="1"/>
        <pt x="421" y="707" on="1"/>
      </contour>
      <contour>
        <pt x="277" y="505" on="1"/>
        <pt x="371" y="505" on="0"/>
        <pt x="481" y="408" on="0"/>
        <pt x="481" y="320" on="1"/>
        <pt x="481" y="0" on="1"/>
        <pt x="407" y="0" on="1"/>
        <pt x="407" y="75" on="1"/>
        <pt x="341" y="-13" on="0"/>
        <pt x="222" y="-13" on="1"/>
        <pt x="141" y="-13" on="0"/>
        <pt x="43" y="71" on="0"/>
        <pt x="43" y="138" on="1"/>
        <pt x="43" y="207" on="0"/>
        <pt x="147" y="292" on="0"/>
        <pt x="241" y="292" on="1"/>
        <pt x="407" y="292" on="1"/>
        <pt x="407" y="315" on="1"/>
        <pt x="407" y="372" on="0"/>
        <pt x="339" y="438" on="0"/>
        <pt x="281" y="438" on="1"/>
        <pt x="225" y="438" on="0"/>
        <pt x="151" y="385" on="0"/>
        <pt x="143" y="339" on="1"/>
        <pt x="70" y="355" on="1"/>
        <pt x="82" y="422" on="0"/>
        <pt x="196" y="505" on="0"/>
      </contour>
      <contour>
        <pt x="233" y="50" on="1"/>
        <pt x="306" y="50" on="0"/>
        <pt x="407" y="140" on="0"/>
        <pt x="407" y="206" on="1"/>
        <pt x="407" y="232" on="1"/>
        <pt x="240" y="232" on="1"/>
        <pt x="181" y="232" on="0"/>
        <pt x="116" y="181" on="0"/>
        <pt x="116" y="139" on="1"/>
        <pt x="116" y="100" on="0"/>
        <pt x="180" y="50" on="0"/>
      </contour>
    </TTGlyph>
    <TTGlyph name="abreve" xMin="38" yMin="-13" xMax="556" yMax="690">
      <contour>
        <pt x="375" y="555" on="0"/>
        <pt x="245" y="555" on="0"/>
        <pt x="165" y="629" on="0"/>
        <pt x="165" y="690" on="1"/>
        <pt x="229" y="690" on="1"/>
        <pt x="229" y="654" on="0"/>
        <pt x="275" y="610" on="0"/>
        <pt x="345" y="610" on="0"/>
        <pt x="391" y="654" on="0"/>
        <pt x="391" y="690" on="1"/>
        <pt x="455" y="690" on="1"/>
        <pt x="455" y="629" on="0"/>
      </contour>
      <contour>
        <pt x="556" y="493" on="1"/>
        <pt x="556" y="0" on="1"/>
        <pt x="480" y="0" on="1"/>
        <pt x="480" y="78" on="1"/>
        <pt x="411" y="-13" on="0"/>
        <pt x="284" y="-13" on="1"/>
        <pt x="183" y="-13" on="0"/>
        <pt x="38" y="132" on="0"/>
        <pt x="38" y="360" on="0"/>
        <pt x="183" y="505" on="0"/>
        <pt x="284" y="505" on="1"/>
        <pt x="411" y="505" on="0"/>
        <pt x="480" y="414" on="1"/>
        <pt x="480" y="493" on="1"/>
      </contour>
      <contour>
        <pt x="296" y="55" on="1"/>
        <pt x="369" y="55" on="0"/>
        <pt x="480" y="162" on="0"/>
        <pt x="480" y="246" on="1"/>
        <pt x="480" y="331" on="0"/>
        <pt x="369" y="438" on="0"/>
        <pt x="296" y="438" on="1"/>
        <pt x="218" y="438" on="0"/>
        <pt x="112" y="332" on="0"/>
        <pt x="112" y="160" on="0"/>
        <pt x="218" y="55" on="0"/>
      </contour>
    </TTGlyph>
    <TTGlyph name="abreve.ss01" xMin="43" yMin="-13" xMax="481" yMax="690">
      <contour>
        <pt x="345" y="555" on="0"/>
        <pt x="215" y="555" on="0"/>
        <pt x="135" y="629" on="0"/>
        <pt x="135" y="690" on="1"/>
        <pt x="199" y="690" on="1"/>
        <pt x="199" y="654" on="0"/>
        <pt x="245" y="610" on="0"/>
        <pt x="315" y="610" on="0"/>
        <pt x="361" y="654" on="0"/>
        <pt x="361" y="690" on="1"/>
        <pt x="425" y="690" on="1"/>
        <pt x="425" y="629" on="0"/>
      </contour>
      <contour>
        <pt x="277" y="505" on="1"/>
        <pt x="371" y="505" on="0"/>
        <pt x="481" y="408" on="0"/>
        <pt x="481" y="320" on="1"/>
        <pt x="481" y="0" on="1"/>
        <pt x="407" y="0" on="1"/>
        <pt x="407" y="75" on="1"/>
        <pt x="341" y="-13" on="0"/>
        <pt x="222" y="-13" on="1"/>
        <pt x="141" y="-13" on="0"/>
        <pt x="43" y="71" on="0"/>
        <pt x="43" y="138" on="1"/>
        <pt x="43" y="207" on="0"/>
        <pt x="147" y="292" on="0"/>
        <pt x="241" y="292" on="1"/>
        <pt x="407" y="292" on="1"/>
        <pt x="407" y="315" on="1"/>
        <pt x="407" y="372" on="0"/>
        <pt x="339" y="438" on="0"/>
        <pt x="281" y="438" on="1"/>
        <pt x="225" y="438" on="0"/>
        <pt x="151" y="385" on="0"/>
        <pt x="143" y="339" on="1"/>
        <pt x="70" y="355" on="1"/>
        <pt x="82" y="422" on="0"/>
        <pt x="196" y="505" on="0"/>
      </contour>
      <contour>
        <pt x="233" y="50" on="1"/>
        <pt x="306" y="50" on="0"/>
        <pt x="407" y="140" on="0"/>
        <pt x="407" y="206" on="1"/>
        <pt x="407" y="232" on="1"/>
        <pt x="240" y="232" on="1"/>
        <pt x="181" y="232" on="0"/>
        <pt x="116" y="181" on="0"/>
        <pt x="116" y="139" on="1"/>
        <pt x="116" y="100" on="0"/>
        <pt x="180" y="50" on="0"/>
      </contour>
    </TTGlyph>
    <TTGlyph name="acircumflex" xMin="38" yMin="-13" xMax="556" yMax="701">
      <contour>
        <pt x="235" y="559" on="1"/>
        <pt x="158" y="559" on="1"/>
        <pt x="274" y="701" on="1"/>
        <pt x="347" y="701" on="1"/>
        <pt x="464" y="559" on="1"/>
        <pt x="386" y="559" on="1"/>
        <pt x="311" y="652" on="1"/>
      </contour>
      <contour>
        <pt x="556" y="493" on="1"/>
        <pt x="556" y="0" on="1"/>
        <pt x="480" y="0" on="1"/>
        <pt x="480" y="78" on="1"/>
        <pt x="411" y="-13" on="0"/>
        <pt x="284" y="-13" on="1"/>
        <pt x="183" y="-13" on="0"/>
        <pt x="38" y="132" on="0"/>
        <pt x="38" y="360" on="0"/>
        <pt x="183" y="505" on="0"/>
        <pt x="284" y="505" on="1"/>
        <pt x="411" y="505" on="0"/>
        <pt x="480" y="414" on="1"/>
        <pt x="480" y="493" on="1"/>
      </contour>
      <contour>
        <pt x="296" y="55" on="1"/>
        <pt x="369" y="55" on="0"/>
        <pt x="480" y="162" on="0"/>
        <pt x="480" y="246" on="1"/>
        <pt x="480" y="331" on="0"/>
        <pt x="369" y="438" on="0"/>
        <pt x="296" y="438" on="1"/>
        <pt x="218" y="438" on="0"/>
        <pt x="112" y="332" on="0"/>
        <pt x="112" y="160" on="0"/>
        <pt x="218" y="55" on="0"/>
      </contour>
    </TTGlyph>
    <TTGlyph name="acircumflex.ss01" xMin="43" yMin="-13" xMax="481" yMax="701">
      <contour>
        <pt x="205" y="559" on="1"/>
        <pt x="128" y="559" on="1"/>
        <pt x="244" y="701" on="1"/>
        <pt x="317" y="701" on="1"/>
        <pt x="434" y="559" on="1"/>
        <pt x="356" y="559" on="1"/>
        <pt x="281" y="652" on="1"/>
      </contour>
      <contour>
        <pt x="277" y="505" on="1"/>
        <pt x="371" y="505" on="0"/>
        <pt x="481" y="408" on="0"/>
        <pt x="481" y="320" on="1"/>
        <pt x="481" y="0" on="1"/>
        <pt x="407" y="0" on="1"/>
        <pt x="407" y="75" on="1"/>
        <pt x="341" y="-13" on="0"/>
        <pt x="222" y="-13" on="1"/>
        <pt x="141" y="-13" on="0"/>
        <pt x="43" y="71" on="0"/>
        <pt x="43" y="138" on="1"/>
        <pt x="43" y="207" on="0"/>
        <pt x="147" y="292" on="0"/>
        <pt x="241" y="292" on="1"/>
        <pt x="407" y="292" on="1"/>
        <pt x="407" y="315" on="1"/>
        <pt x="407" y="372" on="0"/>
        <pt x="339" y="438" on="0"/>
        <pt x="281" y="438" on="1"/>
        <pt x="225" y="438" on="0"/>
        <pt x="151" y="385" on="0"/>
        <pt x="143" y="339" on="1"/>
        <pt x="70" y="355" on="1"/>
        <pt x="82" y="422" on="0"/>
        <pt x="196" y="505" on="0"/>
      </contour>
      <contour>
        <pt x="233" y="50" on="1"/>
        <pt x="306" y="50" on="0"/>
        <pt x="407" y="140" on="0"/>
        <pt x="407" y="206" on="1"/>
        <pt x="407" y="232" on="1"/>
        <pt x="240" y="232" on="1"/>
        <pt x="181" y="232" on="0"/>
        <pt x="116" y="181" on="0"/>
        <pt x="116" y="139" on="1"/>
        <pt x="116" y="100" on="0"/>
        <pt x="180" y="50" on="0"/>
      </contour>
    </TTGlyph>
    <TTGlyph name="acute" xMin="247" yMin="567" xMax="416" yMax="707">
      <contour>
        <pt x="314" y="567" on="1"/>
        <pt x="247" y="567" on="1"/>
        <pt x="327" y="707" on="1"/>
        <pt x="416" y="707" on="1"/>
      </contour>
    </TTGlyph>
    <TTGlyph name="adieresis" xMin="38" yMin="-13" xMax="556" yMax="679">
      <contour>
        <pt x="211" y="577" on="1"/>
        <pt x="189" y="577" on="0"/>
        <pt x="159" y="606" on="0"/>
        <pt x="159" y="628" on="1"/>
        <pt x="159" y="649" on="0"/>
        <pt x="189" y="679" on="0"/>
        <pt x="233" y="679" on="0"/>
        <pt x="264" y="649" on="0"/>
        <pt x="264" y="628" on="1"/>
        <pt x="264" y="606" on="0"/>
        <pt x="234" y="577" on="0"/>
      </contour>
      <contour>
        <pt x="409" y="577" on="1"/>
        <pt x="387" y="577" on="0"/>
        <pt x="357" y="606" on="0"/>
        <pt x="357" y="628" on="1"/>
        <pt x="357" y="649" on="0"/>
        <pt x="387" y="679" on="0"/>
        <pt x="431" y="679" on="0"/>
        <pt x="462" y="649" on="0"/>
        <pt x="462" y="628" on="1"/>
        <pt x="462" y="606" on="0"/>
        <pt x="432" y="577" on="0"/>
      </contour>
      <contour>
        <pt x="556" y="493" on="1"/>
        <pt x="556" y="0" on="1"/>
        <pt x="480" y="0" on="1"/>
        <pt x="480" y="78" on="1"/>
        <pt x="411" y="-13" on="0"/>
        <pt x="284" y="-13" on="1"/>
        <pt x="183" y="-13" on="0"/>
        <pt x="38" y="132" on="0"/>
        <pt x="38" y="360" on="0"/>
        <pt x="183" y="505" on="0"/>
        <pt x="284" y="505" on="1"/>
        <pt x="411" y="505" on="0"/>
        <pt x="480" y="414" on="1"/>
        <pt x="480" y="493" on="1"/>
      </contour>
      <contour>
        <pt x="296" y="55" on="1"/>
        <pt x="369" y="55" on="0"/>
        <pt x="480" y="162" on="0"/>
        <pt x="480" y="246" on="1"/>
        <pt x="480" y="331" on="0"/>
        <pt x="369" y="438" on="0"/>
        <pt x="296" y="438" on="1"/>
        <pt x="218" y="438" on="0"/>
        <pt x="112" y="332" on="0"/>
        <pt x="112" y="160" on="0"/>
        <pt x="218" y="55" on="0"/>
      </contour>
    </TTGlyph>
    <TTGlyph name="adieresis.ss01" xMin="43" yMin="-13" xMax="481" yMax="679">
      <contour>
        <pt x="181" y="577" on="1"/>
        <pt x="159" y="577" on="0"/>
        <pt x="129" y="606" on="0"/>
        <pt x="129" y="628" on="1"/>
        <pt x="129" y="649" on="0"/>
        <pt x="159" y="679" on="0"/>
        <pt x="203" y="679" on="0"/>
        <pt x="234" y="649" on="0"/>
        <pt x="234" y="628" on="1"/>
        <pt x="234" y="606" on="0"/>
        <pt x="204" y="577" on="0"/>
      </contour>
      <contour>
        <pt x="379" y="577" on="1"/>
        <pt x="357" y="577" on="0"/>
        <pt x="327" y="606" on="0"/>
        <pt x="327" y="628" on="1"/>
        <pt x="327" y="649" on="0"/>
        <pt x="357" y="679" on="0"/>
        <pt x="401" y="679" on="0"/>
        <pt x="432" y="649" on="0"/>
        <pt x="432" y="628" on="1"/>
        <pt x="432" y="606" on="0"/>
        <pt x="402" y="577" on="0"/>
      </contour>
      <contour>
        <pt x="277" y="505" on="1"/>
        <pt x="371" y="505" on="0"/>
        <pt x="481" y="408" on="0"/>
        <pt x="481" y="320" on="1"/>
        <pt x="481" y="0" on="1"/>
        <pt x="407" y="0" on="1"/>
        <pt x="407" y="75" on="1"/>
        <pt x="341" y="-13" on="0"/>
        <pt x="222" y="-13" on="1"/>
        <pt x="141" y="-13" on="0"/>
        <pt x="43" y="71" on="0"/>
        <pt x="43" y="138" on="1"/>
        <pt x="43" y="207" on="0"/>
        <pt x="147" y="292" on="0"/>
        <pt x="241" y="292" on="1"/>
        <pt x="407" y="292" on="1"/>
        <pt x="407" y="315" on="1"/>
        <pt x="407" y="372" on="0"/>
        <pt x="339" y="438" on="0"/>
        <pt x="281" y="438" on="1"/>
        <pt x="225" y="438" on="0"/>
        <pt x="151" y="385" on="0"/>
        <pt x="143" y="339" on="1"/>
        <pt x="70" y="355" on="1"/>
        <pt x="82" y="422" on="0"/>
        <pt x="196" y="505" on="0"/>
      </contour>
      <contour>
        <pt x="233" y="50" on="1"/>
        <pt x="306" y="50" on="0"/>
        <pt x="407" y="140" on="0"/>
        <pt x="407" y="206" on="1"/>
        <pt x="407" y="232" on="1"/>
        <pt x="240" y="232" on="1"/>
        <pt x="181" y="232" on="0"/>
        <pt x="116" y="181" on="0"/>
        <pt x="116" y="139" on="1"/>
        <pt x="116" y="100" on="0"/>
        <pt x="180" y="50" on="0"/>
      </contour>
    </TTGlyph>
    <TTGlyph name="ae" xMin="43" yMin="-13" xMax="885" yMax="505">
      <contour>
        <pt x="885" y="222" on="1"/>
        <pt x="480" y="222" on="1"/>
        <pt x="487" y="144" on="0"/>
        <pt x="579" y="54" on="0"/>
        <pt x="651" y="54" on="1"/>
        <pt x="696" y="54" on="0"/>
        <pt x="785" y="108" on="0"/>
        <pt x="805" y="160" on="1"/>
        <pt x="874" y="144" on="1"/>
        <pt x="855" y="75" on="0"/>
        <pt x="727" y="-13" on="0"/>
        <pt x="650" y="-13" on="1"/>
        <pt x="507" y="-13" on="0"/>
        <pt x="441" y="107" on="1"/>
        <pt x="413" y="52" on="0"/>
        <pt x="300" y="-13" on="0"/>
        <pt x="229" y="-13" on="1"/>
        <pt x="140" y="-13" on="0"/>
        <pt x="43" y="71" on="0"/>
        <pt x="43" y="136" on="1"/>
        <pt x="43" y="203" on="0"/>
        <pt x="145" y="279" on="0"/>
        <pt x="234" y="279" on="1"/>
        <pt x="409" y="279" on="1"/>
        <pt x="409" y="320" on="1"/>
        <pt x="409" y="374" on="0"/>
        <pt x="337" y="440" on="0"/>
        <pt x="279" y="440" on="1"/>
        <pt x="220" y="440" on="0"/>
        <pt x="148" y="386" on="0"/>
        <pt x="140" y="339" on="1"/>
        <pt x="70" y="354" on="1"/>
        <pt x="78" y="422" on="0"/>
        <pt x="190" y="505" on="0"/>
        <pt x="280" y="505" on="1"/>
        <pt x="341" y="505" on="0"/>
        <pt x="435" y="455" on="0"/>
        <pt x="457" y="409" on="1"/>
        <pt x="526" y="505" on="0"/>
        <pt x="648" y="505" on="1"/>
        <pt x="749" y="505" on="0"/>
        <pt x="884" y="361" on="0"/>
        <pt x="885" y="249" on="1"/>
      </contour>
      <contour>
        <pt x="479" y="279" on="1"/>
        <pt x="807" y="279" on="1"/>
        <pt x="799" y="353" on="0"/>
        <pt x="713" y="440" on="0"/>
        <pt x="651" y="440" on="1"/>
        <pt x="584" y="440" on="0"/>
        <pt x="486" y="353" on="0"/>
      </contour>
      <contour>
        <pt x="409" y="222" on="1"/>
        <pt x="234" y="222" on="1"/>
        <pt x="179" y="222" on="0"/>
        <pt x="116" y="178" on="0"/>
        <pt x="116" y="139" on="1"/>
        <pt x="116" y="99" on="0"/>
        <pt x="180" y="50" on="0"/>
        <pt x="237" y="50" on="1"/>
        <pt x="308" y="50" on="0"/>
        <pt x="409" y="142" on="0"/>
        <pt x="409" y="212" on="1"/>
      </contour>
    </TTGlyph>
    <TTGlyph name="aeacute" xMin="43" yMin="-13" xMax="885" yMax="707">
      <contour>
        <pt x="497" y="567" on="1"/>
        <pt x="430" y="567" on="1"/>
        <pt x="510" y="707" on="1"/>
        <pt x="599" y="707" on="1"/>
      </contour>
      <contour>
        <pt x="885" y="222" on="1"/>
        <pt x="480" y="222" on="1"/>
        <pt x="487" y="144" on="0"/>
        <pt x="579" y="54" on="0"/>
        <pt x="651" y="54" on="1"/>
        <pt x="696" y="54" on="0"/>
        <pt x="785" y="108" on="0"/>
        <pt x="805" y="160" on="1"/>
        <pt x="874" y="144" on="1"/>
        <pt x="855" y="75" on="0"/>
        <pt x="727" y="-13" on="0"/>
        <pt x="650" y="-13" on="1"/>
        <pt x="507" y="-13" on="0"/>
        <pt x="441" y="107" on="1"/>
        <pt x="413" y="52" on="0"/>
        <pt x="300" y="-13" on="0"/>
        <pt x="229" y="-13" on="1"/>
        <pt x="140" y="-13" on="0"/>
        <pt x="43" y="71" on="0"/>
        <pt x="43" y="136" on="1"/>
        <pt x="43" y="203" on="0"/>
        <pt x="145" y="279" on="0"/>
        <pt x="234" y="279" on="1"/>
        <pt x="409" y="279" on="1"/>
        <pt x="409" y="320" on="1"/>
        <pt x="409" y="374" on="0"/>
        <pt x="337" y="440" on="0"/>
        <pt x="279" y="440" on="1"/>
        <pt x="220" y="440" on="0"/>
        <pt x="148" y="386" on="0"/>
        <pt x="140" y="339" on="1"/>
        <pt x="70" y="354" on="1"/>
        <pt x="78" y="422" on="0"/>
        <pt x="190" y="505" on="0"/>
        <pt x="280" y="505" on="1"/>
        <pt x="341" y="505" on="0"/>
        <pt x="435" y="455" on="0"/>
        <pt x="457" y="409" on="1"/>
        <pt x="526" y="505" on="0"/>
        <pt x="648" y="505" on="1"/>
        <pt x="749" y="505" on="0"/>
        <pt x="884" y="361" on="0"/>
        <pt x="885" y="249" on="1"/>
      </contour>
      <contour>
        <pt x="479" y="279" on="1"/>
        <pt x="807" y="279" on="1"/>
        <pt x="799" y="353" on="0"/>
        <pt x="713" y="440" on="0"/>
        <pt x="651" y="440" on="1"/>
        <pt x="584" y="440" on="0"/>
        <pt x="486" y="353" on="0"/>
      </contour>
      <contour>
        <pt x="409" y="222" on="1"/>
        <pt x="234" y="222" on="1"/>
        <pt x="179" y="222" on="0"/>
        <pt x="116" y="178" on="0"/>
        <pt x="116" y="139" on="1"/>
        <pt x="116" y="99" on="0"/>
        <pt x="180" y="50" on="0"/>
        <pt x="237" y="50" on="1"/>
        <pt x="308" y="50" on="0"/>
        <pt x="409" y="142" on="0"/>
        <pt x="409" y="212" on="1"/>
      </contour>
    </TTGlyph>
    <TTGlyph name="agrave" xMin="38" yMin="-13" xMax="556" yMax="707">
      <contour>
        <pt x="275" y="567" on="1"/>
        <pt x="173" y="707" on="1"/>
        <pt x="262" y="707" on="1"/>
        <pt x="341" y="567" on="1"/>
      </contour>
      <contour>
        <pt x="556" y="493" on="1"/>
        <pt x="556" y="0" on="1"/>
        <pt x="480" y="0" on="1"/>
        <pt x="480" y="78" on="1"/>
        <pt x="411" y="-13" on="0"/>
        <pt x="284" y="-13" on="1"/>
        <pt x="183" y="-13" on="0"/>
        <pt x="38" y="132" on="0"/>
        <pt x="38" y="360" on="0"/>
        <pt x="183" y="505" on="0"/>
        <pt x="284" y="505" on="1"/>
        <pt x="411" y="505" on="0"/>
        <pt x="480" y="414" on="1"/>
        <pt x="480" y="493" on="1"/>
      </contour>
      <contour>
        <pt x="296" y="55" on="1"/>
        <pt x="369" y="55" on="0"/>
        <pt x="480" y="162" on="0"/>
        <pt x="480" y="246" on="1"/>
        <pt x="480" y="331" on="0"/>
        <pt x="369" y="438" on="0"/>
        <pt x="296" y="438" on="1"/>
        <pt x="218" y="438" on="0"/>
        <pt x="112" y="332" on="0"/>
        <pt x="112" y="160" on="0"/>
        <pt x="218" y="55" on="0"/>
      </contour>
    </TTGlyph>
    <TTGlyph name="agrave.ss01" xMin="43" yMin="-13" xMax="481" yMax="707">
      <contour>
        <pt x="245" y="567" on="1"/>
        <pt x="143" y="707" on="1"/>
        <pt x="232" y="707" on="1"/>
        <pt x="311" y="567" on="1"/>
      </contour>
      <contour>
        <pt x="277" y="505" on="1"/>
        <pt x="371" y="505" on="0"/>
        <pt x="481" y="408" on="0"/>
        <pt x="481" y="320" on="1"/>
        <pt x="481" y="0" on="1"/>
        <pt x="407" y="0" on="1"/>
        <pt x="407" y="75" on="1"/>
        <pt x="341" y="-13" on="0"/>
        <pt x="222" y="-13" on="1"/>
        <pt x="141" y="-13" on="0"/>
        <pt x="43" y="71" on="0"/>
        <pt x="43" y="138" on="1"/>
        <pt x="43" y="207" on="0"/>
        <pt x="147" y="292" on="0"/>
        <pt x="241" y="292" on="1"/>
        <pt x="407" y="292" on="1"/>
        <pt x="407" y="315" on="1"/>
        <pt x="407" y="372" on="0"/>
        <pt x="339" y="438" on="0"/>
        <pt x="281" y="438" on="1"/>
        <pt x="225" y="438" on="0"/>
        <pt x="151" y="385" on="0"/>
        <pt x="143" y="339" on="1"/>
        <pt x="70" y="355" on="1"/>
        <pt x="82" y="422" on="0"/>
        <pt x="196" y="505" on="0"/>
      </contour>
      <contour>
        <pt x="233" y="50" on="1"/>
        <pt x="306" y="50" on="0"/>
        <pt x="407" y="140" on="0"/>
        <pt x="407" y="206" on="1"/>
        <pt x="407" y="232" on="1"/>
        <pt x="240" y="232" on="1"/>
        <pt x="181" y="232" on="0"/>
        <pt x="116" y="181" on="0"/>
        <pt x="116" y="139" on="1"/>
        <pt x="116" y="100" on="0"/>
        <pt x="180" y="50" on="0"/>
      </contour>
    </TTGlyph>
    <TTGlyph name="amacron" xMin="38" yMin="-13" xMax="556" yMax="646">
      <contour>
        <pt x="452" y="584" on="1"/>
        <pt x="168" y="584" on="1"/>
        <pt x="168" y="646" on="1"/>
        <pt x="452" y="646" on="1"/>
      </contour>
      <contour>
        <pt x="556" y="493" on="1"/>
        <pt x="556" y="0" on="1"/>
        <pt x="480" y="0" on="1"/>
        <pt x="480" y="78" on="1"/>
        <pt x="411" y="-13" on="0"/>
        <pt x="284" y="-13" on="1"/>
        <pt x="183" y="-13" on="0"/>
        <pt x="38" y="132" on="0"/>
        <pt x="38" y="360" on="0"/>
        <pt x="183" y="505" on="0"/>
        <pt x="284" y="505" on="1"/>
        <pt x="411" y="505" on="0"/>
        <pt x="480" y="414" on="1"/>
        <pt x="480" y="493" on="1"/>
      </contour>
      <contour>
        <pt x="296" y="55" on="1"/>
        <pt x="369" y="55" on="0"/>
        <pt x="480" y="162" on="0"/>
        <pt x="480" y="246" on="1"/>
        <pt x="480" y="331" on="0"/>
        <pt x="369" y="438" on="0"/>
        <pt x="296" y="438" on="1"/>
        <pt x="218" y="438" on="0"/>
        <pt x="112" y="332" on="0"/>
        <pt x="112" y="160" on="0"/>
        <pt x="218" y="55" on="0"/>
      </contour>
    </TTGlyph>
    <TTGlyph name="amacron.ss01" xMin="43" yMin="-13" xMax="481" yMax="646">
      <contour>
        <pt x="422" y="584" on="1"/>
        <pt x="138" y="584" on="1"/>
        <pt x="138" y="646" on="1"/>
        <pt x="422" y="646" on="1"/>
      </contour>
      <contour>
        <pt x="277" y="505" on="1"/>
        <pt x="371" y="505" on="0"/>
        <pt x="481" y="408" on="0"/>
        <pt x="481" y="320" on="1"/>
        <pt x="481" y="0" on="1"/>
        <pt x="407" y="0" on="1"/>
        <pt x="407" y="75" on="1"/>
        <pt x="341" y="-13" on="0"/>
        <pt x="222" y="-13" on="1"/>
        <pt x="141" y="-13" on="0"/>
        <pt x="43" y="71" on="0"/>
        <pt x="43" y="138" on="1"/>
        <pt x="43" y="207" on="0"/>
        <pt x="147" y="292" on="0"/>
        <pt x="241" y="292" on="1"/>
        <pt x="407" y="292" on="1"/>
        <pt x="407" y="315" on="1"/>
        <pt x="407" y="372" on="0"/>
        <pt x="339" y="438" on="0"/>
        <pt x="281" y="438" on="1"/>
        <pt x="225" y="438" on="0"/>
        <pt x="151" y="385" on="0"/>
        <pt x="143" y="339" on="1"/>
        <pt x="70" y="355" on="1"/>
        <pt x="82" y="422" on="0"/>
        <pt x="196" y="505" on="0"/>
      </contour>
      <contour>
        <pt x="233" y="50" on="1"/>
        <pt x="306" y="50" on="0"/>
        <pt x="407" y="140" on="0"/>
        <pt x="407" y="206" on="1"/>
        <pt x="407" y="232" on="1"/>
        <pt x="240" y="232" on="1"/>
        <pt x="181" y="232" on="0"/>
        <pt x="116" y="181" on="0"/>
        <pt x="116" y="139" on="1"/>
        <pt x="116" y="100" on="0"/>
        <pt x="180" y="50" on="0"/>
      </contour>
    </TTGlyph>
    <TTGlyph name="ampersand" xMin="64" yMin="-20" xMax="686" yMax="683">
      <contour>
        <pt x="641" y="-20" on="1"/>
        <pt x="528" y="76" on="1"/>
        <pt x="445" y="-13" on="0"/>
        <pt x="312" y="-13" on="1"/>
        <pt x="200" y="-13" on="0"/>
        <pt x="64" y="97" on="0"/>
        <pt x="64" y="187" on="1"/>
        <pt x="64" y="247" on="0"/>
        <pt x="134" y="341" on="0"/>
        <pt x="193" y="369" on="1"/>
        <pt x="136" y="435" on="0"/>
        <pt x="136" y="507" on="1"/>
        <pt x="136" y="585" on="0"/>
        <pt x="244" y="683" on="0"/>
        <pt x="329" y="683" on="1"/>
        <pt x="411" y="683" on="0"/>
        <pt x="514" y="589" on="0"/>
        <pt x="525" y="507" on="1"/>
        <pt x="453" y="493" on="1"/>
        <pt x="447" y="557" on="0"/>
        <pt x="381" y="618" on="0"/>
        <pt x="329" y="618" on="1"/>
        <pt x="276" y="618" on="0"/>
        <pt x="210" y="557" on="0"/>
        <pt x="210" y="506" on="1"/>
        <pt x="210" y="459" on="0"/>
        <pt x="274" y="376" on="0"/>
        <pt x="355" y="310" on="1"/>
        <pt x="513" y="178" on="1"/>
        <pt x="537" y="231" on="0"/>
        <pt x="537" y="297" on="1"/>
        <pt x="537" y="340" on="1"/>
        <pt x="605" y="340" on="1"/>
        <pt x="605" y="297" on="1"/>
        <pt x="605" y="203" on="0"/>
        <pt x="567" y="132" on="1"/>
        <pt x="686" y="33" on="1"/>
      </contour>
      <contour>
        <pt x="312" y="53" on="1"/>
        <pt x="409" y="53" on="0"/>
        <pt x="474" y="121" on="1"/>
        <pt x="297" y="271" on="1"/>
        <pt x="237" y="322" on="1"/>
        <pt x="190" y="301" on="0"/>
        <pt x="138" y="231" on="0"/>
        <pt x="138" y="187" on="1"/>
        <pt x="138" y="126" on="0"/>
        <pt x="234" y="53" on="0"/>
      </contour>
    </TTGlyph>
    <TTGlyph name="aogonek" xMin="38" yMin="-200" xMax="581" yMax="505">
      <contour>
        <pt x="575" y="-135" on="1"/>
        <pt x="581" y="-185" on="1"/>
        <pt x="542" y="-200" on="0"/>
        <pt x="513" y="-200" on="1"/>
        <pt x="478" y="-200" on="0"/>
        <pt x="429" y="-160" on="0"/>
        <pt x="429" y="-117" on="1"/>
        <pt x="429" y="-62" on="0"/>
        <pt x="499" y="0" on="1"/>
        <pt x="480" y="0" on="1"/>
        <pt x="480" y="78" on="1"/>
        <pt x="411" y="-13" on="0"/>
        <pt x="284" y="-13" on="1"/>
        <pt x="183" y="-13" on="0"/>
        <pt x="38" y="132" on="0"/>
        <pt x="38" y="360" on="0"/>
        <pt x="183" y="505" on="0"/>
        <pt x="284" y="505" on="1"/>
        <pt x="411" y="505" on="0"/>
        <pt x="480" y="414" on="1"/>
        <pt x="480" y="493" on="1"/>
        <pt x="556" y="493" on="1"/>
        <pt x="556" y="0" on="1"/>
        <pt x="515" y="-43" on="0"/>
        <pt x="487" y="-83" on="0"/>
        <pt x="487" y="-105" on="1"/>
        <pt x="487" y="-145" on="0"/>
        <pt x="529" y="-145" on="1"/>
        <pt x="542" y="-145" on="0"/>
      </contour>
      <contour>
        <pt x="296" y="55" on="1"/>
        <pt x="369" y="55" on="0"/>
        <pt x="480" y="162" on="0"/>
        <pt x="480" y="246" on="1"/>
        <pt x="480" y="331" on="0"/>
        <pt x="369" y="438" on="0"/>
        <pt x="296" y="438" on="1"/>
        <pt x="218" y="438" on="0"/>
        <pt x="112" y="332" on="0"/>
        <pt x="112" y="160" on="0"/>
        <pt x="218" y="55" on="0"/>
      </contour>
    </TTGlyph>
    <TTGlyph name="aogonek.ss01" xMin="43" yMin="-200" xMax="508" yMax="505">
      <contour>
        <pt x="502" y="-135" on="1"/>
        <pt x="508" y="-185" on="1"/>
        <pt x="469" y="-200" on="0"/>
        <pt x="440" y="-200" on="1"/>
        <pt x="405" y="-200" on="0"/>
        <pt x="356" y="-160" on="0"/>
        <pt x="356" y="-117" on="1"/>
        <pt x="356" y="-62" on="0"/>
        <pt x="426" y="0" on="1"/>
        <pt x="407" y="0" on="1"/>
        <pt x="407" y="75" on="1"/>
        <pt x="341" y="-13" on="0"/>
        <pt x="222" y="-13" on="1"/>
        <pt x="141" y="-13" on="0"/>
        <pt x="43" y="71" on="0"/>
        <pt x="43" y="138" on="1"/>
        <pt x="43" y="207" on="0"/>
        <pt x="147" y="292" on="0"/>
        <pt x="241" y="292" on="1"/>
        <pt x="407" y="292" on="1"/>
        <pt x="407" y="315" on="1"/>
        <pt x="407" y="372" on="0"/>
        <pt x="339" y="438" on="0"/>
        <pt x="281" y="438" on="1"/>
        <pt x="225" y="438" on="0"/>
        <pt x="151" y="385" on="0"/>
        <pt x="143" y="339" on="1"/>
        <pt x="70" y="355" on="1"/>
        <pt x="82" y="422" on="0"/>
        <pt x="196" y="505" on="0"/>
        <pt x="277" y="505" on="1"/>
        <pt x="371" y="505" on="0"/>
        <pt x="481" y="408" on="0"/>
        <pt x="481" y="320" on="1"/>
        <pt x="481" y="0" on="1"/>
        <pt x="483" y="0" on="1"/>
        <pt x="442" y="-43" on="0"/>
        <pt x="414" y="-83" on="0"/>
        <pt x="414" y="-105" on="1"/>
        <pt x="414" y="-145" on="0"/>
        <pt x="456" y="-145" on="1"/>
        <pt x="469" y="-145" on="0"/>
      </contour>
      <contour>
        <pt x="233" y="50" on="1"/>
        <pt x="306" y="50" on="0"/>
        <pt x="407" y="140" on="0"/>
        <pt x="407" y="206" on="1"/>
        <pt x="407" y="232" on="1"/>
        <pt x="240" y="232" on="1"/>
        <pt x="181" y="232" on="0"/>
        <pt x="116" y="181" on="0"/>
        <pt x="116" y="139" on="1"/>
        <pt x="116" y="100" on="0"/>
        <pt x="180" y="50" on="0"/>
      </contour>
    </TTGlyph>
    <TTGlyph name="approxequal" xMin="70" yMin="185" xMax="510" yMax="463">
      <contour>
        <pt x="510" y="433" on="1"/>
        <pt x="510" y="365" on="1"/>
        <pt x="471" y="344" on="0"/>
        <pt x="412" y="344" on="1"/>
        <pt x="361" y="344" on="0"/>
        <pt x="230" y="398" on="0"/>
        <pt x="183" y="398" on="1"/>
        <pt x="107" y="398" on="0"/>
        <pt x="70" y="365" on="1"/>
        <pt x="70" y="431" on="1"/>
        <pt x="110" y="463" on="0"/>
        <pt x="183" y="463" on="1"/>
        <pt x="232" y="463" on="0"/>
        <pt x="366" y="408" on="0"/>
        <pt x="413" y="408" on="1"/>
        <pt x="473" y="408" on="0"/>
      </contour>
      <contour>
        <pt x="510" y="274" on="1"/>
        <pt x="510" y="207" on="1"/>
        <pt x="469" y="185" on="0"/>
        <pt x="412" y="185" on="1"/>
        <pt x="361" y="185" on="0"/>
        <pt x="230" y="240" on="0"/>
        <pt x="183" y="240" on="1"/>
        <pt x="109" y="240" on="0"/>
        <pt x="70" y="207" on="1"/>
        <pt x="70" y="273" on="1"/>
        <pt x="110" y="305" on="0"/>
        <pt x="183" y="305" on="1"/>
        <pt x="232" y="305" on="0"/>
        <pt x="366" y="250" on="0"/>
        <pt x="413" y="250" on="1"/>
        <pt x="473" y="250" on="0"/>
      </contour>
    </TTGlyph>
    <TTGlyph name="approxequal.tf" xMin="85" yMin="185" xMax="525" yMax="463">
      <contour>
        <pt x="525" y="433" on="1"/>
        <pt x="525" y="365" on="1"/>
        <pt x="486" y="344" on="0"/>
        <pt x="427" y="344" on="1"/>
        <pt x="376" y="344" on="0"/>
        <pt x="245" y="398" on="0"/>
        <pt x="198" y="398" on="1"/>
        <pt x="122" y="398" on="0"/>
        <pt x="85" y="365" on="1"/>
        <pt x="85" y="431" on="1"/>
        <pt x="125" y="463" on="0"/>
        <pt x="198" y="463" on="1"/>
        <pt x="247" y="463" on="0"/>
        <pt x="381" y="408" on="0"/>
        <pt x="428" y="408" on="1"/>
        <pt x="488" y="408" on="0"/>
      </contour>
      <contour>
        <pt x="525" y="274" on="1"/>
        <pt x="525" y="207" on="1"/>
        <pt x="484" y="185" on="0"/>
        <pt x="427" y="185" on="1"/>
        <pt x="376" y="185" on="0"/>
        <pt x="245" y="240" on="0"/>
        <pt x="198" y="240" on="1"/>
        <pt x="124" y="240" on="0"/>
        <pt x="85" y="207" on="1"/>
        <pt x="85" y="273" on="1"/>
        <pt x="125" y="305" on="0"/>
        <pt x="198" y="305" on="1"/>
        <pt x="247" y="305" on="0"/>
        <pt x="381" y="250" on="0"/>
        <pt x="428" y="250" on="1"/>
        <pt x="488" y="250" on="0"/>
      </contour>
    </TTGlyph>
    <TTGlyph name="aring" xMin="38" yMin="-13" xMax="556" yMax="751">
      <contour>
        <pt x="353" y="550" on="0"/>
        <pt x="267" y="550" on="0"/>
        <pt x="207" y="609" on="0"/>
        <pt x="207" y="651" on="1"/>
        <pt x="207" y="692" on="0"/>
        <pt x="267" y="751" on="0"/>
        <pt x="353" y="751" on="0"/>
        <pt x="414" y="692" on="0"/>
        <pt x="414" y="651" on="1"/>
        <pt x="414" y="609" on="0"/>
      </contour>
      <contour>
        <pt x="310" y="705" on="1"/>
        <pt x="287" y="705" on="0"/>
        <pt x="254" y="673" on="0"/>
        <pt x="254" y="629" on="0"/>
        <pt x="287" y="597" on="0"/>
        <pt x="310" y="597" on="1"/>
        <pt x="334" y="597" on="0"/>
        <pt x="366" y="628" on="0"/>
        <pt x="366" y="651" on="1"/>
        <pt x="366" y="673" on="0"/>
        <pt x="334" y="705" on="0"/>
      </contour>
      <contour>
        <pt x="556" y="493" on="1"/>
        <pt x="556" y="0" on="1"/>
        <pt x="480" y="0" on="1"/>
        <pt x="480" y="78" on="1"/>
        <pt x="411" y="-13" on="0"/>
        <pt x="284" y="-13" on="1"/>
        <pt x="183" y="-13" on="0"/>
        <pt x="38" y="132" on="0"/>
        <pt x="38" y="360" on="0"/>
        <pt x="183" y="505" on="0"/>
        <pt x="284" y="505" on="1"/>
        <pt x="411" y="505" on="0"/>
        <pt x="480" y="414" on="1"/>
        <pt x="480" y="493" on="1"/>
      </contour>
      <contour>
        <pt x="296" y="55" on="1"/>
        <pt x="369" y="55" on="0"/>
        <pt x="480" y="162" on="0"/>
        <pt x="480" y="246" on="1"/>
        <pt x="480" y="331" on="0"/>
        <pt x="369" y="438" on="0"/>
        <pt x="296" y="438" on="1"/>
        <pt x="218" y="438" on="0"/>
        <pt x="112" y="332" on="0"/>
        <pt x="112" y="160" on="0"/>
        <pt x="218" y="55" on="0"/>
      </contour>
    </TTGlyph>
    <TTGlyph name="aring.ss01" xMin="43" yMin="-13" xMax="481" yMax="751">
      <contour>
        <pt x="323" y="550" on="0"/>
        <pt x="237" y="550" on="0"/>
        <pt x="177" y="609" on="0"/>
        <pt x="177" y="651" on="1"/>
        <pt x="177" y="692" on="0"/>
        <pt x="237" y="751" on="0"/>
        <pt x="323" y="751" on="0"/>
        <pt x="384" y="692" on="0"/>
        <pt x="384" y="651" on="1"/>
        <pt x="384" y="609" on="0"/>
      </contour>
      <contour>
        <pt x="280" y="705" on="1"/>
        <pt x="257" y="705" on="0"/>
        <pt x="224" y="673" on="0"/>
        <pt x="224" y="629" on="0"/>
        <pt x="257" y="597" on="0"/>
        <pt x="280" y="597" on="1"/>
        <pt x="304" y="597" on="0"/>
        <pt x="336" y="628" on="0"/>
        <pt x="336" y="651" on="1"/>
        <pt x="336" y="673" on="0"/>
        <pt x="304" y="705" on="0"/>
      </contour>
      <contour>
        <pt x="277" y="505" on="1"/>
        <pt x="371" y="505" on="0"/>
        <pt x="481" y="408" on="0"/>
        <pt x="481" y="320" on="1"/>
        <pt x="481" y="0" on="1"/>
        <pt x="407" y="0" on="1"/>
        <pt x="407" y="75" on="1"/>
        <pt x="341" y="-13" on="0"/>
        <pt x="222" y="-13" on="1"/>
        <pt x="141" y="-13" on="0"/>
        <pt x="43" y="71" on="0"/>
        <pt x="43" y="138" on="1"/>
        <pt x="43" y="207" on="0"/>
        <pt x="147" y="292" on="0"/>
        <pt x="241" y="292" on="1"/>
        <pt x="407" y="292" on="1"/>
        <pt x="407" y="315" on="1"/>
        <pt x="407" y="372" on="0"/>
        <pt x="339" y="438" on="0"/>
        <pt x="281" y="438" on="1"/>
        <pt x="225" y="438" on="0"/>
        <pt x="151" y="385" on="0"/>
        <pt x="143" y="339" on="1"/>
        <pt x="70" y="355" on="1"/>
        <pt x="82" y="422" on="0"/>
        <pt x="196" y="505" on="0"/>
      </contour>
      <contour>
        <pt x="233" y="50" on="1"/>
        <pt x="306" y="50" on="0"/>
        <pt x="407" y="140" on="0"/>
        <pt x="407" y="206" on="1"/>
        <pt x="407" y="232" on="1"/>
        <pt x="240" y="232" on="1"/>
        <pt x="181" y="232" on="0"/>
        <pt x="116" y="181" on="0"/>
        <pt x="116" y="139" on="1"/>
        <pt x="116" y="100" on="0"/>
        <pt x="180" y="50" on="0"/>
      </contour>
    </TTGlyph>
    <TTGlyph name="arrowdown" xMin="40" yMin="-7" xMax="708" yMax="670">
      <contour>
        <pt x="708" y="327" on="1"/>
        <pt x="374" y="-7" on="1"/>
        <pt x="40" y="327" on="1"/>
        <pt x="97" y="383" on="1"/>
        <pt x="335" y="144" on="1"/>
        <pt x="335" y="670" on="1"/>
        <pt x="414" y="670" on="1"/>
        <pt x="414" y="145" on="1"/>
        <pt x="651" y="383" on="1"/>
      </contour>
    </TTGlyph>
    <TTGlyph name="arrowleft" xMin="10" yMin="-10" xMax="687" yMax="658">
      <contour>
        <pt x="687" y="285" on="1"/>
        <pt x="161" y="285" on="1"/>
        <pt x="400" y="47" on="1"/>
        <pt x="344" y="-10" on="1"/>
        <pt x="10" y="324" on="1"/>
        <pt x="344" y="658" on="1"/>
        <pt x="400" y="602" on="1"/>
        <pt x="162" y="364" on="1"/>
        <pt x="687" y="364" on="1"/>
      </contour>
    </TTGlyph>
    <TTGlyph name="arrowright" xMin="40" yMin="-10" xMax="717" yMax="658">
      <contour>
        <pt x="717" y="324" on="1"/>
        <pt x="384" y="-10" on="1"/>
        <pt x="328" y="47" on="1"/>
        <pt x="566" y="285" on="1"/>
        <pt x="40" y="285" on="1"/>
        <pt x="40" y="364" on="1"/>
        <pt x="565" y="364" on="1"/>
        <pt x="327" y="602" on="1"/>
        <pt x="383" y="658" on="1"/>
      </contour>
    </TTGlyph>
    <TTGlyph name="arrowup" xMin="40" yMin="0" xMax="708" yMax="677">
      <contour>
        <pt x="651" y="288" on="1"/>
        <pt x="414" y="525" on="1"/>
        <pt x="414" y="0" on="1"/>
        <pt x="335" y="0" on="1"/>
        <pt x="335" y="526" on="1"/>
        <pt x="97" y="287" on="1"/>
        <pt x="40" y="343" on="1"/>
        <pt x="374" y="677" on="1"/>
        <pt x="708" y="344" on="1"/>
      </contour>
    </TTGlyph>
    <TTGlyph name="asciicircum" xMin="25" yMin="456" xMax="369" yMax="670">
      <contour>
        <pt x="95" y="456" on="1"/>
        <pt x="25" y="456" on="1"/>
        <pt x="170" y="670" on="1"/>
        <pt x="224" y="670" on="1"/>
        <pt x="369" y="456" on="1"/>
        <pt x="299" y="456" on="1"/>
        <pt x="197" y="604" on="1"/>
      </contour>
    </TTGlyph>
    <TTGlyph name="asciitilde" xMin="45" yMin="235" xMax="433" yMax="366">
      <contour>
        <pt x="108" y="238" on="1"/>
        <pt x="45" y="238" on="1"/>
        <pt x="45" y="303" on="0"/>
        <pt x="111" y="366" on="0"/>
        <pt x="156" y="366" on="1"/>
        <pt x="197" y="366" on="0"/>
        <pt x="288" y="302" on="0"/>
        <pt x="338" y="302" on="0"/>
        <pt x="367" y="336" on="0"/>
        <pt x="366" y="365" on="1"/>
        <pt x="433" y="365" on="1"/>
        <pt x="433" y="299" on="0"/>
        <pt x="364" y="235" on="0"/>
        <pt x="318" y="235" on="1"/>
        <pt x="277" y="235" on="0"/>
        <pt x="186" y="299" on="0"/>
        <pt x="162" y="299" on="1"/>
        <pt x="136" y="299" on="0"/>
        <pt x="106" y="265" on="0"/>
      </contour>
    </TTGlyph>
    <TTGlyph name="asterisk" xMin="42" yMin="367" xMax="385" yMax="720">
      <contour>
        <pt x="265" y="544" on="1"/>
        <pt x="385" y="475" on="1"/>
        <pt x="359" y="431" on="1"/>
        <pt x="241" y="499" on="1"/>
        <pt x="241" y="367" on="1"/>
        <pt x="186" y="367" on="1"/>
        <pt x="186" y="499" on="1"/>
        <pt x="68" y="431" on="1"/>
        <pt x="42" y="475" on="1"/>
        <pt x="162" y="544" on="1"/>
        <pt x="42" y="613" on="1"/>
        <pt x="68" y="657" on="1"/>
        <pt x="186" y="589" on="1"/>
        <pt x="186" y="720" on="1"/>
        <pt x="241" y="720" on="1"/>
        <pt x="241" y="589" on="1"/>
        <pt x="359" y="657" on="1"/>
        <pt x="385" y="613" on="1"/>
      </contour>
    </TTGlyph>
    <TTGlyph name="at" xMin="65" yMin="-127" xMax="894" yMax="683">
      <contour>
        <pt x="663" y="473" on="1"/>
        <pt x="663" y="178" on="1"/>
        <pt x="663" y="148" on="0"/>
        <pt x="704" y="112" on="0"/>
        <pt x="735" y="112" on="1"/>
        <pt x="787" y="112" on="0"/>
        <pt x="842" y="223" on="0"/>
        <pt x="842" y="298" on="1"/>
        <pt x="842" y="445" on="0"/>
        <pt x="636" y="635" on="0"/>
        <pt x="483" y="635" on="1"/>
        <pt x="326" y="635" on="0"/>
        <pt x="118" y="433" on="0"/>
        <pt x="118" y="279" on="1"/>
        <pt x="118" y="126" on="0"/>
        <pt x="323" y="-77" on="0"/>
        <pt x="471" y="-77" on="1"/>
        <pt x="532" y="-77" on="0"/>
        <pt x="662" y="-40" on="0"/>
        <pt x="710" y="-7" on="1"/>
        <pt x="737" y="-50" on="1"/>
        <pt x="687" y="-86" on="0"/>
        <pt x="541" y="-127" on="0"/>
        <pt x="472" y="-127" on="1"/>
        <pt x="302" y="-127" on="0"/>
        <pt x="65" y="103" on="0"/>
        <pt x="65" y="453" on="0"/>
        <pt x="304" y="683" on="0"/>
        <pt x="483" y="683" on="1"/>
        <pt x="657" y="683" on="0"/>
        <pt x="894" y="466" on="0"/>
        <pt x="894" y="300" on="1"/>
        <pt x="894" y="205" on="0"/>
        <pt x="812" y="66" on="0"/>
        <pt x="728" y="66" on="1"/>
        <pt x="681" y="66" on="0"/>
        <pt x="621" y="109" on="0"/>
        <pt x="613" y="146" on="1"/>
        <pt x="561" y="70" on="0"/>
        <pt x="460" y="70" on="1"/>
        <pt x="374" y="70" on="0"/>
        <pt x="260" y="184" on="0"/>
        <pt x="260" y="275" on="1"/>
        <pt x="260" y="367" on="0"/>
        <pt x="375" y="481" on="0"/>
        <pt x="459" y="481" on="1"/>
        <pt x="556" y="481" on="0"/>
        <pt x="610" y="406" on="1"/>
        <pt x="610" y="473" on="1"/>
      </contour>
      <contour>
        <pt x="406" y="122" on="0"/>
        <pt x="526" y="122" on="0"/>
        <pt x="610" y="207" on="0"/>
        <pt x="610" y="276" on="1"/>
        <pt x="610" y="344" on="0"/>
        <pt x="526" y="427" on="0"/>
        <pt x="406" y="427" on="0"/>
        <pt x="321" y="344" on="0"/>
        <pt x="321" y="276" on="1"/>
        <pt x="321" y="207" on="0"/>
      </contour>
    </TTGlyph>
    <TTGlyph name="at.case" xMin="65" yMin="-87" xMax="894" yMax="723">
      <contour>
        <pt x="663" y="513" on="1"/>
        <pt x="663" y="218" on="1"/>
        <pt x="663" y="188" on="0"/>
        <pt x="704" y="152" on="0"/>
        <pt x="735" y="152" on="1"/>
        <pt x="787" y="152" on="0"/>
        <pt x="842" y="263" on="0"/>
        <pt x="842" y="338" on="1"/>
        <pt x="842" y="485" on="0"/>
        <pt x="636" y="675" on="0"/>
        <pt x="483" y="675" on="1"/>
        <pt x="326" y="675" on="0"/>
        <pt x="118" y="473" on="0"/>
        <pt x="118" y="319" on="1"/>
        <pt x="118" y="166" on="0"/>
        <pt x="323" y="-37" on="0"/>
        <pt x="471" y="-37" on="1"/>
        <pt x="532" y="-37" on="0"/>
        <pt x="662" y="0" on="0"/>
        <pt x="710" y="34" on="1"/>
        <pt x="737" y="-10" on="1"/>
        <pt x="687" y="-46" on="0"/>
        <pt x="541" y="-87" on="0"/>
        <pt x="472" y="-87" on="1"/>
        <pt x="302" y="-87" on="0"/>
        <pt x="65" y="143" on="0"/>
        <pt x="65" y="493" on="0"/>
        <pt x="304" y="723" on="0"/>
        <pt x="483" y="723" on="1"/>
        <pt x="657" y="723" on="0"/>
        <pt x="894" y="506" on="0"/>
        <pt x="894" y="340" on="1"/>
        <pt x="894" y="245" on="0"/>
        <pt x="812" y="106" on="0"/>
        <pt x="728" y="106" on="1"/>
        <pt x="681" y="106" on="0"/>
        <pt x="621" y="149" on="0"/>
        <pt x="613" y="186" on="1"/>
        <pt x="561" y="110" on="0"/>
        <pt x="460" y="110" on="1"/>
        <pt x="374" y="110" on="0"/>
        <pt x="260" y="224" on="0"/>
        <pt x="260" y="315" on="1"/>
        <pt x="260" y="407" on="0"/>
        <pt x="375" y="521" on="0"/>
        <pt x="459" y="521" on="1"/>
        <pt x="556" y="521" on="0"/>
        <pt x="610" y="446" on="1"/>
        <pt x="610" y="513" on="1"/>
      </contour>
      <contour>
        <pt x="406" y="162" on="0"/>
        <pt x="526" y="162" on="0"/>
        <pt x="610" y="247" on="0"/>
        <pt x="610" y="316" on="1"/>
        <pt x="610" y="384" on="0"/>
        <pt x="526" y="467" on="0"/>
        <pt x="406" y="467" on="0"/>
        <pt x="321" y="384" on="0"/>
        <pt x="321" y="316" on="1"/>
        <pt x="321" y="247" on="0"/>
      </contour>
    </TTGlyph>
    <TTGlyph name="atilde" xMin="38" yMin="-13" xMax="556" yMax="694">
      <contour>
        <pt x="253" y="637" on="1"/>
        <pt x="236" y="637" on="0"/>
        <pt x="216" y="612" on="0"/>
        <pt x="216" y="592" on="1"/>
        <pt x="162" y="592" on="1"/>
        <pt x="162" y="644" on="0"/>
        <pt x="213" y="694" on="0"/>
        <pt x="249" y="694" on="1"/>
        <pt x="281" y="694" on="0"/>
        <pt x="350" y="646" on="0"/>
        <pt x="371" y="646" on="1"/>
        <pt x="388" y="646" on="0"/>
        <pt x="408" y="672" on="0"/>
        <pt x="408" y="693" on="1"/>
        <pt x="462" y="693" on="1"/>
        <pt x="462" y="640" on="0"/>
        <pt x="411" y="589" on="0"/>
        <pt x="375" y="589" on="1"/>
        <pt x="343" y="589" on="0"/>
        <pt x="274" y="637" on="0"/>
      </contour>
      <contour>
        <pt x="556" y="493" on="1"/>
        <pt x="556" y="0" on="1"/>
        <pt x="480" y="0" on="1"/>
        <pt x="480" y="78" on="1"/>
        <pt x="411" y="-13" on="0"/>
        <pt x="284" y="-13" on="1"/>
        <pt x="183" y="-13" on="0"/>
        <pt x="38" y="132" on="0"/>
        <pt x="38" y="360" on="0"/>
        <pt x="183" y="505" on="0"/>
        <pt x="284" y="505" on="1"/>
        <pt x="411" y="505" on="0"/>
        <pt x="480" y="414" on="1"/>
        <pt x="480" y="493" on="1"/>
      </contour>
      <contour>
        <pt x="296" y="55" on="1"/>
        <pt x="369" y="55" on="0"/>
        <pt x="480" y="162" on="0"/>
        <pt x="480" y="246" on="1"/>
        <pt x="480" y="331" on="0"/>
        <pt x="369" y="438" on="0"/>
        <pt x="296" y="438" on="1"/>
        <pt x="218" y="438" on="0"/>
        <pt x="112" y="332" on="0"/>
        <pt x="112" y="160" on="0"/>
        <pt x="218" y="55" on="0"/>
      </contour>
    </TTGlyph>
    <TTGlyph name="atilde.ss01" xMin="43" yMin="-13" xMax="481" yMax="694">
      <contour>
        <pt x="223" y="637" on="1"/>
        <pt x="206" y="637" on="0"/>
        <pt x="186" y="612" on="0"/>
        <pt x="186" y="592" on="1"/>
        <pt x="132" y="592" on="1"/>
        <pt x="132" y="644" on="0"/>
        <pt x="183" y="694" on="0"/>
        <pt x="219" y="694" on="1"/>
        <pt x="251" y="694" on="0"/>
        <pt x="320" y="646" on="0"/>
        <pt x="341" y="646" on="1"/>
        <pt x="358" y="646" on="0"/>
        <pt x="378" y="672" on="0"/>
        <pt x="378" y="693" on="1"/>
        <pt x="432" y="693" on="1"/>
        <pt x="432" y="640" on="0"/>
        <pt x="381" y="589" on="0"/>
        <pt x="345" y="589" on="1"/>
        <pt x="313" y="589" on="0"/>
        <pt x="244" y="637" on="0"/>
      </contour>
      <contour>
        <pt x="277" y="505" on="1"/>
        <pt x="371" y="505" on="0"/>
        <pt x="481" y="408" on="0"/>
        <pt x="481" y="320" on="1"/>
        <pt x="481" y="0" on="1"/>
        <pt x="407" y="0" on="1"/>
        <pt x="407" y="75" on="1"/>
        <pt x="341" y="-13" on="0"/>
        <pt x="222" y="-13" on="1"/>
        <pt x="141" y="-13" on="0"/>
        <pt x="43" y="71" on="0"/>
        <pt x="43" y="138" on="1"/>
        <pt x="43" y="207" on="0"/>
        <pt x="147" y="292" on="0"/>
        <pt x="241" y="292" on="1"/>
        <pt x="407" y="292" on="1"/>
        <pt x="407" y="315" on="1"/>
        <pt x="407" y="372" on="0"/>
        <pt x="339" y="438" on="0"/>
        <pt x="281" y="438" on="1"/>
        <pt x="225" y="438" on="0"/>
        <pt x="151" y="385" on="0"/>
        <pt x="143" y="339" on="1"/>
        <pt x="70" y="355" on="1"/>
        <pt x="82" y="422" on="0"/>
        <pt x="196" y="505" on="0"/>
      </contour>
      <contour>
        <pt x="233" y="50" on="1"/>
        <pt x="306" y="50" on="0"/>
        <pt x="407" y="140" on="0"/>
        <pt x="407" y="206" on="1"/>
        <pt x="407" y="232" on="1"/>
        <pt x="240" y="232" on="1"/>
        <pt x="181" y="232" on="0"/>
        <pt x="116" y="181" on="0"/>
        <pt x="116" y="139" on="1"/>
        <pt x="116" y="100" on="0"/>
        <pt x="180" y="50" on="0"/>
      </contour>
    </TTGlyph>
    <TTGlyph name="b" xMin="88" yMin="-13" xMax="606" yMax="720">
      <contour>
        <pt x="360" y="505" on="1"/>
        <pt x="461" y="505" on="0"/>
        <pt x="606" y="360" on="0"/>
        <pt x="606" y="132" on="0"/>
        <pt x="461" y="-13" on="0"/>
        <pt x="360" y="-13" on="1"/>
        <pt x="233" y="-13" on="0"/>
        <pt x="164" y="78" on="1"/>
        <pt x="164" y="0" on="1"/>
        <pt x="88" y="0" on="1"/>
        <pt x="88" y="720" on="1"/>
        <pt x="164" y="720" on="1"/>
        <pt x="164" y="414" on="1"/>
        <pt x="233" y="505" on="0"/>
      </contour>
      <contour>
        <pt x="348" y="55" on="1"/>
        <pt x="426" y="55" on="0"/>
        <pt x="532" y="160" on="0"/>
        <pt x="532" y="332" on="0"/>
        <pt x="426" y="438" on="0"/>
        <pt x="348" y="438" on="1"/>
        <pt x="275" y="438" on="0"/>
        <pt x="164" y="331" on="0"/>
        <pt x="164" y="246" on="1"/>
        <pt x="164" y="162" on="0"/>
        <pt x="275" y="55" on="0"/>
      </contour>
    </TTGlyph>
    <TTGlyph name="backslash" xMin="8" yMin="-72" xMax="361" yMax="741">
      <contour>
        <pt x="361" y="-72" on="1"/>
        <pt x="296" y="-72" on="1"/>
        <pt x="8" y="741" on="1"/>
        <pt x="73" y="741" on="1"/>
      </contour>
    </TTGlyph>
    <TTGlyph name="backslash.case" xMin="28" yMin="0" xMax="340" yMax="670">
      <contour>
        <pt x="340" y="0" on="1"/>
        <pt x="265" y="0" on="1"/>
        <pt x="28" y="670" on="1"/>
        <pt x="103" y="670" on="1"/>
      </contour>
    </TTGlyph>
    <TTGlyph name="bar" xMin="88" yMin="-72" xMax="162" yMax="741">
      <contour>
        <pt x="162" y="-72" on="1"/>
        <pt x="88" y="-72" on="1"/>
        <pt x="88" y="741" on="1"/>
        <pt x="162" y="741" on="1"/>
      </contour>
    </TTGlyph>
    <TTGlyph name="bar.case" xMin="88" yMin="-41" xMax="162" yMax="711">
      <contour>
        <pt x="162" y="-41" on="1"/>
        <pt x="88" y="-41" on="1"/>
        <pt x="88" y="711" on="1"/>
        <pt x="162" y="711" on="1"/>
      </contour>
    </TTGlyph>
    <TTGlyph name="braceleft" xMin="45" yMin="-82" xMax="375" yMax="741">
      <contour>
        <pt x="227" y="608" on="1"/>
        <pt x="227" y="440" on="1"/>
        <pt x="227" y="401" on="0"/>
        <pt x="191" y="343" on="0"/>
        <pt x="160" y="329" on="1"/>
        <pt x="227" y="300" on="0"/>
        <pt x="227" y="219" on="1"/>
        <pt x="227" y="51" on="1"/>
        <pt x="227" y="20" on="0"/>
        <pt x="263" y="-17" on="0"/>
        <pt x="292" y="-17" on="1"/>
        <pt x="375" y="-17" on="1"/>
        <pt x="375" y="-82" on="1"/>
        <pt x="283" y="-82" on="1"/>
        <pt x="224" y="-82" on="0"/>
        <pt x="153" y="-13" on="0"/>
        <pt x="153" y="44" on="1"/>
        <pt x="153" y="211" on="1"/>
        <pt x="153" y="283" on="0"/>
        <pt x="68" y="295" on="1"/>
        <pt x="45" y="300" on="1"/>
        <pt x="45" y="359" on="1"/>
        <pt x="68" y="364" on="1"/>
        <pt x="107" y="369" on="0"/>
        <pt x="153" y="411" on="0"/>
        <pt x="153" y="448" on="1"/>
        <pt x="153" y="615" on="1"/>
        <pt x="153" y="671" on="0"/>
        <pt x="225" y="741" on="0"/>
        <pt x="283" y="741" on="1"/>
        <pt x="375" y="741" on="1"/>
        <pt x="375" y="675" on="1"/>
        <pt x="292" y="675" on="1"/>
        <pt x="263" y="675" on="0"/>
        <pt x="227" y="638" on="0"/>
      </contour>
    </TTGlyph>
    <TTGlyph name="braceleft.case" xMin="45" yMin="0" xMax="375" yMax="670">
      <contour>
        <pt x="227" y="537" on="1"/>
        <pt x="227" y="443" on="1"/>
        <pt x="227" y="362" on="0"/>
        <pt x="160" y="333" on="1"/>
        <pt x="227" y="304" on="0"/>
        <pt x="227" y="221" on="1"/>
        <pt x="227" y="134" on="1"/>
        <pt x="227" y="103" on="0"/>
        <pt x="263" y="66" on="0"/>
        <pt x="292" y="66" on="1"/>
        <pt x="375" y="66" on="1"/>
        <pt x="375" y="0" on="1"/>
        <pt x="283" y="0" on="1"/>
        <pt x="224" y="0" on="0"/>
        <pt x="153" y="69" on="0"/>
        <pt x="153" y="127" on="1"/>
        <pt x="153" y="213" on="1"/>
        <pt x="153" y="250" on="0"/>
        <pt x="107" y="293" on="0"/>
        <pt x="68" y="298" on="1"/>
        <pt x="45" y="303" on="1"/>
        <pt x="45" y="362" on="1"/>
        <pt x="68" y="367" on="1"/>
        <pt x="153" y="379" on="0"/>
        <pt x="153" y="451" on="1"/>
        <pt x="153" y="544" on="1"/>
        <pt x="153" y="601" on="0"/>
        <pt x="224" y="670" on="0"/>
        <pt x="283" y="670" on="1"/>
        <pt x="375" y="670" on="1"/>
        <pt x="375" y="605" on="1"/>
        <pt x="292" y="605" on="1"/>
        <pt x="263" y="605" on="0"/>
        <pt x="227" y="568" on="0"/>
      </contour>
    </TTGlyph>
    <TTGlyph name="braceright" xMin="55" yMin="-82" xMax="385" yMax="741">
      <contour>
        <pt x="385" y="359" on="1"/>
        <pt x="385" y="300" on="1"/>
        <pt x="362" y="295" on="1"/>
        <pt x="277" y="283" on="0"/>
        <pt x="277" y="211" on="1"/>
        <pt x="277" y="44" on="1"/>
        <pt x="277" y="-13" on="0"/>
        <pt x="206" y="-82" on="0"/>
        <pt x="147" y="-82" on="1"/>
        <pt x="55" y="-82" on="1"/>
        <pt x="55" y="-17" on="1"/>
        <pt x="138" y="-17" on="1"/>
        <pt x="167" y="-17" on="0"/>
        <pt x="203" y="20" on="0"/>
        <pt x="203" y="51" on="1"/>
        <pt x="203" y="219" on="1"/>
        <pt x="203" y="300" on="0"/>
        <pt x="270" y="329" on="1"/>
        <pt x="239" y="343" on="0"/>
        <pt x="203" y="401" on="0"/>
        <pt x="203" y="440" on="1"/>
        <pt x="203" y="608" on="1"/>
        <pt x="203" y="638" on="0"/>
        <pt x="167" y="675" on="0"/>
        <pt x="138" y="675" on="1"/>
        <pt x="55" y="675" on="1"/>
        <pt x="55" y="741" on="1"/>
        <pt x="147" y="741" on="1"/>
        <pt x="205" y="741" on="0"/>
        <pt x="277" y="671" on="0"/>
        <pt x="277" y="615" on="1"/>
        <pt x="277" y="448" on="1"/>
        <pt x="277" y="411" on="0"/>
        <pt x="323" y="369" on="0"/>
        <pt x="362" y="364" on="1"/>
      </contour>
    </TTGlyph>
    <TTGlyph name="braceright.case" xMin="55" yMin="0" xMax="385" yMax="670">
      <contour>
        <pt x="385" y="362" on="1"/>
        <pt x="385" y="303" on="1"/>
        <pt x="362" y="298" on="1"/>
        <pt x="323" y="293" on="0"/>
        <pt x="277" y="250" on="0"/>
        <pt x="277" y="213" on="1"/>
        <pt x="277" y="127" on="1"/>
        <pt x="277" y="69" on="0"/>
        <pt x="206" y="0" on="0"/>
        <pt x="147" y="0" on="1"/>
        <pt x="55" y="0" on="1"/>
        <pt x="55" y="66" on="1"/>
        <pt x="138" y="66" on="1"/>
        <pt x="167" y="66" on="0"/>
        <pt x="203" y="103" on="0"/>
        <pt x="203" y="134" on="1"/>
        <pt x="203" y="221" on="1"/>
        <pt x="203" y="304" on="0"/>
        <pt x="270" y="333" on="1"/>
        <pt x="203" y="362" on="0"/>
        <pt x="203" y="443" on="1"/>
        <pt x="203" y="537" on="1"/>
        <pt x="203" y="568" on="0"/>
        <pt x="167" y="605" on="0"/>
        <pt x="138" y="605" on="1"/>
        <pt x="55" y="605" on="1"/>
        <pt x="55" y="670" on="1"/>
        <pt x="147" y="670" on="1"/>
        <pt x="206" y="670" on="0"/>
        <pt x="277" y="601" on="0"/>
        <pt x="277" y="544" on="1"/>
        <pt x="277" y="451" on="1"/>
        <pt x="277" y="379" on="0"/>
        <pt x="362" y="367" on="1"/>
      </contour>
    </TTGlyph>
    <TTGlyph name="bracketleft" xMin="88" yMin="-82" xMax="336" yMax="741">
      <contour>
        <pt x="162" y="674" on="1"/>
        <pt x="162" y="-16" on="1"/>
        <pt x="336" y="-16" on="1"/>
        <pt x="336" y="-82" on="1"/>
        <pt x="88" y="-82" on="1"/>
        <pt x="88" y="741" on="1"/>
        <pt x="336" y="741" on="1"/>
        <pt x="336" y="674" on="1"/>
      </contour>
    </TTGlyph>
    <TTGlyph name="bracketleft.case" xMin="88" yMin="0" xMax="336" yMax="670">
      <contour>
        <pt x="162" y="604" on="1"/>
        <pt x="162" y="67" on="1"/>
        <pt x="336" y="67" on="1"/>
        <pt x="336" y="0" on="1"/>
        <pt x="88" y="0" on="1"/>
        <pt x="88" y="670" on="1"/>
        <pt x="336" y="670" on="1"/>
        <pt x="336" y="604" on="1"/>
      </contour>
    </TTGlyph>
    <TTGlyph name="bracketright" xMin="55" yMin="-82" xMax="304" yMax="741">
      <contour>
        <pt x="304" y="741" on="1"/>
        <pt x="304" y="-82" on="1"/>
        <pt x="55" y="-82" on="1"/>
        <pt x="55" y="-16" on="1"/>
        <pt x="229" y="-16" on="1"/>
        <pt x="229" y="674" on="1"/>
        <pt x="55" y="674" on="1"/>
        <pt x="55" y="741" on="1"/>
      </contour>
    </TTGlyph>
    <TTGlyph name="bracketright.case" xMin="55" yMin="0" xMax="304" yMax="670">
      <contour>
        <pt x="304" y="670" on="1"/>
        <pt x="304" y="0" on="1"/>
        <pt x="55" y="0" on="1"/>
        <pt x="55" y="67" on="1"/>
        <pt x="229" y="67" on="1"/>
        <pt x="229" y="604" on="1"/>
        <pt x="55" y="604" on="1"/>
        <pt x="55" y="670" on="1"/>
      </contour>
    </TTGlyph>
    <TTGlyph name="breve" xMin="155" yMin="554" xMax="445" yMax="689">
      <contour>
        <pt x="365" y="554" on="0"/>
        <pt x="235" y="554" on="0"/>
        <pt x="155" y="628" on="0"/>
        <pt x="155" y="689" on="1"/>
        <pt x="219" y="689" on="1"/>
        <pt x="219" y="653" on="0"/>
        <pt x="265" y="609" on="0"/>
        <pt x="335" y="609" on="0"/>
        <pt x="381" y="653" on="0"/>
        <pt x="381" y="689" on="1"/>
        <pt x="445" y="689" on="1"/>
        <pt x="445" y="628" on="0"/>
      </contour>
    </TTGlyph>
    <TTGlyph name="bullet" xMin="50" yMin="120" xMax="348" yMax="407">
      <contour>
        <pt x="136" y="407" on="0"/>
        <pt x="262" y="407" on="0"/>
        <pt x="348" y="322" on="0"/>
        <pt x="348" y="263" on="1"/>
        <pt x="348" y="202" on="0"/>
        <pt x="263" y="120" on="0"/>
        <pt x="135" y="120" on="0"/>
        <pt x="50" y="202" on="0"/>
        <pt x="50" y="263" on="1"/>
        <pt x="50" y="322" on="0"/>
      </contour>
    </TTGlyph>
    <TTGlyph name="bullet.case" xMin="50" yMin="188" xMax="348" yMax="475">
      <contour>
        <pt x="136" y="475" on="0"/>
        <pt x="262" y="475" on="0"/>
        <pt x="348" y="390" on="0"/>
        <pt x="348" y="331" on="1"/>
        <pt x="348" y="270" on="0"/>
        <pt x="263" y="188" on="0"/>
        <pt x="135" y="188" on="0"/>
        <pt x="50" y="270" on="0"/>
        <pt x="50" y="331" on="1"/>
        <pt x="50" y="390" on="0"/>
      </contour>
    </TTGlyph>
    <TTGlyph name="c" xMin="43" yMin="-13" xMax="534" yMax="505">
      <contour>
        <pt x="300" y="58" on="1"/>
        <pt x="357" y="58" on="0"/>
        <pt x="446" y="115" on="0"/>
        <pt x="463" y="169" on="1"/>
        <pt x="533" y="150" on="1"/>
        <pt x="513" y="76" on="0"/>
        <pt x="383" y="-13" on="0"/>
        <pt x="300" y="-13" on="1"/>
        <pt x="193" y="-13" on="0"/>
        <pt x="43" y="131" on="0"/>
        <pt x="43" y="246" on="1"/>
        <pt x="43" y="360" on="0"/>
        <pt x="193" y="505" on="0"/>
        <pt x="300" y="505" on="1"/>
        <pt x="382" y="505" on="0"/>
        <pt x="512" y="416" on="0"/>
        <pt x="534" y="341" on="1"/>
        <pt x="461" y="319" on="1"/>
        <pt x="445" y="374" on="0"/>
        <pt x="357" y="435" on="0"/>
        <pt x="300" y="435" on="1"/>
        <pt x="223" y="435" on="0"/>
        <pt x="117" y="329" on="0"/>
        <pt x="117" y="246" on="1"/>
        <pt x="117" y="162" on="0"/>
        <pt x="222" y="58" on="0"/>
      </contour>
    </TTGlyph>
    <TTGlyph name="cacute" xMin="43" yMin="-13" xMax="534" yMax="707">
      <contour>
        <pt x="340" y="567" on="1"/>
        <pt x="273" y="567" on="1"/>
        <pt x="353" y="707" on="1"/>
        <pt x="442" y="707" on="1"/>
      </contour>
      <contour>
        <pt x="300" y="58" on="1"/>
        <pt x="357" y="58" on="0"/>
        <pt x="446" y="115" on="0"/>
        <pt x="463" y="169" on="1"/>
        <pt x="533" y="150" on="1"/>
        <pt x="513" y="76" on="0"/>
        <pt x="383" y="-13" on="0"/>
        <pt x="300" y="-13" on="1"/>
        <pt x="193" y="-13" on="0"/>
        <pt x="43" y="131" on="0"/>
        <pt x="43" y="246" on="1"/>
        <pt x="43" y="360" on="0"/>
        <pt x="193" y="505" on="0"/>
        <pt x="300" y="505" on="1"/>
        <pt x="382" y="505" on="0"/>
        <pt x="512" y="416" on="0"/>
        <pt x="534" y="341" on="1"/>
        <pt x="461" y="319" on="1"/>
        <pt x="445" y="374" on="0"/>
        <pt x="357" y="435" on="0"/>
        <pt x="300" y="435" on="1"/>
        <pt x="223" y="435" on="0"/>
        <pt x="117" y="329" on="0"/>
        <pt x="117" y="246" on="1"/>
        <pt x="117" y="162" on="0"/>
        <pt x="222" y="58" on="0"/>
      </contour>
    </TTGlyph>
    <TTGlyph name="caron" xMin="148" yMin="560" xMax="454" yMax="702">
      <contour>
        <pt x="454" y="702" on="1"/>
        <pt x="337" y="560" on="1"/>
        <pt x="264" y="560" on="1"/>
        <pt x="148" y="702" on="1"/>
        <pt x="225" y="702" on="1"/>
        <pt x="301" y="610" on="1"/>
        <pt x="376" y="702" on="1"/>
      </contour>
    </TTGlyph>
    <TTGlyph name="caron.alt" xMin="267" yMin="478" xMax="344" yMax="650">
      <contour>
        <pt x="328" y="478" on="1"/>
        <pt x="267" y="478" on="1"/>
        <pt x="267" y="650" on="1"/>
        <pt x="344" y="650" on="1"/>
      </contour>
    </TTGlyph>
    <TTGlyph name="ccaron" xMin="43" yMin="-13" xMax="534" yMax="702">
      <contour>
        <pt x="265" y="560" on="1"/>
        <pt x="149" y="702" on="1"/>
        <pt x="226" y="702" on="1"/>
        <pt x="302" y="610" on="1"/>
        <pt x="377" y="702" on="1"/>
        <pt x="455" y="702" on="1"/>
        <pt x="338" y="560" on="1"/>
      </contour>
      <contour>
        <pt x="300" y="58" on="1"/>
        <pt x="357" y="58" on="0"/>
        <pt x="446" y="115" on="0"/>
        <pt x="463" y="169" on="1"/>
        <pt x="533" y="150" on="1"/>
        <pt x="513" y="76" on="0"/>
        <pt x="383" y="-13" on="0"/>
        <pt x="300" y="-13" on="1"/>
        <pt x="193" y="-13" on="0"/>
        <pt x="43" y="131" on="0"/>
        <pt x="43" y="246" on="1"/>
        <pt x="43" y="360" on="0"/>
        <pt x="193" y="505" on="0"/>
        <pt x="300" y="505" on="1"/>
        <pt x="382" y="505" on="0"/>
        <pt x="512" y="416" on="0"/>
        <pt x="534" y="341" on="1"/>
        <pt x="461" y="319" on="1"/>
        <pt x="445" y="374" on="0"/>
        <pt x="357" y="435" on="0"/>
        <pt x="300" y="435" on="1"/>
        <pt x="223" y="435" on="0"/>
        <pt x="117" y="329" on="0"/>
        <pt x="117" y="246" on="1"/>
        <pt x="117" y="162" on="0"/>
        <pt x="222" y="58" on="0"/>
      </contour>
    </TTGlyph>
    <TTGlyph name="ccedilla" xMin="43" yMin="-170" xMax="534" yMax="505">
      <contour>
        <pt x="300" y="58" on="1"/>
        <pt x="357" y="58" on="0"/>
        <pt x="446" y="115" on="0"/>
        <pt x="463" y="169" on="1"/>
        <pt x="533" y="150" on="1"/>
        <pt x="515" y="82" on="0"/>
        <pt x="402" y="-4" on="0"/>
        <pt x="328" y="-12" on="1"/>
        <pt x="256" y="-170" on="1"/>
        <pt x="173" y="-170" on="1"/>
        <pt x="267" y="-11" on="1"/>
        <pt x="171" y="1" on="0"/>
        <pt x="43" y="140" on="0"/>
        <pt x="43" y="246" on="1"/>
        <pt x="43" y="360" on="0"/>
        <pt x="193" y="505" on="0"/>
        <pt x="300" y="505" on="1"/>
        <pt x="382" y="505" on="0"/>
        <pt x="512" y="416" on="0"/>
        <pt x="534" y="341" on="1"/>
        <pt x="461" y="319" on="1"/>
        <pt x="445" y="374" on="0"/>
        <pt x="357" y="435" on="0"/>
        <pt x="300" y="435" on="1"/>
        <pt x="223" y="435" on="0"/>
        <pt x="117" y="329" on="0"/>
        <pt x="117" y="246" on="1"/>
        <pt x="117" y="162" on="0"/>
        <pt x="222" y="58" on="0"/>
      </contour>
    </TTGlyph>
    <TTGlyph name="cdotaccent" xMin="43" yMin="-13" xMax="534" yMax="684">
      <contour>
        <pt x="301" y="585" on="1"/>
        <pt x="279" y="585" on="0"/>
        <pt x="250" y="613" on="0"/>
        <pt x="250" y="635" on="1"/>
        <pt x="250" y="655" on="0"/>
        <pt x="280" y="684" on="0"/>
        <pt x="301" y="684" on="1"/>
        <pt x="323" y="684" on="0"/>
        <pt x="353" y="655" on="0"/>
        <pt x="353" y="635" on="1"/>
        <pt x="353" y="613" on="0"/>
        <pt x="324" y="585" on="0"/>
      </contour>
      <contour>
        <pt x="300" y="58" on="1"/>
        <pt x="357" y="58" on="0"/>
        <pt x="446" y="115" on="0"/>
        <pt x="463" y="169" on="1"/>
        <pt x="533" y="150" on="1"/>
        <pt x="513" y="76" on="0"/>
        <pt x="383" y="-13" on="0"/>
        <pt x="300" y="-13" on="1"/>
        <pt x="193" y="-13" on="0"/>
        <pt x="43" y="131" on="0"/>
        <pt x="43" y="246" on="1"/>
        <pt x="43" y="360" on="0"/>
        <pt x="193" y="505" on="0"/>
        <pt x="300" y="505" on="1"/>
        <pt x="382" y="505" on="0"/>
        <pt x="512" y="416" on="0"/>
        <pt x="534" y="341" on="1"/>
        <pt x="461" y="319" on="1"/>
        <pt x="445" y="374" on="0"/>
        <pt x="357" y="435" on="0"/>
        <pt x="300" y="435" on="1"/>
        <pt x="223" y="435" on="0"/>
        <pt x="117" y="329" on="0"/>
        <pt x="117" y="246" on="1"/>
        <pt x="117" y="162" on="0"/>
        <pt x="222" y="58" on="0"/>
      </contour>
    </TTGlyph>
    <TTGlyph name="cedilla" xMin="192" yMin="-170" xMax="352" yMax="0">
      <contour>
        <pt x="293" y="0" on="1"/>
        <pt x="352" y="0" on="1"/>
        <pt x="275" y="-170" on="1"/>
        <pt x="192" y="-170" on="1"/>
      </contour>
    </TTGlyph>
    <TTGlyph name="cent" xMin="43" yMin="-130" xMax="534" yMax="630">
      <contour>
        <pt x="325" y="433" on="1"/>
        <pt x="325" y="59" on="1"/>
        <pt x="374" y="65" on="0"/>
        <pt x="448" y="122" on="0"/>
        <pt x="463" y="169" on="1"/>
        <pt x="533" y="150" on="1"/>
        <pt x="515" y="82" on="0"/>
        <pt x="402" y="-4" on="0"/>
        <pt x="327" y="-12" on="1"/>
        <pt x="327" y="-130" on="1"/>
        <pt x="261" y="-130" on="1"/>
        <pt x="261" y="-10" on="1"/>
        <pt x="167" y="3" on="0"/>
        <pt x="43" y="142" on="0"/>
        <pt x="43" y="246" on="1"/>
        <pt x="43" y="348" on="0"/>
        <pt x="168" y="489" on="0"/>
        <pt x="261" y="502" on="1"/>
        <pt x="261" y="630" on="1"/>
        <pt x="327" y="630" on="1"/>
        <pt x="327" y="504" on="1"/>
        <pt x="401" y="496" on="0"/>
        <pt x="514" y="409" on="0"/>
        <pt x="534" y="341" on="1"/>
        <pt x="461" y="319" on="1"/>
        <pt x="447" y="368" on="0"/>
        <pt x="374" y="427" on="0"/>
      </contour>
      <contour>
        <pt x="117" y="246" on="1"/>
        <pt x="117" y="172" on="0"/>
        <pt x="199" y="73" on="0"/>
        <pt x="264" y="61" on="1"/>
        <pt x="264" y="432" on="1"/>
        <pt x="200" y="420" on="0"/>
        <pt x="117" y="319" on="0"/>
      </contour>
    </TTGlyph>
</ttFont>
